<?xml version="1.0" encoding="utf-8"?><svg viewBox="0 0 689 644" xmlns="http://www.w3.org/2000/svg" xmlns:xlink="http://www.w3.org/1999/xlink"><style>:root>svg{display:none}:root>svg:target{display:block}</style><svg fill="none" viewBox="0 0 38 38" id="facebook-footer" xmlns="http://www.w3.org/2000/svg"><g clip-path="url(#aclip0)"><path d="M38 19.116C38 8.56 29.493 0 19 0S0 8.559 0 19.116C0 28.657 6.948 36.566 16.031 38V24.642h-4.824v-5.526h4.824v-4.211c0-4.791 2.837-7.438 7.177-7.438 2.079 0 4.253.374 4.253.374v4.704h-2.396c-2.36 0-3.096 1.473-3.096 2.985v3.586h5.27l-.843 5.526h-4.427V38C31.052 36.566 38 28.657 38 19.116z" fill="#24A3FF"/></g><defs><clipPath id="aclip0"><path fill="#fff" d="M0 0h38v38H0z"/></clipPath></defs></svg><svg fill="none" viewBox="0 0 24 24" id="facebook-header" xmlns="http://www.w3.org/2000/svg"><path d="M24 12.073C24 5.405 18.627 0 12 0S0 5.405 0 12.073C0 18.1 4.388 23.094 10.125 24v-8.437H7.078v-3.49h3.047v-2.66c0-3.025 1.791-4.697 4.533-4.697 1.313 0 2.686.236 2.686.236v2.971H15.83c-1.491 0-1.956.93-1.956 1.886v2.264h3.328l-.532 3.49h-2.796V24C19.612 23.094 24 18.1 24 12.073z" fill="#fff"/></svg><svg fill="none" viewBox="0 0 689 644" id="frame-2" xmlns="http://www.w3.org/2000/svg"><g clip-path="url(#cclip0)" fill-rule="evenodd" clip-rule="evenodd" fill="#fff" fill-opacity=".1"><path d="M564.195 304.898h-3.6l10.796-33.455c.723-2.182 2.789-3.672 5.224-3.704 2.017-.011 3.113-.009 5.133 0 4.372.019 6.055 1.739 7.075 4.572.49 1.36.532 3.278.131 4.55-1.039 3.196-1.285 3.937-2.338 7.127-.689 2.053-2.549 3.426-4.801 3.609 0 0 3.024-9.152 3.967-12.142.57-1.866-.524-4.412-3.4-4.412-2.012-.024-3.27-.011-5.277 0-1.163.015-2.183.725-2.541 1.806l-10.369 32.049zM578.209 295.315h7.924l-4.475 13.61-3.632-.024 3.37-10.273h-4.29l1.103-3.313z"/><path d="M595.851 277.982h3.602l-10.822 33.455c-.725 2.182-2.793 3.672-5.229 3.704-2.019.011-3.115.009-5.137 0-4.374-.019-6.057-1.739-7.076-4.572-.489-1.36-.53-3.278-.128-4.55 1.042-3.196 1.288-3.937 2.343-7.127.691-2.053 2.553-3.426 4.807-3.609 0 0-3.032 9.152-3.977 12.142-.571 1.866.521 4.412 3.4 4.412 2.013.024 3.271.011 5.28 0 1.163-.015 2.184-.725 2.543-1.806l10.394-32.049zM393.038 500.124h-7.924l4.476-13.61 3.631.024-3.369 10.273h4.29l-1.104 3.313z"/><path d="M375.396 517.457h-3.602l10.822-33.455c.725-2.182 2.793-3.672 5.229-3.704 2.019-.011 3.115-.009 5.137 0 4.374.019 6.057 1.739 7.076 4.572.49 1.36.531 3.278.129 4.55-1.042 3.196-1.289 3.937-2.344 7.127-.69 2.053-2.552 3.426-4.806 3.609 0 0 3.031-9.152 3.977-12.142.571-1.866-.522-4.412-3.4-4.412-2.013-.024-3.272-.011-5.28 0-1.163.015-2.185.725-2.544 1.806l-10.394 32.049zM501.722 404.179h-7.924l4.475-13.609 3.632.023-3.37 10.274h4.29l-1.103 3.312z"/><path d="M484.08 421.513h-3.602l10.822-33.455c.725-2.183 2.793-3.672 5.229-3.704 2.019-.011 3.115-.009 5.136 0 4.375.019 6.058 1.739 7.077 4.571.489 1.361.53 3.279.128 4.551-1.042 3.196-1.289 3.936-2.343 7.126-.691 2.054-2.553 3.427-4.807 3.61 0 0 3.032-9.152 3.977-12.142.571-1.866-.522-4.412-3.4-4.412-2.013-.024-3.271-.011-5.28 0-1.163.015-2.184.725-2.543 1.806l-10.394 32.049zM526.881 432.749h7.924l-4.476 13.609-3.631-.023 3.37-10.274h-4.291l1.104-3.312z"/><path d="M544.523 415.415h3.602l-10.822 33.455c-.725 2.183-2.793 3.672-5.229 3.705-2.019.01-3.115.008-5.137 0-4.374-.02-6.057-1.74-7.076-4.572-.489-1.361-.531-3.278-.129-4.55 1.043-3.197 1.289-3.937 2.344-7.127.691-2.053 2.553-3.427 4.807-3.61 0 0-3.032 9.152-3.977 12.142-.571 1.866.521 4.413 3.399 4.413 2.014.023 3.272.01 5.28 0 1.164-.015 2.185-.726 2.544-1.806l10.394-32.05zM287.951 552.327h7.924l-4.476 13.61-3.631-.024 3.369-10.273h-4.29l1.104-3.313z"/><path d="M305.593 534.994h3.602l-10.822 33.455c-.725 2.182-2.794 3.672-5.23 3.704-2.018.011-3.115.008-5.136 0-4.375-.02-6.058-1.739-7.076-4.572-.49-1.36-.531-3.278-.129-4.55 1.042-3.196 1.289-3.937 2.344-7.127.69-2.053 2.552-3.426 4.806-3.609 0 0-3.031 9.152-3.977 12.142-.571 1.866.522 4.412 3.4 4.412 2.013.024 3.272.011 5.28 0 1.163-.015 2.184-.725 2.544-1.806l10.394-32.049zM425.828 475.794h7.924l-4.476 13.61-3.631-.024 3.369-10.274h-4.29l1.104-3.312z"/><path d="M443.47 458.461h3.602l-10.822 33.454c-.725 2.183-2.794 3.672-5.23 3.705-2.019.01-3.115.008-5.136 0-4.375-.02-6.058-1.739-7.076-4.572-.49-1.36-.531-3.278-.129-4.55 1.042-3.197 1.289-3.937 2.344-7.127.69-2.053 2.552-3.426 4.806-3.609 0 0-3.032 9.152-3.977 12.141-.571 1.866.522 4.413 3.4 4.413 2.013.023 3.272.011 5.28 0 1.163-.015 2.184-.726 2.544-1.806l10.394-32.049zM345.73 592.409h7.924l-4.476 13.61-3.631-.024 3.37-10.274h-4.291l1.104-3.312z"/><path d="M363.372 575.076h3.602l-10.822 33.454c-.725 2.183-2.794 3.672-5.23 3.705-2.019.01-3.115.008-5.136 0-4.375-.02-6.058-1.739-7.076-4.572-.49-1.36-.531-3.278-.129-4.55 1.042-3.197 1.289-3.937 2.344-7.127.69-2.053 2.552-3.426 4.806-3.609 0 0-3.032 9.152-3.977 12.141-.571 1.866.522 4.413 3.4 4.413 2.013.023 3.272.011 5.28 0 1.163-.015 2.184-.726 2.544-1.806l10.394-32.049zM629.401 293.637h-3.6l10.796-33.455c.723-2.183 2.789-3.672 5.224-3.704 2.018-.011 3.113-.009 5.134 0 4.371.019 6.055 1.739 7.074 4.571.49 1.361.533 3.278.132 4.55-1.04 3.197-1.286 3.937-2.338 7.127-.689 2.053-2.55 3.427-4.802 3.61 0 0 3.024-9.152 3.967-12.142.57-1.866-.523-4.413-3.4-4.413-2.012-.023-3.27-.01-5.277 0-1.162.015-2.183.726-2.541 1.806l-10.369 32.05zM643.397 284.054h7.924l-4.475 13.609-3.632-.023 3.37-10.274h-4.291l1.104-3.312z"/><path d="M661.039 266.72h3.602l-10.822 33.455c-.725 2.183-2.793 3.672-5.229 3.704-2.019.011-3.115.009-5.137 0-4.374-.019-6.057-1.739-7.076-4.571-.489-1.361-.531-3.278-.129-4.55 1.043-3.197 1.289-3.937 2.344-7.127.691-2.053 2.553-3.427 4.807-3.61 0 0-3.032 9.152-3.977 12.142-.572 1.866.521 4.413 3.399 4.413 2.013.023 3.272.01 5.28 0 1.164-.016 2.185-.726 2.544-1.806l10.394-32.05zM677.325 296.455h-7.924l4.476-13.609 3.631.023-3.369 10.274h4.29l-1.104 3.312z"/><path d="M659.683 313.789h-3.602l10.822-33.455c.725-2.183 2.794-3.672 5.23-3.704 2.019-.011 3.115-.009 5.136 0 4.375.019 6.058 1.739 7.076 4.571.49 1.361.531 3.278.129 4.55-1.042 3.197-1.289 3.937-2.344 7.127-.69 2.053-2.552 3.427-4.806 3.61 0 0 3.032-9.152 3.977-12.142.571-1.866-.522-4.412-3.4-4.412-2.013-.024-3.272-.011-5.28 0-1.163.015-2.184.725-2.544 1.805l-10.394 32.05zM488.525 509.014h-7.924l4.476-13.609 3.631.023-3.369 10.274h4.29l-1.104 3.312z"/><path d="M470.883 526.348h-3.601l10.822-33.455c.725-2.183 2.793-3.672 5.229-3.704 2.019-.011 3.115-.009 5.136 0 4.375.019 6.058 1.739 7.077 4.571.489 1.361.53 3.278.128 4.551-1.042 3.196-1.289 3.936-2.343 7.126-.691 2.054-2.553 3.427-4.807 3.61 0 0 3.032-9.152 3.977-12.142.571-1.866-.522-4.412-3.4-4.412-2.013-.024-3.271-.011-5.28 0-1.163.015-2.184.725-2.543 1.805l-10.395 32.05zM433.292 421.858h7.924l-4.476 13.61-3.631-.024 3.37-10.274h-4.291l1.104-3.312z"/><path d="M450.934 404.525h3.602l-10.822 33.454c-.725 2.183-2.793 3.672-5.229 3.705-2.019.01-3.115.008-5.137 0-4.374-.02-6.057-1.74-7.076-4.572-.489-1.36-.531-3.278-.129-4.55 1.043-3.197 1.289-3.937 2.344-7.127.691-2.053 2.553-3.427 4.807-3.609 0 0-3.032 9.152-3.977 12.141-.572 1.866.521 4.413 3.399 4.413 2.014.023 3.272.01 5.28 0 1.164-.015 2.185-.726 2.544-1.806l10.394-32.049zM248.121 626.667h-7.924l4.475-13.61 3.632.024-3.37 10.273h4.291l-1.104 3.313z"/><path d="M230.479 644h-3.602l10.822-33.455c.725-2.182 2.793-3.672 5.229-3.704 2.019-.011 3.115-.009 5.137 0 4.374.019 6.057 1.739 7.076 4.571.489 1.361.531 3.279.128 4.551-1.042 3.196-1.288 3.936-2.343 7.126-.691 2.054-2.553 3.427-4.807 3.61 0 0 3.032-9.152 3.977-12.142.571-1.866-.521-4.412-3.399-4.412-2.014-.024-3.272-.011-5.281 0-1.163.015-2.184.725-2.543 1.806L230.479 644zM574.484 339.871h-7.924l4.476-13.61 3.631.024-3.369 10.273h4.29l-1.104 3.313z"/><path d="M556.842 357.204h-3.602l10.822-33.455c.725-2.182 2.794-3.672 5.23-3.704 2.019-.011 3.115-.008 5.136 0 4.375.02 6.058 1.739 7.076 4.572.49 1.36.531 3.278.129 4.55-1.042 3.196-1.289 3.937-2.344 7.127-.69 2.053-2.552 3.426-4.806 3.609 0 0 3.032-9.152 3.977-12.142.571-1.866-.522-4.412-3.4-4.412-2.013-.024-3.272-.011-5.28 0-1.163.015-2.184.725-2.544 1.806l-10.394 32.049zM155.409 479.45h-3.6l10.799-33.455c.723-2.183 2.789-3.672 5.224-3.704 2.018-.011 3.113-.009 5.134 0 4.372.019 6.055 1.739 7.075 4.571.49 1.361.532 3.279.131 4.551-1.04 3.196-1.286 3.936-2.339 7.126-.689 2.054-2.549 3.427-4.802 3.61 0 0 3.025-9.152 3.968-12.142.57-1.866-.523-4.412-3.4-4.412-2.012-.024-3.27-.011-5.277 0-1.163.015-2.183.725-2.541 1.806l-10.372 32.049zM169.426 469.867h7.924l-4.476 13.61-3.632-.024 3.37-10.273h-4.29l1.104-3.313z"/><path d="M187.069 452.534h3.602l-10.824 33.454c-.725 2.183-2.793 3.672-5.229 3.705-2.019.01-3.116.008-5.137 0-4.375-.02-6.058-1.739-7.076-4.572-.49-1.36-.531-3.278-.129-4.55 1.042-3.197 1.289-3.937 2.344-7.127.691-2.053 2.553-3.426 4.807-3.609 0 0-3.032 9.152-3.978 12.141-.571 1.866.522 4.413 3.4 4.413 2.013.023 3.272.011 5.28 0 1.164-.015 2.185-.726 2.544-1.806l10.396-32.049zM282.217 364.098h-7.925l4.477-13.61 3.632.024-3.371 10.273h4.291l-1.104 3.313z"/><path d="M264.573 381.431h-3.603l10.826-33.455c.725-2.182 2.793-3.672 5.23-3.704 2.019-.011 3.115-.009 5.137 0 4.374.019 6.057 1.739 7.076 4.572.489 1.36.53 3.278.128 4.55-1.042 3.196-1.289 3.937-2.344 7.126-.691 2.054-2.553 3.427-4.807 3.61 0 0 3.032-9.152 3.978-12.142.571-1.866-.521-4.412-3.4-4.412-2.013-.024-3.272-.011-5.28 0-1.163.015-2.185.725-2.544 1.806l-10.397 32.049zM278.607 371.848h7.924l-4.476 13.61-3.632-.024 3.37-10.273h-4.29l1.104-3.313z"/><path d="M296.25 354.515h3.602l-10.824 33.455c-.725 2.182-2.794 3.672-5.23 3.704-2.019.011-3.115.008-5.136 0-4.375-.02-6.058-1.739-7.077-4.572-.489-1.36-.53-3.278-.128-4.55 1.042-3.196 1.289-3.937 2.344-7.127.691-2.053 2.553-3.426 4.807-3.609 0 0-3.032 9.152-3.978 12.142-.571 1.866.521 4.412 3.4 4.412 2.013.024 3.272.011 5.28 0 1.163-.015 2.185-.725 2.544-1.806l10.396-32.049zM387.29 275.83h7.924l-4.476 13.61-3.631-.024 3.37-10.273h-4.291l1.104-3.313z"/><path d="M404.932 258.497h3.602l-10.822 33.455c-.725 2.182-2.793 3.672-5.229 3.704-2.019.011-3.115.009-5.137 0-4.374-.019-6.057-1.739-7.076-4.572-.489-1.36-.531-3.278-.129-4.55 1.043-3.196 1.289-3.937 2.344-7.126.691-2.054 2.553-3.427 4.807-3.61 0 0-3.032 9.152-3.977 12.142-.572 1.866.521 4.412 3.399 4.412 2.014.024 3.272.011 5.28 0 1.164-.015 2.185-.725 2.544-1.806l10.394-32.049zM202.119 480.712h-7.925l4.477-13.609 3.632.023-3.371 10.274h4.291l-1.104 3.312z"/><path d="M184.475 498.046h-3.603l10.826-33.455c.725-2.183 2.793-3.672 5.23-3.704 2.019-.011 3.115-.009 5.137 0 4.374.019 6.057 1.739 7.076 4.571.489 1.361.53 3.278.128 4.551-1.042 3.196-1.289 3.936-2.344 7.126-.691 2.054-2.553 3.427-4.807 3.61 0 0 3.032-9.152 3.978-12.142.571-1.866-.521-4.412-3.4-4.412-2.013-.024-3.272-.011-5.28 0-1.163.015-2.185.725-2.544 1.805l-10.397 32.05zM198.509 488.463h7.924l-4.476 13.61-3.632-.024 3.37-10.274h-4.29l1.104-3.312z"/><path d="M216.152 471.13h3.602l-10.824 33.454c-.725 2.183-2.793 3.672-5.23 3.705-2.019.01-3.115.008-5.136 0-4.375-.02-6.058-1.74-7.077-4.572-.489-1.36-.53-3.278-.128-4.55 1.042-3.197 1.289-3.937 2.344-7.127.691-2.053 2.553-3.427 4.807-3.609 0 0-3.032 9.152-3.978 12.141-.571 1.866.522 4.413 3.4 4.413 2.013.023 3.272.01 5.28 0 1.163-.015 2.185-.726 2.544-1.806l10.396-32.049zM310.894 385.583h-7.924l4.477-13.609 3.631.023-3.37 10.274h4.29l-1.104 3.312z"/><path d="M293.25 402.917h-3.602l10.826-33.455c.725-2.183 2.793-3.672 5.229-3.704 2.019-.011 3.116-.009 5.137 0 4.375.019 6.058 1.739 7.077 4.571.489 1.361.53 3.278.128 4.55-1.043 3.197-1.289 3.937-2.344 7.127-.691 2.053-2.554 3.427-4.808 3.61 0 0 3.033-9.152 3.979-12.142.571-1.866-.522-4.413-3.4-4.413-2.013-.023-3.272-.01-5.28 0-1.164.016-2.185.726-2.544 1.806l-10.398 32.05zM307.284 393.333h7.925l-4.477 13.61-3.631-.024 3.37-10.273h-4.291l1.104-3.313z"/><path d="M324.927 376h3.602l-10.823 33.455c-.726 2.183-2.794 3.672-5.23 3.704-2.019.011-3.115.009-5.137 0-4.374-.019-6.057-1.739-7.076-4.571-.489-1.361-.531-3.278-.128-4.55 1.042-3.197 1.289-3.937 2.344-7.127.69-2.053 2.552-3.427 4.806-3.61 0 0-3.032 9.152-3.977 12.142-.571 1.866.521 4.413 3.4 4.413 2.013.023 3.271.01 5.28 0 1.163-.016 2.184-.726 2.544-1.806L324.927 376zM419.596 289.639h-7.925l4.477-13.61 3.632.024-3.371 10.273h4.291l-1.104 3.313z"/><path d="M401.952 306.972h-3.602l10.825-33.455c.726-2.182 2.794-3.672 5.23-3.704 2.019-.011 3.115-.008 5.137 0 4.375.02 6.058 1.739 7.076 4.572.49 1.36.531 3.278.129 4.55-1.043 3.196-1.29 3.937-2.345 7.127-.691 2.053-2.553 3.426-4.807 3.609 0 0 3.033-9.152 3.978-12.141.572-1.867-.521-4.413-3.399-4.413-2.014-.024-3.272-.011-5.281 0-1.163.015-2.184.725-2.544 1.806l-10.397 32.049zM415.986 297.389h7.924l-4.476 13.61-3.632-.024 3.371-10.273h-4.291l1.104-3.313z"/><path d="M433.629 280.056h3.602l-10.824 33.455c-.725 2.182-2.793 3.672-5.229 3.704-2.019.011-3.115.009-5.137 0-4.375-.019-6.058-1.739-7.076-4.572-.49-1.36-.531-3.278-.129-4.55 1.043-3.196 1.289-3.937 2.344-7.126.691-2.054 2.553-3.427 4.807-3.61 0 0-3.032 9.152-3.977 12.142-.572 1.866.521 4.412 3.399 4.412 2.014.024 3.272.011 5.281 0 1.163-.015 2.184-.725 2.543-1.806l10.396-32.049zM230.796 502.198h-7.924l4.477-13.609 3.631.023-3.37 10.274h4.29l-1.104 3.312z"/><path d="M213.152 519.531h-3.602l10.825-33.454c.726-2.183 2.794-3.672 5.23-3.704 2.019-.011 3.115-.009 5.137 0 4.375.019 6.058 1.739 7.077 4.571.489 1.361.53 3.278.128 4.55-1.043 3.197-1.289 3.937-2.345 7.127-.69 2.053-2.553 3.427-4.807 3.61 0 0 3.033-9.152 3.978-12.142.572-1.866-.521-4.413-3.399-4.413-2.013-.023-3.272-.01-5.281 0-1.163.015-2.184.726-2.543 1.806l-10.398 32.049zM227.186 509.949h7.925l-4.477 13.609-3.631-.024 3.37-10.273h-4.291l1.104-3.312z"/><path d="M244.829 492.615h3.602l-10.823 33.455c-.726 2.183-2.794 3.672-5.23 3.704-2.019.011-3.115.009-5.137 0-4.374-.019-6.057-1.739-7.076-4.571-.489-1.361-.531-3.278-.128-4.55 1.042-3.197 1.289-3.937 2.344-7.127.69-2.053 2.552-3.427 4.806-3.61 0 0-3.032 9.152-3.977 12.142-.571 1.866.521 4.413 3.399 4.413 2.014.023 3.272.01 5.281 0 1.163-.016 2.184-.726 2.544-1.806l10.395-32.05zM339.682 406.403h-7.924l4.477-13.609 3.631.023-3.37 10.274h4.29l-1.104 3.312z"/><path d="M322.038 423.737h-3.602l10.826-33.455c.725-2.183 2.793-3.672 5.229-3.704 2.019-.011 3.116-.009 5.137 0 4.375.019 6.058 1.739 7.077 4.571.489 1.361.53 3.278.128 4.55-1.043 3.197-1.289 3.937-2.344 7.127-.691 2.053-2.554 3.427-4.808 3.61 0 0 3.033-9.152 3.979-12.142.571-1.866-.522-4.412-3.4-4.412-2.013-.024-3.272-.011-5.28 0-1.164.015-2.185.725-2.544 1.805l-10.398 32.05zM336.072 414.154h7.925l-4.477 13.609-3.631-.023 3.37-10.274h-4.291l1.104-3.312z"/><path d="M353.716 396.82h3.602l-10.824 33.455c-.725 2.183-2.794 3.672-5.23 3.705-2.019.01-3.115.008-5.137 0-4.374-.02-6.057-1.74-7.076-4.572-.489-1.36-.53-3.278-.128-4.55 1.042-3.197 1.289-3.937 2.344-7.127.69-2.053 2.553-3.427 4.807-3.61 0 0-3.033 9.153-3.978 12.142-.571 1.866.521 4.413 3.4 4.413 2.013.023 3.271.01 5.28 0 1.163-.015 2.184-.726 2.544-1.806l10.396-32.05zM448.366 310.458h-7.925l4.477-13.609 3.632.023-3.371 10.274h4.291l-1.104 3.312z"/><path d="M430.722 327.792h-3.603l10.826-33.455c.725-2.183 2.794-3.672 5.23-3.704 2.019-.011 3.115-.009 5.137 0 4.374.019 6.057 1.739 7.076 4.571.489 1.361.53 3.278.128 4.55-1.042 3.197-1.289 3.937-2.344 7.127-.691 2.053-2.553 3.427-4.807 3.61 0 0 3.032-9.152 3.978-12.142.571-1.866-.521-4.413-3.4-4.413-2.013-.023-3.272-.01-5.28 0-1.163.016-2.185.726-2.544 1.806l-10.397 32.05zM444.756 318.209h7.924l-4.476 13.609-3.632-.023 3.37-10.274h-4.29l1.104-3.312z"/><path d="M462.399 300.875h3.602l-10.824 33.455c-.725 2.183-2.793 3.672-5.23 3.704-2.019.011-3.115.009-5.136 0-4.375-.019-6.058-1.739-7.077-4.571-.489-1.361-.53-3.278-.128-4.55 1.042-3.197 1.289-3.937 2.344-7.127.691-2.053 2.553-3.427 4.807-3.61 0 0-3.032 9.152-3.978 12.142-.571 1.866.522 4.413 3.4 4.413 2.013.023 3.272.01 5.28 0 1.163-.016 2.185-.726 2.544-1.806l10.396-32.05zM259.584 523.017h-7.924l4.477-13.61 3.631.024-3.37 10.273h4.29l-1.104 3.313z"/><path d="M241.94 540.35h-3.602l10.826-33.455c.725-2.182 2.793-3.672 5.229-3.704 2.019-.011 3.116-.008 5.137 0 4.375.019 6.058 1.739 7.077 4.572.489 1.36.53 3.278.128 4.55-1.043 3.196-1.289 3.937-2.344 7.127-.691 2.053-2.554 3.426-4.808 3.609 0 0 3.033-9.152 3.979-12.142.571-1.866-.522-4.412-3.4-4.412-2.013-.024-3.272-.011-5.28 0-1.164.015-2.185.725-2.544 1.806L241.94 540.35zM255.974 530.767h7.925l-4.477 13.61-3.631-.024 3.37-10.273h-4.291l1.104-3.313z"/><path d="M273.617 513.434h3.602l-10.823 33.455c-.726 2.182-2.794 3.672-5.23 3.704-2.019.011-3.115.009-5.137 0-4.374-.019-6.057-1.739-7.076-4.572-.489-1.36-.531-3.278-.128-4.55 1.042-3.196 1.289-3.937 2.344-7.126.69-2.054 2.552-3.427 4.806-3.61 0 0-3.032 9.152-3.977 12.142-.571 1.866.521 4.412 3.4 4.412 2.013.024 3.271.011 5.28 0 1.163-.015 2.184-.725 2.544-1.806l10.395-32.049zM369.982 426.554h-7.925l4.477-13.61 3.632.024-3.371 10.273h4.291l-1.104 3.313z"/><path d="M352.338 443.887h-3.603l10.826-33.454c.725-2.183 2.793-3.672 5.23-3.705 2.019-.011 3.115-.008 5.137 0 4.374.02 6.057 1.739 7.076 4.572.489 1.36.53 3.278.128 4.55-1.042 3.196-1.289 3.937-2.344 7.127-.691 2.053-2.553 3.426-4.807 3.609 0 0 3.032-9.152 3.978-12.141.571-1.867-.521-4.413-3.4-4.413-2.013-.024-3.272-.011-5.28 0-1.163.015-2.185.726-2.544 1.806l-10.397 32.049zM366.371 434.304h7.925l-4.476 13.61-3.632-.024 3.37-10.273h-4.29l1.103-3.313z"/><path d="M384.015 416.971h3.602l-10.824 33.455c-.725 2.182-2.794 3.672-5.23 3.704-2.019.011-3.115.009-5.136 0-4.375-.019-6.058-1.739-7.077-4.572-.489-1.36-.53-3.278-.128-4.55 1.042-3.196 1.289-3.936 2.344-7.126.691-2.054 2.553-3.427 4.807-3.61 0 0-3.032 9.152-3.978 12.142-.571 1.866.521 4.412 3.4 4.412 2.013.024 3.272.011 5.28 0 1.163-.015 2.185-.725 2.544-1.806l10.396-32.049zM478.684 330.61h-7.925l4.477-13.609 3.632.023-3.371 10.274h4.291l-1.104 3.312z"/><path d="M461.039 347.944h-3.602l10.826-33.455c.725-2.183 2.793-3.672 5.23-3.704 2.019-.011 3.115-.009 5.137 0 4.374.019 6.057 1.739 7.076 4.571.489 1.361.53 3.278.128 4.55-1.042 3.197-1.289 3.937-2.344 7.127-.691 2.053-2.553 3.427-4.807 3.61 0 0 3.032-9.152 3.978-12.142.571-1.866-.521-4.412-3.4-4.412-2.013-.024-3.272-.011-5.28 0-1.163.015-2.185.725-2.544 1.805l-10.398 32.05zM475.073 338.36h7.925l-4.476 13.609-3.632-.023 3.37-10.274h-4.29l1.103-3.312z"/><path d="M492.717 321.027h3.602l-10.824 33.455c-.725 2.182-2.793 3.672-5.23 3.704-2.019.011-3.115.008-5.136 0-4.375-.02-6.058-1.739-7.077-4.572-.489-1.36-.53-3.278-.128-4.55 1.042-3.196 1.289-3.937 2.344-7.127.691-2.053 2.553-3.426 4.807-3.609 0 0-3.032 9.152-3.978 12.141-.571 1.867.522 4.413 3.4 4.413 2.013.024 3.272.011 5.28 0 1.163-.015 2.185-.725 2.544-1.806l10.396-32.049zM209.454 430.036h-7.925l4.477-13.609 3.632.023-3.371 10.274h4.291l-1.104 3.312z"/><path d="M191.81 447.37h-3.602l10.825-33.455c.725-2.183 2.794-3.672 5.23-3.705 2.019-.01 3.115-.008 5.137 0 4.375.02 6.058 1.74 7.076 4.572.489 1.36.531 3.278.128 4.55-1.042 3.197-1.289 3.937-2.344 7.127-.691 2.053-2.553 3.427-4.807 3.61 0 0 3.033-9.153 3.978-12.142.571-1.866-.521-4.413-3.4-4.413-2.013-.023-3.271-.01-5.28 0-1.163.015-2.185.726-2.544 1.806l-10.397 32.05zM205.844 437.787h7.924l-4.476 13.609-3.632-.023 3.371-10.274h-4.291l1.104-3.312z"/><path d="M223.487 420.453h3.602l-10.824 33.455c-.725 2.183-2.793 3.672-5.229 3.704-2.019.011-3.115.009-5.137 0-4.375-.019-6.058-1.739-7.076-4.571-.49-1.361-.531-3.278-.129-4.551 1.042-3.196 1.289-3.936 2.344-7.126.691-2.054 2.553-3.427 4.807-3.61 0 0-3.032 9.152-3.977 12.142-.572 1.866.521 4.412 3.399 4.412 2.013.024 3.272.011 5.28 0 1.164-.015 2.185-.725 2.544-1.805l10.396-32.05zM318.635 331.944h-7.925l4.477-13.61 3.632.024-3.371 10.273h4.291l-1.104 3.313z"/><path d="M300.991 349.277h-3.602l10.825-33.455c.725-2.182 2.794-3.672 5.23-3.704 2.019-.011 3.115-.008 5.137 0 4.375.019 6.058 1.739 7.076 4.572.49 1.36.531 3.278.129 4.55-1.043 3.196-1.29 3.937-2.345 7.127-.691 2.053-2.553 3.426-4.807 3.609 0 0 3.033-9.152 3.978-12.142.572-1.866-.521-4.412-3.399-4.412-2.014-.024-3.272-.011-5.281 0-1.163.015-2.184.725-2.544 1.806l-10.397 32.049zM315.025 339.694h7.924l-4.476 13.609-3.632-.023 3.371-10.274h-4.291l1.104-3.312z"/><path d="M332.668 322.36h3.602l-10.824 33.455c-.725 2.183-2.793 3.672-5.229 3.704-2.019.011-3.115.009-5.137 0-4.375-.019-6.058-1.739-7.076-4.571-.49-1.361-.531-3.278-.129-4.551 1.043-3.196 1.289-3.936 2.344-7.126.691-2.054 2.553-3.427 4.807-3.61 0 0-3.032 9.152-3.977 12.142-.572 1.866.521 4.412 3.399 4.412 2.014.024 3.272.011 5.281 0 1.163-.015 2.184-.725 2.543-1.805l10.396-32.05zM238.537 448.558h-7.925l4.477-13.61 3.632.024-3.371 10.274h4.291l-1.104 3.312z"/><path d="M220.893 465.892h-3.602l10.825-33.455c.725-2.183 2.794-3.672 5.23-3.705 2.019-.01 3.115-.008 5.137 0 4.375.02 6.058 1.74 7.076 4.572.489 1.36.531 3.278.128 4.55-1.042 3.197-1.289 3.937-2.344 7.127-.691 2.053-2.553 3.427-4.807 3.609 0 0 3.033-9.152 3.978-12.141.571-1.866-.521-4.413-3.4-4.413-2.013-.023-3.271-.01-5.28 0-1.163.015-2.185.726-2.544 1.806l-10.397 32.05zM234.927 456.309h7.924l-4.476 13.609-3.632-.023 3.371-10.274h-4.291l1.104-3.312z"/><path d="M252.57 438.975h3.602l-10.824 33.455c-.725 2.183-2.793 3.672-5.229 3.704-2.019.011-3.115.009-5.137 0-4.375-.019-6.058-1.739-7.076-4.571-.49-1.361-.531-3.278-.129-4.551 1.042-3.196 1.289-3.936 2.344-7.126.691-2.054 2.553-3.427 4.807-3.61 0 0-3.032 9.152-3.977 12.142-.572 1.866.521 4.412 3.399 4.412 2.013.024 3.272.011 5.28 0 1.164-.015 2.185-.725 2.544-1.805l10.396-32.05zM172.012 555.368h3.599l-10.796 33.455c-.723 2.182-2.789 3.672-5.223 3.704-2.018.011-3.114.009-5.134 0-4.372-.019-6.055-1.739-7.075-4.572-.49-1.36-.532-3.278-.131-4.55 1.04-3.196 1.286-3.937 2.338-7.126.689-2.054 2.549-3.427 4.802-3.61 0 0-3.025 9.152-3.968 12.142-.57 1.866.524 4.412 3.4 4.412 2.013.024 3.27.011 5.277 0 1.163-.015 2.183-.725 2.542-1.806l10.369-32.049zM347.313 353.503h-7.925l4.477-13.61 3.632.024-3.371 10.273h4.291l-1.104 3.313z"/><path d="M329.668 370.836h-3.602l10.826-33.455c.725-2.182 2.793-3.672 5.23-3.704 2.019-.011 3.115-.008 5.136 0 4.375.02 6.058 1.739 7.077 4.572.489 1.36.53 3.278.128 4.55-1.042 3.196-1.289 3.937-2.344 7.127-.691 2.053-2.553 3.426-4.807 3.609 0 0 3.032-9.152 3.978-12.141.571-1.867-.522-4.413-3.4-4.413-2.013-.024-3.272-.011-5.28 0-1.164.015-2.185.726-2.544 1.806l-10.398 32.049zM343.702 361.253h7.925l-4.476 13.61-3.632-.024 3.37-10.273h-4.29l1.103-3.313z"/><path d="M361.346 343.92h3.602l-10.824 33.455c-.725 2.182-2.794 3.672-5.23 3.704-2.019.011-3.115.009-5.137 0-4.374-.019-6.057-1.739-7.076-4.572-.489-1.36-.53-3.278-.128-4.55 1.042-3.196 1.289-3.936 2.344-7.126.69-2.054 2.553-3.427 4.807-3.61 0 0-3.033 9.152-3.978 12.142-.571 1.866.521 4.412 3.4 4.412 2.013.024 3.272.011 5.28 0 1.163-.015 2.185-.725 2.544-1.806l10.396-32.049zM267.215 470.118h-7.925l4.477-13.61 3.632.024-3.371 10.273h4.291l-1.104 3.313z"/><path d="M249.57 487.451h-3.602l10.826-33.455c.725-2.182 2.793-3.672 5.23-3.704 2.019-.011 3.115-.008 5.136 0 4.375.02 6.058 1.739 7.077 4.572.489 1.36.53 3.278.128 4.55-1.042 3.196-1.289 3.937-2.344 7.127-.691 2.053-2.553 3.426-4.807 3.609 0 0 3.032-9.152 3.978-12.141.571-1.867-.521-4.413-3.4-4.413-2.013-.024-3.272-.011-5.28 0-1.164.015-2.185.726-2.544 1.806l-10.398 32.049zM263.605 477.868h7.924l-4.476 13.61-3.632-.024 3.37-10.273h-4.29l1.104-3.313z"/><path d="M281.248 460.535h3.602l-10.824 33.455c-.725 2.182-2.794 3.672-5.23 3.704-2.019.011-3.115.009-5.137 0-4.374-.019-6.057-1.739-7.076-4.572-.489-1.36-.53-3.278-.128-4.55 1.042-3.196 1.289-3.936 2.344-7.126.69-2.054 2.553-3.427 4.807-3.61 0 0-3.033 9.152-3.978 12.142-.571 1.866.521 4.412 3.4 4.412 2.013.024 3.271.011 5.28 0 1.163-.015 2.185-.725 2.544-1.806l10.396-32.049zM186.785 585.844h-7.925l4.477-13.61 3.632.024-3.371 10.273h4.291l-1.104 3.313z"/><path d="M169.141 603.177h-3.603l10.826-33.455c.725-2.182 2.793-3.672 5.23-3.704 2.019-.011 3.115-.009 5.137 0 4.374.019 6.057 1.739 7.076 4.571.489 1.361.53 3.279.128 4.551-1.042 3.196-1.289 3.936-2.344 7.126-.691 2.054-2.553 3.427-4.807 3.61 0 0 3.032-9.152 3.978-12.142.571-1.866-.521-4.412-3.4-4.412-2.013-.024-3.272-.011-5.28 0-1.163.015-2.185.725-2.544 1.806l-10.397 32.049zM183.175 593.594h7.924l-4.476 13.61-3.632-.024 3.37-10.273h-4.29l1.104-3.313z"/><path d="M200.818 576.261h3.602l-10.824 33.454c-.725 2.183-2.793 3.672-5.23 3.705-2.019.01-3.115.008-5.136 0-4.375-.02-6.058-1.739-7.077-4.572-.489-1.36-.53-3.278-.128-4.55 1.042-3.196 1.289-3.937 2.344-7.127.691-2.053 2.553-3.426 4.807-3.609 0 0-3.032 9.152-3.978 12.141-.571 1.867.522 4.413 3.4 4.413 2.013.023 3.272.011 5.28 0 1.163-.015 2.185-.726 2.544-1.806l10.396-32.049zM376.101 374.322h-7.925l4.477-13.61 3.632.024-3.371 10.273h4.291l-1.104 3.313z"/><path d="M358.456 391.655h-3.602L365.68 358.2c.725-2.182 2.793-3.672 5.23-3.704 2.019-.011 3.115-.009 5.137 0 4.374.019 6.057 1.739 7.076 4.572.489 1.36.53 3.278.128 4.55-1.042 3.196-1.289 3.937-2.344 7.127-.691 2.053-2.553 3.426-4.807 3.609 0 0 3.032-9.152 3.978-12.142.571-1.866-.521-4.412-3.4-4.412-2.013-.024-3.272-.011-5.28 0-1.163.015-2.185.725-2.544 1.806l-10.398 32.049zM372.491 382.072h7.924l-4.476 13.61-3.632-.024 3.37-10.273h-4.29l1.104-3.313z"/><path d="M390.134 364.739h3.602l-10.824 33.455c-.725 2.182-2.793 3.672-5.23 3.704-2.019.011-3.115.009-5.136 0-4.375-.019-6.058-1.739-7.077-4.572-.489-1.36-.53-3.278-.128-4.55 1.042-3.196 1.289-3.937 2.344-7.127.691-2.053 2.553-3.426 4.807-3.609 0 0-3.032 9.152-3.978 12.142-.571 1.866.522 4.412 3.4 4.412 2.013.024 3.272.011 5.28 0 1.163-.015 2.185-.725 2.544-1.806l10.396-32.049zM467.157 295.712h-3.6l10.799-33.455c.723-2.183 2.79-3.672 5.224-3.705 2.018-.01 3.114-.008 5.134 0 4.372.02 6.055 1.74 7.075 4.572.49 1.36.532 3.278.131 4.55-1.04 3.197-1.286 3.937-2.338 7.127-.69 2.053-2.55 3.427-4.803 3.61 0 0 3.026-9.152 3.969-12.142.57-1.866-.524-4.413-3.4-4.413-2.013-.023-3.27-.01-5.278 0-1.162.015-2.183.726-2.541 1.806l-10.372 32.05zM481.174 286.129h7.924l-4.476 13.609-3.632-.023 3.371-10.274h-4.291l1.104-3.312z"/><path d="M498.817 268.795h3.602l-10.824 33.455c-.725 2.183-2.793 3.672-5.229 3.704-2.019.011-3.115.009-5.137 0-4.375-.019-6.058-1.739-7.076-4.571-.49-1.361-.531-3.278-.129-4.55 1.042-3.197 1.289-3.937 2.344-7.127.691-2.054 2.553-3.427 4.807-3.61 0 0-3.032 9.152-3.978 12.142-.571 1.866.522 4.412 3.4 4.412 2.013.024 3.272.011 5.28 0 1.164-.015 2.185-.725 2.544-1.805l10.396-32.05zM295.984 490.937h-7.924l4.477-13.61 3.631.024-3.37 10.273h4.29l-1.104 3.313z"/><path d="M278.34 508.27h-3.602l10.825-33.455c.726-2.182 2.794-3.672 5.23-3.704 2.019-.011 3.115-.009 5.137 0 4.375.019 6.058 1.739 7.077 4.572.489 1.36.53 3.278.128 4.55-1.043 3.196-1.289 3.937-2.345 7.127-.69 2.053-2.553 3.426-4.807 3.609 0 0 3.033-9.152 3.978-12.142.572-1.866-.521-4.412-3.399-4.412-2.013-.024-3.272-.011-5.281 0-1.163.015-2.184.725-2.543 1.806L278.34 508.27zM292.374 498.687h7.925l-4.477 13.61-3.631-.024 3.37-10.273h-4.291l1.104-3.313z"/><path d="M310.018 481.354h3.602l-10.824 33.455c-.725 2.182-2.794 3.672-5.23 3.704-2.019.011-3.115.009-5.137 0-4.374-.019-6.057-1.739-7.076-4.572-.489-1.36-.53-3.278-.128-4.55 1.042-3.196 1.289-3.937 2.344-7.127.69-2.053 2.553-3.426 4.807-3.609 0 0-3.033 9.152-3.978 12.142-.571 1.866.521 4.412 3.4 4.412 2.013.024 3.271.011 5.28 0 1.163-.015 2.184-.725 2.544-1.806l10.396-32.049zM406.4 394.474h-7.925l4.477-13.61 3.632.024-3.371 10.273h4.291l-1.104 3.313z"/><path d="M388.756 411.807h-3.602l10.825-33.455c.725-2.182 2.794-3.672 5.23-3.704 2.019-.011 3.115-.009 5.137 0 4.375.019 6.058 1.739 7.076 4.572.49 1.36.531 3.278.129 4.55-1.043 3.196-1.29 3.937-2.345 7.126-.691 2.054-2.553 3.427-4.807 3.61 0 0 3.033-9.152 3.978-12.142.572-1.866-.521-4.412-3.399-4.412-2.014-.024-3.272-.011-5.281 0-1.163.015-2.184.725-2.544 1.806l-10.397 32.049zM402.79 402.224h7.925l-4.477 13.61-3.631-.024 3.37-10.273h-4.291l1.104-3.313z"/><path d="M420.433 384.891h3.602l-10.824 33.455c-.725 2.182-2.793 3.672-5.229 3.704-2.019.011-3.115.008-5.137 0-4.375-.02-6.058-1.739-7.076-4.572-.49-1.36-.531-3.278-.129-4.55 1.043-3.196 1.289-3.937 2.344-7.127.691-2.053 2.553-3.426 4.807-3.609 0 0-3.032 9.152-3.977 12.142-.572 1.866.521 4.412 3.399 4.412 2.014.024 3.272.011 5.281 0 1.163-.015 2.184-.725 2.543-1.806l10.396-32.049zM515.102 298.53h-7.925l4.477-13.61 3.632.024-3.371 10.273h4.291l-1.104 3.313z"/><path d="M497.458 315.863h-3.602l10.825-33.455c.725-2.182 2.794-3.672 5.23-3.704 2.019-.011 3.115-.009 5.137 0 4.375.019 6.058 1.739 7.076 4.572.489 1.36.531 3.278.128 4.55-1.042 3.196-1.289 3.936-2.344 7.126-.691 2.054-2.553 3.427-4.807 3.61 0 0 3.033-9.152 3.978-12.142.571-1.866-.521-4.412-3.4-4.412-2.013-.024-3.271-.011-5.28 0-1.163.015-2.185.725-2.544 1.806l-10.397 32.049zM511.492 306.28h7.924l-4.476 13.61-3.632-.024 3.37-10.273h-4.29l1.104-3.313z"/><path d="M529.135 288.947h3.602l-10.824 33.454c-.725 2.183-2.793 3.672-5.23 3.705-2.019.011-3.115.008-5.136 0-4.375-.02-6.058-1.739-7.077-4.572-.489-1.36-.53-3.278-.128-4.55 1.042-3.196 1.289-3.937 2.344-7.127.691-2.053 2.553-3.426 4.807-3.609 0 0-3.032 9.152-3.978 12.141-.571 1.867.522 4.413 3.4 4.413 2.013.024 3.272.011 5.28 0 1.163-.015 2.185-.726 2.544-1.806l10.396-32.049zM246.093 395.511h-7.924l4.477-13.61 3.631.024-3.37 10.273h4.291l-1.105 3.313z"/><path d="M228.449 412.844h-3.602l10.826-33.454c.725-2.183 2.793-3.672 5.229-3.705 2.019-.01 3.116-.008 5.137 0 4.375.02 6.058 1.739 7.077 4.572.489 1.36.53 3.278.128 4.55-1.043 3.196-1.289 3.937-2.344 7.127-.691 2.053-2.554 3.426-4.808 3.609 0 0 3.033-9.152 3.979-12.141.571-1.867-.522-4.413-3.4-4.413-2.013-.024-3.272-.011-5.28 0-1.164.015-2.185.726-2.544 1.806l-10.398 32.049zM242.483 403.262h7.925l-4.477 13.609-3.631-.024 3.37-10.273h-4.291l1.104-3.312z"/><path d="M260.127 385.928h3.602l-10.824 33.455c-.725 2.182-2.794 3.672-5.23 3.704-2.019.011-3.115.009-5.137 0-4.374-.019-6.057-1.739-7.076-4.572-.489-1.36-.53-3.278-.128-4.55 1.042-3.196 1.289-3.936 2.344-7.126.69-2.054 2.553-3.427 4.807-3.61 0 0-3.033 9.152-3.978 12.142-.571 1.866.521 4.412 3.4 4.412 2.013.024 3.271.011 5.28 0 1.163-.015 2.184-.725 2.544-1.806l10.396-32.049zM354.795 299.567h-7.924l4.476-13.609 3.632.023-3.371 10.274h4.291l-1.104 3.312z"/><path d="M337.151 316.901h-3.602l10.825-33.455c.726-2.183 2.794-3.672 5.23-3.704 2.019-.011 3.115-.009 5.137 0 4.375.019 6.058 1.739 7.076 4.571.49 1.361.531 3.278.129 4.551-1.043 3.196-1.289 3.936-2.345 7.126-.69 2.054-2.553 3.427-4.807 3.61 0 0 3.033-9.152 3.978-12.142.572-1.866-.521-4.412-3.399-4.412-2.014-.024-3.272-.011-5.281 0-1.163.015-2.184.725-2.544 1.805l-10.397 32.05zM351.185 307.318h7.925l-4.477 13.609-3.631-.023 3.37-10.274h-4.291l1.104-3.312z"/><path d="M368.828 289.985h3.602l-10.823 33.454c-.726 2.183-2.794 3.672-5.23 3.705-2.019.01-3.115.008-5.137 0-4.374-.02-6.057-1.74-7.076-4.572-.489-1.36-.531-3.278-.128-4.55 1.042-3.197 1.289-3.937 2.344-7.127.69-2.053 2.552-3.427 4.806-3.609 0 0-3.032 9.152-3.977 12.141-.571 1.866.521 4.413 3.4 4.413 2.013.023 3.271.01 5.28 0 1.163-.015 2.184-.726 2.544-1.806l10.395-32.049zM148.369 529.46h-3.6l10.798-33.455c.724-2.183 2.79-3.672 5.225-3.705 2.018-.011 3.113-.008 5.134 0 4.372.02 6.055 1.739 7.074 4.572.49 1.36.533 3.278.131 4.55-1.039 3.196-1.286 3.937-2.338 7.127-.689 2.053-2.55 3.426-4.802 3.609 0 0 3.025-9.152 3.968-12.141.57-1.867-.523-4.413-3.4-4.413-2.012-.023-3.27-.011-5.277 0-1.163.015-2.183.726-2.542 1.806l-10.371 32.05zM179.993 502.543h3.6l-10.797 33.455c-.724 2.182-2.79 3.672-5.225 3.704-2.017.011-3.113.009-5.133 0-4.372-.019-6.055-1.739-7.075-4.572-.49-1.36-.532-3.278-.131-4.55 1.039-3.196 1.285-3.937 2.338-7.126.689-2.054 2.549-3.427 4.802-3.61 0 0-3.025 9.152-3.968 12.142-.57 1.866.524 4.412 3.4 4.412 2.012.024 3.27.011 5.277 0 1.163-.015 2.183-.725 2.542-1.806l10.37-32.049zM274.789 417.071h-7.924l4.477-13.61 3.631.024-3.37 10.273h4.29l-1.104 3.313z"/><path d="M257.145 434.404h-3.602l10.826-33.455c.725-2.182 2.793-3.672 5.229-3.704 2.019-.011 3.116-.009 5.137 0 4.375.019 6.058 1.739 7.077 4.572.489 1.36.53 3.278.128 4.55-1.043 3.196-1.289 3.936-2.344 7.126-.691 2.054-2.554 3.427-4.808 3.61 0 0 3.033-9.152 3.978-12.142.572-1.866-.521-4.412-3.399-4.412-2.013-.024-3.272-.011-5.281 0-1.163.015-2.184.725-2.543 1.806l-10.398 32.049zM271.179 424.821h7.925l-4.477 13.609-3.631-.023 3.37-10.274h-4.291l1.104-3.312z"/><path d="M288.822 407.488h3.603l-10.824 33.454c-.726 2.183-2.794 3.672-5.23 3.705-2.019.011-3.115.008-5.137 0-4.374-.02-6.057-1.739-7.076-4.572-.489-1.36-.531-3.278-.128-4.55 1.042-3.196 1.289-3.937 2.344-7.127.69-2.053 2.552-3.426 4.806-3.609 0 0-3.032 9.152-3.977 12.141-.571 1.867.521 4.413 3.4 4.413 2.013.024 3.271.011 5.28 0 1.163-.015 2.184-.726 2.544-1.806l10.395-32.049zM383.473 321.053h-7.925l4.477-13.61 3.632.024-3.371 10.273h4.291l-1.104 3.313z"/><path d="M365.829 338.386h-3.603l10.826-33.454c.725-2.183 2.794-3.672 5.23-3.705 2.019-.011 3.115-.008 5.137 0 4.375.02 6.058 1.739 7.076 4.572.489 1.36.531 3.278.128 4.55-1.042 3.196-1.289 3.937-2.344 7.127-.691 2.053-2.553 3.426-4.807 3.609 0 0 3.032-9.152 3.978-12.141.571-1.867-.521-4.413-3.4-4.413-2.013-.024-3.271-.011-5.28 0-1.163.015-2.185.726-2.544 1.806l-10.397 32.049zM379.863 328.803h7.924l-4.476 13.609-3.632-.023 3.371-10.274h-4.291l1.104-3.312z"/><path d="M397.506 311.469h3.602l-10.824 33.455c-.725 2.183-2.793 3.672-5.23 3.704-2.019.011-3.115.009-5.136 0-4.375-.019-6.058-1.739-7.077-4.571-.489-1.361-.53-3.278-.128-4.55 1.042-3.197 1.289-3.937 2.344-7.127.691-2.053 2.553-3.427 4.807-3.61 0 0-3.032 9.152-3.978 12.142-.571 1.866.522 4.413 3.4 4.413 2.013.023 3.272.01 5.28 0 1.163-.016 2.185-.726 2.544-1.806l10.396-32.05zM194.673 533.686h-7.925l4.477-13.61 3.632.024-3.371 10.273h4.291l-1.104 3.313z"/><path d="M177.029 551.019h-3.602l10.825-33.455c.725-2.182 2.794-3.672 5.23-3.704 2.019-.011 3.115-.009 5.137 0 4.375.019 6.058 1.739 7.076 4.572.489 1.36.531 3.278.128 4.55-1.042 3.196-1.289 3.937-2.344 7.126-.691 2.054-2.553 3.427-4.807 3.61 0 0 3.033-9.152 3.978-12.142.571-1.866-.521-4.412-3.4-4.412-2.013-.024-3.271-.011-5.28 0-1.163.015-2.185.725-2.544 1.806l-10.397 32.049zM191.063 541.436h7.924l-4.476 13.61-3.632-.024 3.371-10.273h-4.291l1.104-3.313z"/><path d="M208.706 524.103h3.602l-10.824 33.454c-.725 2.183-2.793 3.672-5.229 3.705-2.019.011-3.115.008-5.137 0-4.375-.02-6.058-1.739-7.076-4.572-.49-1.36-.531-3.278-.129-4.55 1.042-3.196 1.289-3.937 2.344-7.127.691-2.053 2.553-3.426 4.807-3.609 0 0-3.032 9.152-3.977 12.141-.572 1.867.521 4.413 3.399 4.413 2.013.024 3.272.011 5.28 0 1.164-.015 2.185-.726 2.544-1.806l10.396-32.049zM303.559 437.889h-7.925l4.477-13.609 3.632.023-3.371 10.274h4.291l-1.104 3.312z"/><path d="M285.915 455.223h-3.602l10.825-33.455c.725-2.183 2.794-3.672 5.23-3.704 2.019-.011 3.115-.009 5.137 0 4.375.019 6.058 1.739 7.076 4.571.49 1.361.531 3.278.129 4.551-1.043 3.196-1.29 3.936-2.345 7.126-.691 2.054-2.553 3.427-4.807 3.61 0 0 3.033-9.152 3.978-12.142.571-1.866-.521-4.412-3.399-4.412-2.014-.024-3.272-.011-5.281 0-1.163.015-2.184.725-2.544 1.805l-10.397 32.05zM299.949 445.64h7.924l-4.476 13.609-3.632-.023 3.371-10.274h-4.291l1.104-3.312z"/><path d="M317.592 428.307h3.602l-10.824 33.454c-.725 2.183-2.793 3.672-5.229 3.705-2.019.01-3.115.008-5.137 0-4.375-.02-6.058-1.74-7.076-4.572-.49-1.36-.531-3.278-.129-4.55 1.043-3.197 1.289-3.937 2.344-7.127.691-2.053 2.553-3.427 4.807-3.609 0 0-3.032 9.152-3.977 12.141-.572 1.866.521 4.413 3.399 4.413 2.014.023 3.272.01 5.281 0 1.163-.015 2.184-.726 2.543-1.806l10.396-32.049zM412.242 341.945h-7.924l4.477-13.61 3.631.024-3.37 10.274h4.29l-1.104 3.312z"/><path d="M394.598 359.278h-3.602l10.826-33.454c.725-2.183 2.793-3.672 5.229-3.705 2.02-.01 3.116-.008 5.137 0 4.375.02 6.058 1.739 7.077 4.572.489 1.36.53 3.278.128 4.55-1.042 3.197-1.289 3.937-2.344 7.127-.691 2.053-2.553 3.426-4.808 3.609 0 0 3.033-9.152 3.979-12.141.571-1.866-.522-4.413-3.4-4.413-2.013-.023-3.272-.011-5.28 0-1.164.015-2.185.726-2.544 1.806l-10.398 32.049zM408.633 349.696h7.924l-4.476 13.609-3.632-.023 3.37-10.274h-4.29l1.104-3.312z"/><path d="M426.276 332.362h3.602l-10.824 33.455c-.725 2.183-2.794 3.672-5.23 3.704-2.019.011-3.115.009-5.137 0-4.374-.019-6.057-1.739-7.076-4.571-.489-1.361-.53-3.279-.128-4.551 1.042-3.196 1.289-3.936 2.344-7.126.69-2.054 2.553-3.427 4.807-3.61 0 0-3.033 9.152-3.978 12.142-.571 1.866.521 4.412 3.4 4.412 2.013.024 3.271.011 5.28 0 1.163-.015 2.185-.725 2.544-1.806l10.396-32.049zM223.443 554.504h-7.925l4.477-13.609 3.632.023-3.371 10.274h4.291l-1.104 3.312z"/><path d="M205.798 571.838h-3.602l10.826-33.455c.725-2.183 2.793-3.672 5.23-3.704 2.019-.011 3.115-.009 5.136 0 4.375.019 6.058 1.739 7.077 4.571.489 1.361.53 3.278.128 4.551-1.042 3.196-1.289 3.936-2.344 7.126-.691 2.054-2.553 3.427-4.807 3.61 0 0 3.032-9.152 3.978-12.142.571-1.866-.521-4.412-3.4-4.412-2.013-.024-3.272-.011-5.28 0-1.164.015-2.185.725-2.544 1.805l-10.398 32.05zM219.833 562.255h7.924l-4.476 13.61-3.632-.024 3.37-10.274h-4.29l1.104-3.312z"/><path d="M237.476 544.922h3.602l-10.824 33.454c-.725 2.183-2.793 3.672-5.23 3.705-2.019.01-3.115.008-5.136 0-4.375-.02-6.058-1.74-7.077-4.572-.489-1.36-.53-3.278-.128-4.55 1.042-3.197 1.289-3.937 2.344-7.127.691-2.053 2.553-3.427 4.807-3.609 0 0-3.032 9.152-3.978 12.141-.571 1.866.522 4.413 3.4 4.413 2.013.023 3.272.01 5.28 0 1.163-.015 2.185-.726 2.544-1.806l10.396-32.049zM333.859 458.042h-7.925l4.477-13.61 3.631.024-3.37 10.273h4.291l-1.104 3.313z"/><path d="M316.214 475.375h-3.602l10.826-33.455c.725-2.182 2.793-3.672 5.229-3.704 2.019-.011 3.116-.009 5.137 0 4.375.019 6.058 1.739 7.077 4.571.489 1.361.53 3.279.128 4.551-1.043 3.196-1.289 3.936-2.344 7.126-.691 2.054-2.553 3.427-4.808 3.61 0 0 3.033-9.152 3.979-12.142.571-1.866-.522-4.412-3.4-4.412-2.013-.024-3.272-.011-5.28 0-1.164.015-2.185.725-2.544 1.806l-10.398 32.049zM330.248 465.792h7.925l-4.477 13.61-3.631-.024 3.37-10.273h-4.291l1.104-3.313z"/><path d="M347.891 448.459h3.602l-10.823 33.454c-.726 2.183-2.794 3.672-5.23 3.705-2.019.01-3.115.008-5.137 0-4.374-.02-6.057-1.739-7.076-4.572-.489-1.36-.531-3.278-.128-4.55 1.042-3.196 1.289-3.937 2.344-7.127.69-2.053 2.552-3.426 4.806-3.609 0 0-3.032 9.152-3.977 12.141-.571 1.867.521 4.413 3.399 4.413 2.014.023 3.272.011 5.281 0 1.163-.015 2.184-.726 2.544-1.806l10.395-32.049zM442.56 362.097h-7.924l4.476-13.609 3.632.023-3.371 10.274h4.291l-1.104 3.312z"/><path d="M424.916 379.431h-3.602l10.825-33.455c.726-2.183 2.794-3.672 5.23-3.705 2.019-.01 3.115-.008 5.137 0 4.375.02 6.058 1.74 7.076 4.572.49 1.36.531 3.278.129 4.55-1.043 3.197-1.289 3.937-2.345 7.127-.69 2.053-2.553 3.427-4.807 3.61 0 0 3.033-9.153 3.978-12.142.572-1.866-.521-4.413-3.399-4.413-2.014-.023-3.272-.01-5.281 0-1.163.015-2.184.726-2.544 1.806l-10.397 32.05zM438.95 369.848h7.925l-4.477 13.609-3.631-.023 3.37-10.274h-4.291l1.104-3.312z"/><path d="M456.593 352.514h3.602l-10.823 33.455c-.726 2.183-2.794 3.672-5.23 3.704-2.019.011-3.115.009-5.137 0-4.374-.019-6.057-1.739-7.076-4.571-.489-1.361-.531-3.278-.128-4.55 1.042-3.197 1.289-3.937 2.344-7.127.69-2.054 2.553-3.427 4.806-3.61 0 0-3.032 9.152-3.977 12.142-.571 1.866.521 4.412 3.4 4.412 2.013.024 3.271.011 5.28 0 1.163-.015 2.184-.725 2.544-1.805l10.395-32.05zM565.277 257.385h3.6l-10.796 33.455c-.723 2.182-2.789 3.672-5.224 3.704-2.018.011-3.113.009-5.134 0-4.372-.019-6.055-1.739-7.075-4.572-.489-1.36-.532-3.278-.131-4.55 1.04-3.196 1.286-3.937 2.338-7.127.689-2.053 2.549-3.426 4.802-3.609 0 0-3.025 9.152-3.968 12.142-.569 1.866.524 4.412 3.401 4.412 2.012.024 3.27.011 5.277 0 1.162-.015 2.183-.725 2.541-1.806l10.369-32.049zM147.023 302.676h-3.6l10.799-33.455c.723-2.183 2.789-3.672 5.224-3.705 2.018-.01 3.114-.008 5.134 0 4.372.02 6.055 1.739 7.075 4.572.49 1.36.532 3.278.131 4.55-1.04 3.197-1.286 3.937-2.339 7.127-.689 2.053-2.549 3.427-4.802 3.609 0 0 3.026-9.152 3.969-12.141.57-1.866-.524-4.413-3.401-4.413-2.012-.023-3.27-.011-5.277 0-1.162.015-2.183.726-2.541 1.806l-10.372 32.05zM178.647 275.759h3.6l-10.797 33.455c-.723 2.183-2.789 3.672-5.224 3.704-2.018.011-3.113.009-5.134 0-4.372-.019-6.055-1.739-7.075-4.571-.49-1.361-.532-3.279-.131-4.551 1.04-3.196 1.286-3.936 2.338-7.126.689-2.054 2.55-3.427 4.802-3.61 0 0-3.025 9.152-3.968 12.142-.569 1.866.524 4.412 3.401 4.412 2.012.024 3.27.011 5.277 0 1.162-.015 2.183-.725 2.541-1.806l10.37-32.049zM193.733 303.864h-7.925l4.477-13.609 3.632.023-3.371 10.274h4.291l-1.104 3.312z"/><path d="M176.089 321.198h-3.603l10.826-33.455c.725-2.183 2.794-3.672 5.23-3.704 2.019-.011 3.115-.009 5.137 0 4.375.019 6.058 1.739 7.076 4.571.489 1.361.531 3.278.128 4.55-1.042 3.197-1.289 3.937-2.344 7.127-.691 2.053-2.553 3.427-4.807 3.61 0 0 3.032-9.152 3.978-12.142.571-1.866-.521-4.413-3.4-4.413-2.013-.023-3.271-.01-5.28 0-1.163.016-2.185.726-2.544 1.806l-10.397 32.05zM190.123 311.615h7.924l-4.476 13.609-3.632-.023 3.371-10.274h-4.291l1.104-3.312z"/><path d="M207.766 294.281h3.602l-10.824 33.455c-.725 2.183-2.793 3.672-5.229 3.704-2.019.011-3.116.009-5.137 0-4.375-.019-6.058-1.739-7.076-4.571-.49-1.361-.531-3.278-.129-4.55 1.042-3.197 1.289-3.937 2.344-7.127.691-2.053 2.553-3.427 4.807-3.61 0 0-3.032 9.152-3.978 12.142-.571 1.866.522 4.413 3.4 4.413 2.013.023 3.272.01 5.28 0 1.164-.016 2.185-.726 2.544-1.806l10.396-32.05zM222.429 325.424h-7.925l4.477-13.61 3.632.024-3.371 10.273h4.291l-1.104 3.313z"/><path d="M204.785 342.757h-3.602l10.825-33.455c.725-2.182 2.794-3.672 5.23-3.704 2.019-.011 3.115-.009 5.137 0 4.375.019 6.058 1.739 7.076 4.572.489 1.36.531 3.278.128 4.55-1.042 3.196-1.289 3.937-2.344 7.127-.691 2.053-2.553 3.426-4.807 3.609 0 0 3.032-9.152 3.978-12.142.571-1.866-.521-4.412-3.4-4.412-2.013-.024-3.271-.011-5.28 0-1.163.015-2.185.725-2.544 1.806l-10.397 32.049zM218.819 333.174h7.924l-4.476 13.61-3.632-.024 3.371-10.273h-4.291l1.104-3.313z"/><path d="M236.462 315.841h3.602l-10.824 33.455c-.725 2.182-2.793 3.672-5.229 3.704-2.019.011-3.115.009-5.137 0-4.375-.019-6.058-1.739-7.076-4.572-.49-1.36-.531-3.278-.129-4.55 1.042-3.196 1.289-3.937 2.344-7.126.691-2.054 2.553-3.427 4.807-3.61 0 0-3.032 9.152-3.978 12.142-.571 1.866.522 4.412 3.4 4.412 2.013.024 3.272.011 5.28 0 1.164-.015 2.185-.725 2.544-1.806l10.396-32.049zM251.199 346.243h-7.925l4.477-13.61 3.632.024-3.371 10.273h4.291l-1.104 3.313z"/><path d="M233.554 363.576h-3.602l10.826-33.455c.725-2.182 2.793-3.672 5.23-3.704 2.019-.011 3.115-.009 5.136 0 4.375.019 6.058 1.739 7.077 4.572.489 1.36.53 3.278.128 4.55-1.042 3.196-1.289 3.937-2.344 7.126-.691 2.054-2.553 3.427-4.807 3.61 0 0 3.032-9.152 3.978-12.142.571-1.866-.522-4.412-3.4-4.412-2.013-.024-3.272-.011-5.28 0-1.164.015-2.185.725-2.544 1.806l-10.398 32.049zM247.588 353.993h7.925l-4.476 13.61-3.632-.024 3.37-10.273h-4.29l1.103-3.313z"/><path d="M265.232 336.66h3.602l-10.824 33.455c-.725 2.182-2.794 3.672-5.23 3.704-2.019.011-3.115.008-5.137 0-4.374-.019-6.057-1.739-7.076-4.572-.489-1.36-.53-3.278-.128-4.55 1.042-3.196 1.289-3.937 2.344-7.127.69-2.053 2.553-3.426 4.807-3.609 0 0-3.033 9.152-3.978 12.142-.571 1.866.521 4.412 3.4 4.412 2.013.024 3.272.011 5.28 0 1.163-.015 2.185-.725 2.544-1.806l10.396-32.049zM212.524 289.117h-3.6l10.799-33.454c.723-2.183 2.79-3.672 5.224-3.705 2.018-.011 3.114-.008 5.134 0 4.372.02 6.056 1.739 7.075 4.572.49 1.36.532 3.278.131 4.55-1.04 3.196-1.286 3.937-2.338 7.127-.69 2.053-2.55 3.426-4.802 3.609 0 0 3.025-9.152 3.968-12.141.57-1.867-.524-4.413-3.4-4.413-2.013-.024-3.27-.011-5.278 0-1.162.015-2.183.726-2.541 1.806l-10.372 32.049zM226.541 279.534h7.924l-4.476 13.61-3.631-.024 3.37-10.273h-4.291l1.104-3.313z"/><path d="M244.184 262.201h3.602l-10.824 33.455c-.725 2.182-2.793 3.672-5.229 3.704-2.019.011-3.115.009-5.137 0-4.374-.019-6.057-1.739-7.076-4.572-.489-1.36-.531-3.278-.129-4.55 1.043-3.196 1.289-3.936 2.344-7.126.691-2.054 2.553-3.427 4.807-3.61 0 0-3.032 9.152-3.977 12.142-.571 1.866.521 4.412 3.399 4.412 2.014.024 3.272.011 5.281 0 1.163-.015 2.184-.725 2.543-1.806l10.396-32.049zM258.847 293.27h-7.925l4.477-13.61 3.632.024-3.371 10.273h4.291l-1.104 3.313z"/><path d="M241.203 310.603h-3.602l10.825-33.455c.725-2.182 2.794-3.672 5.23-3.704 2.019-.011 3.115-.009 5.137 0 4.375.019 6.058 1.739 7.076 4.572.49 1.36.531 3.278.129 4.55-1.043 3.196-1.29 3.936-2.345 7.126-.691 2.054-2.553 3.427-4.807 3.61 0 0 3.033-9.152 3.978-12.142.572-1.866-.521-4.412-3.399-4.412-2.014-.024-3.272-.011-5.281 0-1.163.015-2.184.725-2.544 1.806l-10.397 32.049zM255.237 301.02h7.924l-4.476 13.61-3.632-.024 3.371-10.273h-4.291l1.104-3.313z"/><path d="M272.88 283.687h3.602l-10.824 33.454c-.725 2.183-2.793 3.672-5.229 3.705-2.019.011-3.115.008-5.137 0-4.375-.02-6.058-1.739-7.076-4.572-.49-1.36-.531-3.278-.129-4.55 1.043-3.196 1.289-3.937 2.344-7.127.691-2.053 2.553-3.426 4.807-3.609 0 0-3.032 9.152-3.977 12.141-.572 1.867.521 4.413 3.399 4.413 2.013.024 3.272.011 5.28 0 1.164-.015 2.185-.726 2.544-1.806l10.396-32.049zM178.417 408.995h-7.924l4.477-13.609 3.631.023-3.37 10.274h4.29l-1.104 3.312z"/><path d="M160.773 426.329h-3.602l10.825-33.455c.726-2.183 2.794-3.672 5.23-3.704 2.019-.011 3.115-.009 5.137 0 4.375.019 6.058 1.739 7.077 4.571.489 1.361.53 3.278.128 4.551-1.043 3.196-1.289 3.936-2.345 7.126-.69 2.054-2.553 3.427-4.807 3.61 0 0 3.033-9.152 3.978-12.142.572-1.866-.521-4.412-3.399-4.412-2.013-.024-3.272-.011-5.281 0-1.163.015-2.184.725-2.543 1.805l-10.398 32.05zM174.807 416.746h7.925l-4.477 13.609-3.631-.023 3.37-10.274h-4.291l1.104-3.312z"/><path d="M192.45 399.412h3.602l-10.823 33.455c-.726 2.183-2.794 3.672-5.23 3.705-2.019.01-3.115.008-5.137 0-4.374-.02-6.057-1.74-7.076-4.572-.489-1.36-.531-3.278-.128-4.55 1.042-3.197 1.288-3.937 2.344-7.127.69-2.053 2.552-3.427 4.806-3.61 0 0-3.032 9.153-3.977 12.142-.571 1.866.521 4.413 3.399 4.413 2.014.023 3.272.01 5.281 0 1.163-.015 2.184-.726 2.544-1.806l10.395-32.05zM287.617 314.162h-7.925l4.477-13.609 3.632.023-3.371 10.274h4.291l-1.104 3.312z"/><path d="M269.973 331.496h-3.603l10.826-33.455c.725-2.183 2.794-3.672 5.23-3.704 2.019-.011 3.115-.009 5.137 0 4.374.019 6.057 1.739 7.076 4.571.489 1.361.53 3.278.128 4.55-1.042 3.197-1.289 3.937-2.344 7.127-.691 2.054-2.553 3.427-4.807 3.61 0 0 3.032-9.152 3.978-12.142.571-1.866-.521-4.412-3.4-4.412-2.013-.024-3.272-.011-5.28 0-1.163.015-2.185.725-2.544 1.805l-10.397 32.05zM284.006 321.913h7.925l-4.476 13.609-3.632-.023 3.37-10.274h-4.29l1.103-3.312z"/><path d="M301.65 304.579h3.602l-10.824 33.455c-.725 2.183-2.793 3.672-5.23 3.705-2.019.01-3.115.008-5.136 0-4.375-.02-6.058-1.74-7.077-4.572-.489-1.36-.53-3.278-.128-4.55 1.042-3.197 1.289-3.937 2.344-7.127.691-2.053 2.553-3.427 4.807-3.61 0 0-3.032 9.153-3.978 12.142-.571 1.866.522 4.413 3.4 4.413 2.013.023 3.272.01 5.28 0 1.163-.015 2.185-.726 2.544-1.806l10.396-32.05zM171.625 325.769h3.599l-10.796 33.454c-.723 2.183-2.789 3.672-5.224 3.705-2.017.011-3.113.008-5.133 0-4.372-.02-6.055-1.739-7.075-4.572-.49-1.36-.532-3.278-.131-4.55 1.039-3.196 1.285-3.937 2.338-7.127.689-2.053 2.549-3.426 4.801-3.609 0 0-3.024 9.152-3.967 12.141-.57 1.867.524 4.413 3.4 4.413 2.012.024 3.27.011 5.277 0 1.163-.015 2.183-.726 2.541-1.806l10.37-32.049zM186.306 356.837h-7.925l4.477-13.609 3.631.023-3.37 10.274h4.291l-1.104 3.312z"/><path d="M168.661 374.171h-3.602l10.826-33.455c.725-2.183 2.793-3.672 5.229-3.705 2.02-.01 3.116-.008 5.137 0 4.375.02 6.058 1.74 7.077 4.572.489 1.36.53 3.278.128 4.55-1.042 3.197-1.289 3.937-2.344 7.127-.691 2.053-2.553 3.427-4.808 3.61 0 0 3.033-9.153 3.979-12.142.571-1.866-.522-4.413-3.4-4.413-2.013-.023-3.272-.01-5.28 0-1.164.015-2.185.726-2.544 1.806l-10.398 32.05zM182.695 364.588h7.925l-4.477 13.609-3.631-.023 3.37-10.274h-4.291l1.104-3.312z"/><path d="M200.339 347.254h3.602l-10.824 33.455c-.725 2.183-2.794 3.672-5.23 3.704-2.019.011-3.115.009-5.137 0-4.374-.019-6.057-1.739-7.076-4.571-.489-1.361-.53-3.278-.128-4.55 1.042-3.197 1.289-3.937 2.344-7.127.69-2.054 2.553-3.427 4.807-3.61 0 0-3.033 9.152-3.978 12.142-.571 1.866.521 4.412 3.4 4.412 2.013.024 3.271.011 5.28 0 1.163-.015 2.184-.725 2.544-1.805l10.396-32.05zM215.075 377.73h-7.925l4.477-13.609 3.632.023-3.371 10.274h4.291l-1.104 3.312z"/><path d="M197.431 395.064h-3.602l10.825-33.455c.726-2.183 2.794-3.672 5.23-3.704 2.019-.011 3.115-.009 5.137 0 4.375.019 6.058 1.739 7.076 4.571.49 1.361.531 3.278.129 4.55-1.043 3.197-1.29 3.937-2.345 7.127-.691 2.053-2.553 3.427-4.807 3.61 0 0 3.033-9.152 3.978-12.142.572-1.866-.521-4.413-3.399-4.413-2.014-.023-3.272-.01-5.281 0-1.163.015-2.184.726-2.544 1.806l-10.397 32.05zM211.465 385.481h7.924l-4.476 13.609-3.632-.023 3.371-10.274h-4.291l1.104-3.312z"/><path d="M229.108 368.147h3.602l-10.824 33.455c-.725 2.183-2.793 3.672-5.229 3.704-2.019.011-3.115.009-5.137 0-4.375-.019-6.058-1.739-7.076-4.571-.49-1.361-.531-3.278-.129-4.55 1.043-3.197 1.289-3.937 2.344-7.127.691-2.053 2.553-3.427 4.807-3.61 0 0-3.032 9.152-3.977 12.142-.572 1.866.521 4.413 3.399 4.413 2.014.023 3.272.01 5.281 0 1.163-.016 2.184-.726 2.543-1.806l10.396-32.05zM307.864 298.601h-3.6l10.799-33.455c.723-2.183 2.79-3.672 5.224-3.705 2.018-.01 3.114-.008 5.134 0 4.372.02 6.056 1.74 7.075 4.572.49 1.36.532 3.278.131 4.55-1.04 3.197-1.286 3.937-2.338 7.127-.69 2.053-2.55 3.427-4.803 3.61 0 0 3.026-9.153 3.969-12.142.57-1.866-.524-4.413-3.4-4.413-2.013-.023-3.27-.01-5.278 0-1.162.015-2.183.726-2.541 1.806l-10.372 32.05zM321.881 289.018h7.924l-4.476 13.609-3.631-.023 3.37-10.274h-4.291l1.104-3.312z"/><path d="M339.524 271.684h3.602l-10.824 33.455c-.725 2.183-2.793 3.672-5.229 3.704-2.019.011-3.115.009-5.137 0-4.375-.019-6.058-1.739-7.076-4.571-.49-1.361-.531-3.278-.129-4.551 1.043-3.196 1.289-3.936 2.344-7.126.691-2.054 2.553-3.427 4.807-3.61 0 0-3.032 9.152-3.977 12.142-.572 1.866.521 4.412 3.399 4.412 2.014.024 3.272.011 5.281 0 1.163-.015 2.184-.725 2.543-1.806l10.396-32.049zM31.55 222.065h-3.6l10.798-33.455c.724-2.183 2.79-3.672 5.225-3.704 2.017-.011 3.113-.009 5.133 0 4.373.019 6.056 1.739 7.075 4.571.49 1.361.533 3.279.131 4.551-1.04 3.196-1.286 3.936-2.338 7.126-.69 2.054-2.55 3.427-4.802 3.61 0 0 3.025-9.152 3.968-12.142.57-1.866-.524-4.412-3.4-4.412-2.012-.024-3.27-.011-5.278 0-1.162.015-2.182.725-2.54 1.806L31.55 222.065zM263.431 18.445h7.924l-4.476 13.61-3.631-.023 3.369-10.274h-4.29l1.104-3.313z"/><path d="M281.073 1.112h3.602l-10.822 33.455c-.725 2.182-2.794 3.672-5.23 3.704-2.018.011-3.115.009-5.136 0-4.375-.02-6.058-1.739-7.076-4.571-.49-1.36-.531-3.279-.129-4.55 1.042-3.197 1.289-3.937 2.344-7.127.69-2.054 2.552-3.427 4.806-3.61 0 0-3.031 9.152-3.977 12.142-.571 1.866.522 4.412 3.4 4.412 2.013.024 3.272.011 5.28 0 1.163-.015 2.184-.725 2.544-1.806l10.394-32.049zM187.035 128.198h-7.925l4.477-13.609 3.632.024-3.371 10.273h4.291l-1.104 3.312z"/><path d="M169.391 145.532h-3.602l10.825-33.455c.725-2.182 2.794-3.672 5.23-3.704 2.019-.011 3.115-.009 5.137 0 4.375.019 6.058 1.739 7.076 4.571.49 1.361.531 3.279.129 4.551-1.043 3.196-1.29 3.936-2.345 7.126-.691 2.054-2.553 3.427-4.807 3.61 0 0 3.033-9.152 3.978-12.142.572-1.866-.521-4.412-3.399-4.412-2.014-.024-3.272-.011-5.281 0-1.163.015-2.184.725-2.544 1.806l-10.397 32.049zM183.425 135.949h7.924l-4.476 13.61-3.632-.024 3.371-10.273h-4.291l1.104-3.313z"/><path d="M201.068 118.616h3.602l-10.824 33.454c-.725 2.183-2.793 3.672-5.229 3.705-2.019.01-3.115.008-5.137 0-4.375-.02-6.058-1.739-7.076-4.572-.49-1.36-.531-3.278-.129-4.55 1.043-3.196 1.289-3.937 2.344-7.127.691-2.053 2.553-3.426 4.807-3.609 0 0-3.032 9.152-3.977 12.141-.572 1.866.521 4.413 3.399 4.413 2.013.023 3.272.011 5.28 0 1.164-.015 2.185-.726 2.544-1.806l10.396-32.049zM106.937 244.813h-7.925l4.477-13.609 3.632.023-3.371 10.274h4.291l-1.104 3.312z"/><path d="M89.293 262.147H85.69l10.826-33.455c.725-2.183 2.794-3.672 5.23-3.704 2.019-.011 3.115-.009 5.137 0 4.374.019 6.058 1.739 7.076 4.571.489 1.361.531 3.278.128 4.55-1.042 3.197-1.289 3.937-2.344 7.127-.691 2.053-2.553 3.427-4.807 3.61 0 0 3.032-9.152 3.978-12.142.571-1.866-.521-4.413-3.4-4.413-2.013-.023-3.271-.01-5.28 0-1.163.015-2.185.726-2.544 1.806l-10.397 32.05zM103.327 252.564h7.924l-4.476 13.609-3.632-.023 3.37-10.274h-4.29l1.104-3.312z"/><path d="M120.97 235.23h3.602l-10.824 33.455c-.725 2.183-2.793 3.672-5.229 3.704-2.019.011-3.116.009-5.137 0-4.375-.019-6.058-1.739-7.077-4.571-.489-1.361-.53-3.278-.128-4.55 1.042-3.197 1.289-3.937 2.344-7.127.69-2.053 2.553-3.427 4.807-3.61 0 0-3.032 9.152-3.978 12.142-.57 1.866.522 4.413 3.4 4.413 2.013.023 3.272.01 5.28 0 1.163-.016 2.185-.726 2.544-1.806l10.396-32.05zM215.823 149.019h-7.925l4.477-13.61 3.632.024-3.371 10.273h4.291l-1.104 3.313z"/><path d="M198.179 166.352h-3.602l10.825-33.455c.725-2.182 2.794-3.672 5.23-3.704 2.019-.011 3.115-.009 5.137 0 4.375.019 6.058 1.739 7.076 4.572.489 1.36.531 3.278.128 4.55-1.042 3.196-1.289 3.936-2.344 7.126-.691 2.054-2.553 3.427-4.807 3.61 0 0 3.033-9.152 3.978-12.142.571-1.866-.521-4.412-3.399-4.412-2.014-.024-3.272-.011-5.281 0-1.163.015-2.185.725-2.544 1.806l-10.397 32.049zM212.213 156.769h7.924l-4.476 13.61-3.632-.024 3.371-10.273h-4.291l1.104-3.313z"/><path d="M229.856 139.436h3.602l-10.824 33.454c-.725 2.183-2.793 3.672-5.229 3.705-2.019.011-3.115.008-5.137 0-4.375-.02-6.058-1.739-7.076-4.572-.49-1.36-.531-3.278-.129-4.55 1.042-3.196 1.289-3.937 2.344-7.127.691-2.053 2.553-3.426 4.807-3.609 0 0-3.032 9.152-3.977 12.141-.572 1.867.521 4.413 3.399 4.413 2.013.024 3.272.011 5.28 0 1.164-.015 2.185-.726 2.544-1.806l10.396-32.049zM135.725 265.632H127.8l4.477-13.61 3.632.024-3.371 10.273h4.291l-1.104 3.313z"/><path d="M118.081 282.965h-3.602l10.825-33.454c.725-2.183 2.794-3.672 5.23-3.705 2.019-.01 3.115-.008 5.137 0 4.375.02 6.058 1.739 7.076 4.572.489 1.36.531 3.278.128 4.55-1.042 3.197-1.289 3.937-2.344 7.127-.691 2.053-2.553 3.426-4.807 3.609 0 0 3.033-9.152 3.978-12.141.571-1.866-.521-4.413-3.4-4.413-2.013-.023-3.271-.01-5.28 0-1.163.015-2.185.726-2.544 1.806l-10.397 32.049zM132.115 273.383h7.924l-4.476 13.609-3.632-.023 3.37-10.274h-4.29l1.104-3.312z"/><path d="M149.758 256.049h3.602l-10.824 33.455c-.725 2.183-2.793 3.672-5.229 3.704-2.019.011-3.116.009-5.137 0-4.375-.019-6.058-1.739-7.077-4.571-.489-1.361-.53-3.279-.128-4.551 1.042-3.196 1.289-3.936 2.344-7.126.691-2.054 2.553-3.427 4.807-3.61 0 0-3.032 9.152-3.978 12.142-.571 1.866.522 4.412 3.4 4.412 2.013.024 3.272.011 5.28 0 1.163-.015 2.185-.725 2.544-1.806l10.396-32.049zM246.122 169.169h-7.924l4.476-13.609 3.632.023-3.371 10.274h4.291l-1.104 3.312z"/><path d="M228.478 186.503h-3.602l10.826-33.455c.725-2.183 2.793-3.672 5.229-3.705 2.019-.01 3.116-.008 5.137 0 4.375.02 6.058 1.74 7.077 4.572.489 1.36.53 3.278.128 4.55-1.043 3.197-1.289 3.937-2.344 7.127-.691 2.053-2.554 3.427-4.808 3.61 0 0 3.033-9.153 3.978-12.142.572-1.866-.521-4.413-3.399-4.413-2.013-.023-3.272-.01-5.281 0-1.163.015-2.184.726-2.543 1.806l-10.398 32.05zM242.512 176.92h7.925l-4.477 13.609-3.631-.023 3.37-10.274h-4.291l1.104-3.312z"/><path d="M260.155 159.586h3.602l-10.824 33.455c-.725 2.183-2.793 3.672-5.229 3.704-2.019.011-3.115.009-5.137 0-4.374-.019-6.057-1.739-7.076-4.571-.489-1.361-.531-3.278-.129-4.55 1.043-3.197 1.289-3.937 2.344-7.127.691-2.053 2.553-3.427 4.807-3.61 0 0-3.032 9.152-3.977 12.142-.571 1.866.521 4.412 3.399 4.412 2.014.024 3.272.011 5.281 0 1.163-.015 2.184-.725 2.543-1.805l10.396-32.05zM354.824 73.226h-7.925l4.477-13.61 3.632.024-3.371 10.273h4.291l-1.104 3.313z"/><path d="M337.18 90.559h-3.602l10.825-33.455c.726-2.182 2.794-3.672 5.23-3.704 2.019-.01 3.115-.009 5.137 0 4.375.02 6.058 1.739 7.076 4.572.49 1.36.531 3.278.129 4.55-1.043 3.196-1.289 3.937-2.345 7.126-.69 2.054-2.553 3.427-4.807 3.61 0 0 3.033-9.152 3.978-12.142.572-1.866-.521-4.412-3.399-4.412-2.014-.024-3.272-.011-5.281 0-1.163.015-2.184.725-2.544 1.806L337.18 90.559zM351.214 80.975h7.925l-4.477 13.61-3.631-.024 3.37-10.273h-4.291l1.104-3.313z"/><path d="M368.857 63.642h3.602l-10.824 33.455c-.725 2.182-2.793 3.672-5.229 3.704-2.019.011-3.115.009-5.137 0-4.374-.019-6.057-1.74-7.076-4.572-.489-1.36-.531-3.278-.129-4.55 1.043-3.196 1.289-3.937 2.344-7.126.691-2.054 2.553-3.427 4.807-3.61 0 0-3.032 9.152-3.977 12.142-.571 1.866.521 4.412 3.399 4.412 2.014.024 3.272.01 5.281 0 1.163-.015 2.184-.725 2.543-1.806l10.396-32.049zM194.776 74.56h-7.925l4.477-13.61 3.632.023-3.371 10.273h4.291l-1.104 3.313z"/><path d="M177.131 91.892h-3.602l10.826-33.454c.725-2.183 2.793-3.672 5.23-3.705 2.019-.01 3.115-.008 5.137 0 4.374.02 6.057 1.74 7.076 4.572.489 1.36.53 3.278.128 4.55-1.042 3.197-1.289 3.937-2.344 7.127-.691 2.053-2.553 3.427-4.807 3.61 0 0 3.032-9.153 3.978-12.142.571-1.866-.521-4.413-3.4-4.413-2.013-.023-3.272-.01-5.28 0-1.163.015-2.185.726-2.544 1.806l-10.398 32.05zM191.166 82.309h7.924l-4.476 13.61-3.632-.024 3.37-10.274h-4.29l1.104-3.312z"/><path d="M208.809 64.975h3.602L201.587 98.43c-.725 2.183-2.793 3.672-5.23 3.705-2.019.01-3.115.008-5.136 0-4.375-.02-6.058-1.74-7.077-4.572-.489-1.36-.53-3.278-.128-4.55 1.042-3.197 1.289-3.937 2.344-7.127.691-2.053 2.553-3.427 4.807-3.61 0 0-3.032 9.153-3.978 12.142-.571 1.866.522 4.413 3.4 4.413 2.013.023 3.272.01 5.28 0 1.163-.015 2.185-.726 2.544-1.806l10.396-32.05zM114.678 191.173h-7.925l4.477-13.609 3.632.023-3.371 10.274h4.291l-1.104 3.312z"/><path d="M97.033 208.507h-3.602l10.826-33.455c.725-2.183 2.793-3.672 5.229-3.704 2.02-.011 3.116-.009 5.137 0 4.375.019 6.058 1.739 7.077 4.571.489 1.361.53 3.278.128 4.55-1.042 3.197-1.289 3.937-2.344 7.127-.691 2.054-2.553 3.427-4.807 3.61 0 0 3.032-9.152 3.978-12.142.571-1.866-.522-4.412-3.4-4.412-2.013-.024-3.272-.011-5.28 0-1.164.015-2.185.725-2.544 1.805l-10.398 32.05zM111.067 198.924h7.925l-4.476 13.609-3.632-.023 3.37-10.274h-4.29l1.103-3.312z"/><path d="M128.711 181.59h3.602l-10.824 33.455c-.725 2.183-2.794 3.672-5.23 3.705-2.019.01-3.115.008-5.137 0-4.374-.02-6.057-1.74-7.076-4.572-.489-1.36-.53-3.278-.128-4.55 1.042-3.197 1.289-3.937 2.344-7.127.691-2.053 2.553-3.427 4.807-3.61 0 0-3.032 9.153-3.978 12.142-.571 1.866.521 4.413 3.4 4.413 2.013.023 3.272.01 5.28 0 1.163-.015 2.185-.726 2.544-1.806l10.396-32.05zM48.152 297.983h3.6l-10.796 33.455c-.723 2.183-2.79 3.672-5.224 3.704-2.018.011-3.113.009-5.133 0-4.372-.019-6.055-1.739-7.075-4.571-.49-1.361-.533-3.278-.132-4.551 1.04-3.196 1.286-3.936 2.338-7.126.69-2.054 2.55-3.427 4.802-3.61 0 0-3.024 9.152-3.967 12.142-.57 1.866.523 4.412 3.4 4.412 2.012.024 3.27.011 5.277 0 1.163-.015 2.183-.725 2.541-1.805l10.37-32.05zM223.453 96.118h-7.924l4.476-13.61 3.632.024-3.371 10.274h4.291l-1.104 3.312z"/><path d="M205.809 113.452h-3.602l10.825-33.455c.726-2.183 2.794-3.672 5.23-3.705 2.019-.01 3.115-.008 5.137 0 4.375.02 6.058 1.74 7.076 4.572.49 1.36.531 3.278.129 4.55-1.043 3.197-1.289 3.937-2.345 7.127-.69 2.053-2.553 3.427-4.807 3.61 0 0 3.033-9.152 3.978-12.142.572-1.866-.521-4.413-3.399-4.413-2.014-.023-3.272-.01-5.281 0-1.163.015-2.184.726-2.544 1.806l-10.397 32.05zM219.843 103.869h7.925l-4.477 13.609-3.631-.023 3.37-10.274h-4.291l1.104-3.312z"/><path d="M237.486 86.535h3.602l-10.823 33.455c-.726 2.183-2.794 3.672-5.23 3.704-2.019.011-3.115.009-5.137 0-4.374-.019-6.057-1.739-7.076-4.571-.489-1.361-.531-3.278-.128-4.55 1.042-3.197 1.288-3.937 2.344-7.127.69-2.054 2.552-3.427 4.806-3.61 0 0-3.032 9.152-3.977 12.142-.571 1.866.521 4.412 3.399 4.412 2.014.024 3.272.011 5.281 0 1.163-.015 2.184-.725 2.544-1.805l10.395-32.05zM143.355 212.733h-7.924l4.476-13.609 3.632.023-3.371 10.274h4.291l-1.104 3.312z"/><path d="M125.711 230.067h-3.602l10.825-33.455c.726-2.183 2.794-3.672 5.23-3.705 2.019-.01 3.115-.008 5.137 0 4.375.02 6.058 1.74 7.076 4.572.49 1.36.531 3.278.129 4.55-1.043 3.197-1.289 3.937-2.345 7.127-.69 2.053-2.553 3.427-4.807 3.61 0 0 3.033-9.153 3.978-12.142.572-1.866-.521-4.413-3.399-4.413-2.014-.023-3.272-.01-5.281 0-1.163.015-2.184.726-2.544 1.806l-10.397 32.05zM139.745 220.484h7.925l-4.477 13.609-3.631-.023 3.37-10.274h-4.291l1.104-3.312z"/><path d="M157.388 203.15h3.602l-10.824 33.455c-.725 2.183-2.793 3.672-5.229 3.704-2.019.011-3.115.009-5.137 0-4.375-.019-6.058-1.739-7.076-4.571-.49-1.361-.531-3.278-.129-4.55 1.043-3.197 1.289-3.937 2.344-7.127.691-2.054 2.553-3.427 4.807-3.61 0 0-3.032 9.152-3.977 12.142-.572 1.866.521 4.412 3.399 4.412 2.014.024 3.272.011 5.281 0 1.163-.015 2.184-.725 2.543-1.805l10.396-32.05zM62.925 328.459h-7.924l4.477-13.61 3.631.024-3.37 10.273h4.29l-1.104 3.313z"/><path d="M45.281 345.792H41.68l10.825-33.454c.726-2.183 2.794-3.672 5.23-3.705 2.02-.01 3.115-.008 5.137 0 4.375.02 6.058 1.739 7.077 4.572.489 1.36.53 3.278.128 4.55-1.043 3.196-1.29 3.937-2.344 7.127-.691 2.053-2.554 3.426-4.808 3.609 0 0 3.033-9.152 3.978-12.141.572-1.867-.52-4.413-3.4-4.413-2.012-.023-3.271-.011-5.28 0-1.163.015-2.184.726-2.543 1.806L45.28 345.792zM59.315 336.209h7.925l-4.477 13.61-3.631-.024 3.37-10.273h-4.29l1.103-3.313z"/><path d="M76.959 318.876h3.602l-10.824 33.455c-.725 2.182-2.794 3.672-5.23 3.704-2.019.011-3.115.009-5.137 0-4.374-.019-6.057-1.739-7.076-4.572-.49-1.36-.53-3.278-.128-4.55 1.042-3.196 1.289-3.936 2.344-7.126.69-2.054 2.553-3.427 4.806-3.61 0 0-3.032 9.152-3.977 12.142-.571 1.866.521 4.412 3.4 4.412 2.013.024 3.271.011 5.28 0 1.163-.015 2.184-.725 2.544-1.806l10.395-32.049zM252.241 116.937h-7.924l4.476-13.61 3.632.024-3.371 10.273h4.291l-1.104 3.313z"/><path d="M234.597 134.27h-3.602l10.825-33.454c.726-2.183 2.794-3.672 5.23-3.705 2.019-.01 3.115-.008 5.137 0 4.375.02 6.058 1.74 7.077 4.572.489 1.36.53 3.278.128 4.55-1.043 3.196-1.289 3.937-2.345 7.127-.69 2.053-2.553 3.426-4.807 3.609 0 0 3.033-9.152 3.978-12.141.572-1.867-.521-4.413-3.399-4.413-2.013-.023-3.272-.011-5.281 0-1.163.015-2.184.726-2.543 1.806l-10.398 32.049zM248.631 124.687h7.925l-4.477 13.61-3.631-.024 3.37-10.273h-4.291l1.104-3.313z"/><path d="M266.274 107.354h3.602l-10.823 33.455c-.726 2.182-2.794 3.672-5.23 3.704-2.019.011-3.115.009-5.137 0-4.374-.019-6.057-1.739-7.076-4.571-.489-1.361-.531-3.279-.129-4.551 1.043-3.196 1.289-3.936 2.345-7.126.69-2.054 2.552-3.427 4.806-3.61 0 0-3.032 9.152-3.977 12.142-.571 1.866.521 4.412 3.399 4.412 2.014.024 3.272.011 5.281 0 1.163-.015 2.184-.725 2.543-1.806l10.396-32.049zM343.298 38.327h-3.6l10.799-33.455c.723-2.183 2.789-3.672 5.224-3.704a453.59 453.59 0 015.134 0c4.372.02 6.055 1.739 7.075 4.571.49 1.36.532 3.279.131 4.55-1.04 3.197-1.286 3.937-2.339 7.127-.689 2.054-2.549 3.427-4.802 3.61 0 0 3.025-9.152 3.968-12.142.57-1.866-.523-4.412-3.4-4.412-2.012-.024-3.27-.011-5.277 0-1.163.015-2.183.725-2.541 1.806l-10.372 32.049zM357.314 28.744h7.925l-4.476 13.61-3.632-.024 3.37-10.274h-4.29l1.103-3.312z"/><path d="M374.958 11.41h3.602l-10.824 33.455c-.725 2.183-2.794 3.672-5.23 3.705-2.019.01-3.115.008-5.137 0-4.374-.02-6.057-1.74-7.076-4.572-.489-1.36-.53-3.278-.128-4.55 1.042-3.197 1.289-3.937 2.344-7.127.69-2.053 2.553-3.426 4.807-3.61 0 0-3.033 9.153-3.978 12.142-.571 1.866.521 4.413 3.4 4.413 2.013.023 3.271.01 5.28 0 1.163-.015 2.184-.726 2.544-1.806l10.396-32.05zM172.125 233.552H164.2l4.477-13.61 3.632.024-3.371 10.273h4.291l-1.104 3.313z"/><path d="M154.481 250.885h-3.602l10.825-33.455c.725-2.182 2.794-3.672 5.23-3.704 2.019-.011 3.115-.009 5.137 0 4.375.019 6.058 1.739 7.076 4.572.489 1.36.531 3.278.128 4.55-1.042 3.196-1.289 3.937-2.344 7.127-.691 2.053-2.553 3.426-4.807 3.609 0 0 3.033-9.152 3.978-12.142.571-1.866-.521-4.412-3.399-4.412-2.014-.024-3.272-.011-5.281 0-1.163.015-2.185.725-2.544 1.806l-10.397 32.049zM168.515 241.302h7.924l-4.476 13.61-3.632-.024 3.371-10.273h-4.291l1.104-3.313z"/><path d="M186.158 223.969h3.602l-10.824 33.455c-.725 2.182-2.793 3.672-5.229 3.704-2.019.011-3.115.009-5.137 0-4.375-.019-6.058-1.739-7.076-4.572-.49-1.36-.531-3.278-.129-4.55 1.043-3.196 1.289-3.937 2.344-7.127.691-2.053 2.553-3.426 4.807-3.609 0 0-3.032 9.152-3.977 12.142-.572 1.866.521 4.412 3.399 4.412 2.013.024 3.272.011 5.28 0 1.164-.015 2.185-.725 2.544-1.806l10.396-32.049zM282.541 137.089h-7.925l4.477-13.61 3.632.024-3.371 10.273h4.291l-1.104 3.313z"/><path d="M264.896 154.422h-3.602l10.826-33.455c.725-2.182 2.793-3.672 5.23-3.704 2.019-.011 3.115-.008 5.137 0 4.374.02 6.057 1.739 7.076 4.572.489 1.36.53 3.278.128 4.55-1.042 3.196-1.289 3.937-2.344 7.127-.691 2.053-2.553 3.426-4.807 3.609 0 0 3.032-9.152 3.978-12.142.571-1.866-.521-4.412-3.4-4.412-2.013-.024-3.272-.011-5.28 0-1.163.015-2.185.725-2.544 1.806l-10.398 32.049zM278.931 144.839h7.924l-4.476 13.61-3.632-.024 3.371-10.273h-4.291l1.104-3.313z"/><path d="M296.574 127.506h3.602l-10.824 33.455c-.725 2.182-2.793 3.672-5.23 3.704-2.019.011-3.115.009-5.136 0-4.375-.019-6.058-1.739-7.077-4.572-.489-1.36-.53-3.278-.128-4.55 1.042-3.196 1.289-3.937 2.344-7.126.691-2.054 2.553-3.427 4.807-3.61 0 0-3.032 9.152-3.978 12.142-.571 1.866.522 4.412 3.4 4.412 2.013.024 3.272.011 5.28 0 1.163-.015 2.185-.725 2.544-1.806l10.396-32.049zM391.242 41.145h-7.924l4.477-13.61 3.631.024-3.37 10.273h4.29l-1.104 3.313z"/><path d="M373.598 58.478h-3.602l10.826-33.455c.725-2.182 2.793-3.672 5.229-3.704 2.02-.011 3.116-.009 5.137 0 4.375.02 6.058 1.739 7.077 4.572.489 1.36.53 3.278.128 4.55-1.042 3.196-1.289 3.936-2.344 7.126-.691 2.054-2.553 3.427-4.807 3.61 0 0 3.032-9.152 3.978-12.142.571-1.866-.522-4.412-3.4-4.412-2.013-.024-3.272-.011-5.28 0-1.164.015-2.185.725-2.544 1.806l-10.398 32.049zM387.632 48.895h7.925l-4.477 13.61-3.631-.024 3.37-10.273h-4.291l1.104-3.313z"/><path d="M405.275 31.562h3.603l-10.824 33.454c-.726 2.183-2.794 3.672-5.23 3.705-2.019.01-3.115.008-5.137 0-4.374-.02-6.057-1.74-7.076-4.572-.489-1.36-.531-3.278-.128-4.55 1.042-3.196 1.289-3.937 2.344-7.127.69-2.053 2.553-3.426 4.806-3.61 0 0-3.032 9.153-3.977 12.142-.571 1.867.521 4.413 3.4 4.413 2.013.023 3.271.01 5.28 0 1.163-.015 2.184-.726 2.544-1.806l10.395-32.05zM122.234 138.126h-7.925l4.477-13.609 3.632.023-3.371 10.274h4.291l-1.104 3.312z"/><path d="M104.59 155.46h-3.602l10.825-33.455c.725-2.183 2.794-3.672 5.23-3.705 2.019-.01 3.115-.008 5.137 0 4.375.02 6.058 1.74 7.076 4.572.49 1.361.531 3.278.129 4.55-1.043 3.197-1.29 3.937-2.345 7.127-.691 2.053-2.553 3.427-4.807 3.61 0 0 3.033-9.152 3.978-12.142.572-1.866-.521-4.413-3.399-4.413-2.014-.023-3.272-.01-5.281 0-1.163.015-2.184.726-2.544 1.806l-10.397 32.05zM118.624 145.877h7.924l-4.476 13.609-3.632-.023 3.371-10.274h-4.291l1.104-3.312z"/><path d="M136.267 128.543h3.602l-10.824 33.455c-.725 2.183-2.793 3.672-5.229 3.704-2.019.011-3.115.009-5.137 0-4.375-.019-6.058-1.739-7.076-4.571-.49-1.361-.531-3.278-.129-4.55 1.043-3.197 1.289-3.937 2.344-7.127.691-2.053 2.553-3.427 4.807-3.61 0 0-3.032 9.152-3.977 12.142-.572 1.866.521 4.413 3.399 4.413 2.014.023 3.272.01 5.281 0 1.163-.016 2.184-.726 2.543-1.806l10.396-32.05zM24.51 272.075h-3.6l10.798-33.455c.723-2.183 2.79-3.672 5.224-3.705 2.018-.01 3.114-.008 5.134 0 4.372.02 6.055 1.74 7.075 4.572.49 1.361.532 3.278.131 4.55-1.04 3.197-1.286 3.937-2.338 7.127-.69 2.053-2.55 3.427-4.803 3.61 0 0 3.026-9.152 3.969-12.142.57-1.866-.524-4.413-3.4-4.413-2.013-.023-3.27-.01-5.278 0-1.162.015-2.183.726-2.541 1.806l-10.372 32.05zM56.133 245.158h3.6l-10.797 33.455c-.723 2.183-2.79 3.672-5.224 3.704-2.018.011-3.113.009-5.134 0-4.372-.019-6.055-1.739-7.075-4.571-.49-1.361-.532-3.278-.13-4.55 1.039-3.197 1.285-3.937 2.338-7.127.689-2.054 2.549-3.427 4.801-3.61 0 0-3.025 9.152-3.968 12.142-.57 1.866.524 4.412 3.4 4.412 2.013.024 3.27.011 5.278 0 1.163-.015 2.183-.725 2.541-1.805l10.37-32.05zM147.32 167.436h7.924l-4.476 13.61-3.632-.024 3.371-10.273h-4.291l1.104-3.313z"/><path d="M164.963 150.103h3.602l-10.824 33.455c-.725 2.183-2.793 3.672-5.229 3.704-2.019.011-3.115.009-5.137 0-4.375-.019-6.058-1.739-7.076-4.571-.49-1.361-.531-3.279-.129-4.551 1.043-3.196 1.289-3.936 2.344-7.126.691-2.054 2.553-3.427 4.807-3.61 0 0-3.032 9.152-3.977 12.142-.572 1.866.521 4.412 3.399 4.412 2.013.024 3.272.011 5.28 0 1.164-.015 2.185-.725 2.544-1.806l10.396-32.049zM259.613 63.668h-7.924l4.476-13.61 3.632.024-3.371 10.274h4.291l-1.104 3.312z"/><path d="M241.969 81.002h-3.602l10.826-33.455c.725-2.183 2.793-3.672 5.229-3.704 2.019-.011 3.116-.01 5.137 0 4.375.019 6.058 1.739 7.077 4.571.489 1.36.53 3.278.128 4.55-1.043 3.197-1.289 3.937-2.344 7.127-.691 2.053-2.554 3.427-4.808 3.61 0 0 3.033-9.153 3.978-12.142.572-1.866-.521-4.413-3.399-4.413-2.013-.023-3.272-.01-5.281 0-1.163.015-2.184.726-2.543 1.806l-10.398 32.05zM256.003 71.418h7.925l-4.477 13.61-3.631-.024 3.37-10.273h-4.291l1.104-3.313z"/><path d="M273.646 54.085h3.602l-10.824 33.454c-.725 2.183-2.793 3.672-5.229 3.705-2.019.01-3.115.008-5.137 0-4.374-.02-6.057-1.74-7.076-4.572-.489-1.36-.531-3.278-.129-4.55 1.043-3.197 1.289-3.937 2.344-7.127.691-2.053 2.553-3.426 4.807-3.61 0 0-3.032 9.153-3.977 12.142-.571 1.867.521 4.413 3.399 4.413 2.014.023 3.272.01 5.281 0 1.163-.015 2.184-.726 2.543-1.806l10.396-32.05zM70.814 276.301h-7.925l4.477-13.61 3.632.024-3.371 10.273h4.29l-1.103 3.313z"/><path d="M53.17 293.634h-3.603l10.826-33.455c.725-2.182 2.793-3.672 5.23-3.704 2.019-.011 3.115-.009 5.136 0 4.375.019 6.058 1.739 7.077 4.572.49 1.36.53 3.278.128 4.55-1.043 3.196-1.29 3.937-2.344 7.127-.691 2.053-2.553 3.426-4.808 3.609 0 0 3.033-9.152 3.979-12.142.571-1.866-.522-4.412-3.4-4.412-2.013-.024-3.272-.011-5.28 0-1.164.015-2.185.725-2.544 1.806l-10.398 32.049zM67.203 284.051h7.925l-4.477 13.61-3.631-.024 3.37-10.273H66.1l1.103-3.313z"/><path d="M84.847 266.718h3.602l-10.824 33.455c-.725 2.182-2.794 3.672-5.23 3.704-2.019.011-3.115.009-5.136 0-4.375-.019-6.058-1.739-7.077-4.572-.49-1.36-.53-3.278-.128-4.55 1.042-3.196 1.289-3.937 2.344-7.127.69-2.053 2.553-3.426 4.807-3.609 0 0-3.032 9.152-3.978 12.142-.571 1.866.521 4.412 3.4 4.412 2.013.024 3.272.011 5.28 0 1.163-.015 2.184-.725 2.544-1.806l10.396-32.049zM179.7 180.505h-7.925l4.477-13.61 3.632.024-3.371 10.273h4.291l-1.104 3.313z"/><path d="M162.055 197.838h-3.602l10.826-33.455c.725-2.182 2.793-3.672 5.23-3.704 2.019-.011 3.115-.009 5.137 0 4.374.019 6.057 1.739 7.076 4.572.489 1.36.53 3.278.128 4.55-1.042 3.196-1.289 3.937-2.344 7.126-.691 2.054-2.553 3.427-4.807 3.61 0 0 3.032-9.152 3.978-12.142.571-1.866-.521-4.412-3.4-4.412-2.013-.024-3.272-.011-5.28 0-1.163.015-2.185.725-2.544 1.806l-10.398 32.049zM176.089 188.255h7.925l-4.476 13.61-3.632-.024 3.37-10.273h-4.29l1.103-3.313z"/><path d="M193.733 170.922h3.602l-10.824 33.455c-.725 2.182-2.793 3.672-5.23 3.704-2.019.011-3.115.008-5.136 0-4.375-.02-6.058-1.739-7.077-4.572-.489-1.36-.53-3.278-.128-4.55 1.042-3.196 1.289-3.937 2.344-7.127.691-2.053 2.553-3.426 4.807-3.609 0 0-3.032 9.152-3.978 12.142-.571 1.866.522 4.412 3.4 4.412 2.013.024 3.272.011 5.28 0 1.163-.015 2.185-.725 2.544-1.806l10.396-32.049zM288.383 84.56h-7.925l4.477-13.61 3.632.024-3.371 10.274h4.291l-1.104 3.312z"/><path d="M270.739 101.894h-3.602l10.825-33.455c.725-2.183 2.794-3.672 5.23-3.704 2.019-.011 3.115-.009 5.137 0 4.375.019 6.058 1.739 7.076 4.571.49 1.36.531 3.278.129 4.55-1.043 3.197-1.29 3.937-2.345 7.127-.691 2.053-2.553 3.427-4.807 3.61 0 0 3.033-9.152 3.978-12.142.571-1.866-.521-4.412-3.399-4.412-2.014-.024-3.272-.011-5.281 0-1.163.015-2.185.725-2.544 1.805l-10.397 32.05zM284.773 92.31h7.924l-4.476 13.61-3.632-.023 3.371-10.274h-4.291l1.104-3.312z"/><path d="M302.416 74.977h3.602l-10.824 33.455c-.725 2.183-2.793 3.672-5.229 3.705-2.019.01-3.115.008-5.137 0-4.375-.02-6.058-1.74-7.076-4.572-.49-1.361-.531-3.278-.129-4.55 1.043-3.197 1.289-3.937 2.344-7.127.691-2.053 2.553-3.427 4.807-3.61 0 0-3.032 9.152-3.977 12.142-.572 1.866.521 4.413 3.399 4.413 2.013.023 3.272.01 5.28 0 1.164-.015 2.185-.726 2.544-1.806l10.396-32.05zM99.583 297.12H91.66l4.476-13.61 3.632.024-3.37 10.273h4.29l-1.104 3.313z"/><path d="M81.939 314.453h-3.602l10.825-33.455c.726-2.182 2.794-3.672 5.23-3.704 2.02-.011 3.115-.009 5.137 0 4.375.019 6.058 1.739 7.076 4.572.49 1.36.531 3.278.129 4.55-1.043 3.196-1.289 3.937-2.345 7.126-.69 2.054-2.553 3.427-4.807 3.61 0 0 3.033-9.152 3.978-12.142.572-1.866-.521-4.412-3.399-4.412-2.014-.024-3.272-.011-5.28 0-1.164.015-2.185.725-2.545 1.806L81.94 314.453zM95.973 304.87h7.925l-4.477 13.61-3.631-.024 3.37-10.273h-4.29l1.103-3.313z"/><path d="M113.616 287.537h3.602l-10.823 33.455c-.726 2.182-2.794 3.672-5.23 3.704-2.019.011-3.115.008-5.137 0-4.374-.02-6.057-1.739-7.076-4.572-.49-1.36-.53-3.278-.129-4.55 1.043-3.196 1.29-3.937 2.345-7.127.69-2.053 2.552-3.426 4.806-3.609 0 0-3.032 9.152-3.977 12.141-.571 1.867.521 4.413 3.4 4.413 2.013.024 3.271.011 5.28 0 1.163-.015 2.184-.725 2.544-1.806l10.395-32.049zM209.999 200.657h-7.925l4.477-13.61 3.632.024-3.371 10.273h4.291l-1.104 3.313z"/><path d="M192.355 217.99h-3.602l10.825-33.455c.725-2.182 2.794-3.672 5.23-3.704 2.019-.011 3.115-.009 5.137 0 4.375.019 6.058 1.739 7.076 4.572.49 1.36.531 3.278.129 4.55-1.043 3.196-1.29 3.937-2.345 7.127-.691 2.053-2.553 3.426-4.807 3.609 0 0 3.033-9.152 3.978-12.142.572-1.866-.521-4.412-3.399-4.412-2.014-.024-3.272-.011-5.281 0-1.163.015-2.184.725-2.544 1.806l-10.397 32.049zM206.389 208.407h7.924l-4.476 13.61-3.631-.024 3.37-10.273h-4.291l1.104-3.313z"/><path d="M224.032 191.074h3.602l-10.824 33.455c-.725 2.182-2.793 3.672-5.229 3.704-2.019.011-3.115.009-5.137 0-4.375-.019-6.058-1.739-7.076-4.572-.49-1.36-.531-3.278-.129-4.55 1.043-3.196 1.289-3.937 2.344-7.127.691-2.053 2.553-3.426 4.807-3.609 0 0-3.032 9.152-3.977 12.142-.572 1.866.521 4.412 3.399 4.412 2.014.024 3.272.011 5.281 0 1.163-.015 2.184-.725 2.543-1.806l10.396-32.049zM318.701 104.712h-7.925l4.477-13.61 3.632.024-3.371 10.274h4.291l-1.104 3.312z"/><path d="M301.057 122.046h-3.603l10.826-33.455c.725-2.183 2.794-3.672 5.23-3.704 2.019-.011 3.115-.009 5.137 0 4.375.02 6.058 1.739 7.076 4.571.489 1.36.531 3.279.128 4.55-1.042 3.197-1.289 3.937-2.344 7.127-.691 2.054-2.553 3.427-4.807 3.61 0 0 3.032-9.152 3.978-12.142.571-1.866-.521-4.412-3.4-4.412-2.013-.024-3.271-.011-5.28 0-1.163.015-2.185.725-2.544 1.805l-10.397 32.05zM315.091 112.463h7.924l-4.476 13.61-3.632-.024 3.371-10.274h-4.291l1.104-3.312z"/><path d="M332.734 95.13h3.602l-10.824 33.454c-.725 2.183-2.793 3.672-5.229 3.705-2.019.01-3.115.008-5.137 0-4.375-.02-6.058-1.74-7.076-4.572-.49-1.36-.531-3.278-.129-4.55 1.043-3.197 1.289-3.937 2.344-7.127.691-2.053 2.553-3.427 4.807-3.609 0 0-3.032 9.152-3.977 12.141-.572 1.866.521 4.413 3.399 4.413 2.013.023 3.272.01 5.28 0 1.164-.015 2.185-.726 2.544-1.806l10.396-32.05zM441.418 0h3.599l-10.796 33.455c-.723 2.183-2.789 3.672-5.224 3.704-2.017.011-3.113.009-5.133 0-4.372-.02-6.055-1.739-7.075-4.572-.49-1.36-.532-3.278-.131-4.55 1.039-3.196 1.285-3.936 2.338-7.126.689-2.054 2.549-3.427 4.801-3.61 0 0-3.024 9.152-3.967 12.142-.57 1.866.524 4.412 3.4 4.412 2.012.024 3.27.011 5.277 0 1.163-.015 2.183-.725 2.541-1.806L441.418 0zM8.773 377.244h-3.6l10.799-33.455c.723-2.183 2.79-3.672 5.224-3.704 2.018-.011 3.114-.009 5.134 0 4.373.019 6.056 1.739 7.075 4.571.49 1.361.532 3.279.131 4.551-1.04 3.196-1.286 3.936-2.338 7.126-.69 2.054-2.55 3.427-4.802 3.61 0 0 3.025-9.152 3.968-12.142.57-1.866-.524-4.412-3.4-4.412-2.012-.024-3.27-.011-5.278 0-1.162.015-2.183.725-2.54 1.806L8.772 377.244zM40.397 350.327h3.6L33.2 383.782c-.723 2.183-2.79 3.672-5.224 3.705-2.018.01-3.113.008-5.134 0-4.372-.02-6.055-1.74-7.074-4.572-.49-1.36-.533-3.278-.132-4.55 1.04-3.197 1.286-3.937 2.339-7.127.689-2.053 2.549-3.427 4.801-3.61 0 0-3.024 9.153-3.967 12.142-.57 1.866.523 4.413 3.4 4.413 2.012.023 3.27.01 5.277 0 1.163-.015 2.183-.726 2.541-1.806l10.37-32.05zM55.483 378.432h-7.925l4.477-13.609 3.632.023-3.37 10.274h4.29l-1.104 3.312z"/><path d="M37.839 395.766h-3.602l10.825-33.455c.726-2.183 2.794-3.672 5.23-3.704a439.8 439.8 0 015.137 0c4.375.019 6.058 1.739 7.076 4.571.49 1.361.53 3.278.129 4.551-1.043 3.196-1.29 3.936-2.345 7.126-.69 2.054-2.553 3.427-4.807 3.61 0 0 3.033-9.152 3.978-12.142.572-1.866-.52-4.412-3.4-4.412-2.013-.024-3.271-.011-5.28 0-1.163.015-2.184.725-2.544 1.805l-10.397 32.05zM51.873 386.183h7.924l-4.476 13.609-3.632-.023 3.37-10.274h-4.29l1.104-3.312z"/><path d="M69.516 368.85h3.602l-10.824 33.454c-.725 2.183-2.793 3.672-5.23 3.705-2.018.01-3.114.008-5.136 0-4.375-.02-6.058-1.74-7.076-4.572-.49-1.36-.53-3.278-.129-4.55 1.043-3.197 1.29-3.937 2.344-7.127.691-2.053 2.553-3.427 4.807-3.609 0 0-3.032 9.152-3.977 12.141-.572 1.866.521 4.413 3.4 4.413 2.013.023 3.271.01 5.28 0 1.163-.015 2.184-.726 2.543-1.806l10.396-32.049zM84.18 399.992h-7.926l4.477-13.609 3.632.023-3.37 10.274h4.29l-1.104 3.312z"/><path d="M66.535 417.326h-3.602l10.825-33.455c.725-2.183 2.794-3.672 5.23-3.705 2.019-.01 3.115-.008 5.137 0 4.375.02 6.058 1.74 7.076 4.572.49 1.36.53 3.278.129 4.55-1.043 3.197-1.29 3.937-2.345 7.127-.69 2.053-2.553 3.427-4.807 3.61 0 0 3.033-9.153 3.978-12.142.572-1.866-.521-4.413-3.4-4.413-2.013-.023-3.271-.01-5.28 0-1.163.015-2.184.726-2.544 1.806l-10.397 32.05zM80.569 407.743h7.924l-4.476 13.609-3.632-.023 3.37-10.274h-4.29l1.104-3.312z"/><path d="M98.212 390.409h3.602L90.99 423.864c-.725 2.183-2.793 3.672-5.23 3.704a439.8 439.8 0 01-5.136 0c-4.375-.019-6.058-1.739-7.076-4.571-.49-1.361-.53-3.278-.129-4.55 1.043-3.197 1.29-3.937 2.344-7.127.691-2.053 2.553-3.427 4.807-3.61 0 0-3.032 9.152-3.977 12.142-.572 1.866.52 4.412 3.4 4.412 2.013.024 3.271.011 5.28 0 1.163-.015 2.184-.725 2.543-1.805l10.396-32.05zM112.949 420.811h-7.925l4.477-13.61 3.632.024-3.371 10.273h4.291l-1.104 3.313z"/><path d="M95.305 438.144h-3.603l10.826-33.454c.725-2.183 2.794-3.672 5.23-3.705 2.019-.01 3.115-.008 5.137 0 4.374.02 6.057 1.739 7.076 4.572.489 1.36.531 3.278.128 4.55-1.042 3.196-1.289 3.937-2.344 7.127-.691 2.053-2.553 3.426-4.807 3.609 0 0 3.032-9.152 3.978-12.141.571-1.866-.521-4.413-3.4-4.413-2.013-.023-3.272-.011-5.28 0-1.163.015-2.185.726-2.544 1.806l-10.397 32.049zM109.339 428.562h7.924l-4.476 13.609-3.632-.024 3.37-10.273h-4.29l1.104-3.312z"/><path d="M126.982 411.228h3.602l-10.824 33.455c-.725 2.183-2.793 3.672-5.229 3.704-2.019.011-3.116.009-5.137 0-4.375-.019-6.058-1.739-7.077-4.571-.489-1.361-.53-3.279-.128-4.551 1.042-3.196 1.289-3.936 2.344-7.126.691-2.054 2.553-3.427 4.807-3.61 0 0-3.032 9.152-3.978 12.142-.571 1.866.522 4.412 3.4 4.412 2.013.024 3.272.011 5.28 0 1.163-.015 2.185-.725 2.544-1.806l10.396-32.049zM74.275 363.686h-3.6l10.798-33.455c.724-2.183 2.79-3.672 5.225-3.704 2.018-.011 3.113-.009 5.134 0 4.372.019 6.055 1.739 7.075 4.571.49 1.361.532 3.278.13 4.55-1.04 3.197-1.286 3.937-2.338 7.127-.69 2.054-2.55 3.427-4.802 3.61 0 0 3.025-9.152 3.968-12.142.57-1.866-.523-4.413-3.4-4.413-2.012-.023-3.27-.01-5.278 0-1.162.016-2.182.726-2.54 1.806l-10.372 32.05zM88.291 354.103h7.925l-4.477 13.609-3.631-.023 3.37-10.274h-4.29l1.103-3.312z"/><path d="M105.935 336.769h3.602l-10.824 33.455c-.725 2.183-2.794 3.672-5.23 3.705-2.019.01-3.115.008-5.137 0-4.374-.02-6.057-1.74-7.076-4.572-.49-1.361-.53-3.278-.128-4.55 1.042-3.197 1.289-3.937 2.344-7.127.69-2.053 2.553-3.427 4.807-3.61 0 0-3.033 9.152-3.978 12.142-.571 1.866.521 4.413 3.4 4.413 2.013.023 3.271.01 5.28 0 1.163-.015 2.184-.726 2.544-1.806l10.396-32.05zM120.597 367.838h-7.924l4.477-13.61 3.631.024-3.37 10.273h4.29l-1.104 3.313z"/><path d="M102.953 385.171h-3.602l10.826-33.455c.725-2.182 2.793-3.672 5.229-3.704 2.019-.011 3.116-.008 5.137 0 4.375.02 6.058 1.739 7.077 4.572.489 1.36.53 3.278.128 4.55-1.043 3.196-1.289 3.937-2.344 7.127-.691 2.053-2.554 3.426-4.808 3.609 0 0 3.033-9.152 3.978-12.141.572-1.867-.521-4.413-3.399-4.413-2.013-.024-3.272-.011-5.281 0-1.163.015-2.184.725-2.543 1.806l-10.398 32.049zM116.987 375.588h7.925l-4.477 13.61-3.631-.024 3.37-10.273h-4.291l1.104-3.313z"/><path d="M134.63 358.255h3.602l-10.824 33.455c-.725 2.182-2.793 3.672-5.229 3.704-2.019.011-3.115.009-5.137 0-4.374-.019-6.057-1.739-7.076-4.572-.489-1.36-.531-3.278-.129-4.55 1.043-3.196 1.289-3.937 2.344-7.126.691-2.054 2.553-3.427 4.807-3.61 0 0-3.032 9.152-3.977 12.142-.571 1.866.521 4.412 3.399 4.412 2.014.024 3.272.011 5.281 0 1.163-.015 2.184-.725 2.543-1.806l10.396-32.049zM40.168 483.564h-7.925l4.477-13.61 3.632.024-3.371 10.273h4.29l-1.103 3.313z"/><path d="M22.523 500.897h-3.602l10.826-33.455c.725-2.182 2.793-3.672 5.23-3.704 2.019-.011 3.115-.009 5.137 0 4.374.019 6.057 1.739 7.076 4.572.49 1.36.53 3.278.128 4.55-1.042 3.196-1.29 3.937-2.344 7.127-.691 2.053-2.553 3.426-4.807 3.609 0 0 3.032-9.152 3.978-12.142.571-1.866-.522-4.412-3.4-4.412-2.013-.024-3.272-.011-5.28 0-1.164.015-2.185.725-2.544 1.806l-10.398 32.049zM36.557 491.314h7.925l-4.477 13.61-3.631-.024 3.37-10.273h-4.29l1.103-3.313z"/><path d="M54.2 473.981h3.603l-10.824 33.455c-.725 2.182-2.794 3.672-5.23 3.704-2.019.011-3.115.009-5.137 0-4.374-.019-6.057-1.739-7.076-4.572-.49-1.36-.53-3.278-.128-4.55 1.042-3.196 1.289-3.937 2.344-7.127.69-2.053 2.553-3.426 4.807-3.609 0 0-3.032 9.152-3.978 12.142-.571 1.866.521 4.412 3.4 4.412 2.013.024 3.271.011 5.28 0 1.163-.015 2.184-.725 2.544-1.806L54.2 473.981zM149.367 388.731h-7.925l4.477-13.61 3.632.024-3.371 10.273h4.291l-1.104 3.313z"/><path d="M131.723 406.064h-3.602l10.825-33.455c.725-2.182 2.794-3.672 5.23-3.704 2.019-.011 3.115-.009 5.137 0 4.375.019 6.058 1.739 7.076 4.572.49 1.36.531 3.278.129 4.55-1.043 3.196-1.29 3.937-2.345 7.126-.691 2.054-2.553 3.427-4.807 3.61 0 0 3.033-9.152 3.978-12.142.571-1.866-.521-4.412-3.399-4.412-2.014-.024-3.272-.011-5.281 0-1.163.015-2.185.725-2.544 1.806l-10.397 32.049zM145.757 396.481h7.924l-4.476 13.61-3.632-.024 3.371-10.273h-4.291l1.104-3.313z"/><path d="M163.4 379.148h3.602l-10.824 33.455c-.725 2.182-2.793 3.672-5.229 3.704-2.019.011-3.115.009-5.137 0-4.375-.019-6.058-1.739-7.076-4.572-.49-1.36-.531-3.278-.129-4.55 1.042-3.196 1.289-3.937 2.344-7.127.691-2.053 2.553-3.426 4.807-3.609 0 0-3.032 9.152-3.978 12.142-.571 1.866.522 4.412 3.4 4.412 2.013.024 3.272.011 5.28 0 1.164-.015 2.185-.725 2.544-1.806l10.396-32.049zM33.375 400.337h3.6l-10.796 33.455c-.724 2.182-2.79 3.672-5.224 3.704-2.018.011-3.113.009-5.134 0-4.372-.019-6.055-1.739-7.075-4.572-.49-1.36-.532-3.278-.131-4.55 1.04-3.196 1.286-3.937 2.338-7.126.689-2.054 2.55-3.427 4.802-3.61 0 0-3.025 9.152-3.968 12.142-.57 1.866.524 4.412 3.4 4.412 2.013.024 3.27.011 5.278 0 1.162-.015 2.182-.725 2.54-1.806l10.37-32.049zM48.056 431.406H40.13l4.477-13.61 3.632.024-3.371 10.273h4.29l-1.103 3.313z"/><path d="M30.412 448.739h-3.603l10.826-33.455c.725-2.182 2.794-3.672 5.23-3.704 2.019-.011 3.115-.009 5.137 0 4.374.019 6.057 1.739 7.076 4.572.49 1.36.53 3.278.128 4.55-1.042 3.196-1.289 3.936-2.344 7.126-.69 2.054-2.553 3.427-4.807 3.61 0 0 3.032-9.152 3.978-12.142.571-1.866-.521-4.412-3.4-4.412-2.013-.024-3.272-.011-5.28 0-1.163.015-2.185.725-2.544 1.806l-10.397 32.049zM44.446 439.156h7.924l-4.476 13.61-3.632-.024 3.37-10.273h-4.29l1.104-3.313z"/><path d="M62.089 421.823h3.602l-10.824 33.454c-.725 2.183-2.793 3.672-5.23 3.705-2.019.01-3.115.008-5.136 0-4.375-.02-6.058-1.739-7.077-4.572-.489-1.36-.53-3.278-.128-4.55 1.042-3.196 1.289-3.937 2.344-7.127.69-2.053 2.553-3.426 4.807-3.609 0 0-3.032 9.152-3.978 12.141-.571 1.867.522 4.413 3.4 4.413 2.013.023 3.272.011 5.28 0 1.163-.015 2.185-.726 2.544-1.806l10.396-32.049zM76.825 452.299h-7.924l4.477-13.61 3.631.024-3.37 10.273h4.29l-1.104 3.313z"/><path d="M59.181 469.632H55.58l10.825-33.455c.726-2.182 2.794-3.672 5.23-3.704 2.02-.011 3.116-.009 5.137 0 4.375.019 6.058 1.739 7.077 4.572.489 1.36.53 3.278.128 4.55-1.043 3.196-1.29 3.936-2.344 7.126-.691 2.054-2.554 3.427-4.808 3.61 0 0 3.033-9.152 3.978-12.142.572-1.866-.52-4.412-3.4-4.412-2.012-.024-3.27-.011-5.28 0-1.163.015-2.184.725-2.543 1.806L59.18 469.632zM73.215 460.049h7.925l-4.477 13.61-3.631-.024 3.37-10.273h-4.29l1.103-3.313z"/><path d="M90.859 442.716h3.602l-10.824 33.455c-.725 2.182-2.794 3.672-5.23 3.704-2.019.011-3.115.008-5.137 0-4.374-.02-6.057-1.739-7.076-4.572-.49-1.36-.53-3.278-.128-4.55 1.042-3.196 1.289-3.937 2.344-7.127.69-2.053 2.553-3.426 4.806-3.609 0 0-3.032 9.152-3.977 12.141-.571 1.867.521 4.413 3.4 4.413 2.013.024 3.271.011 5.28 0 1.163-.015 2.184-.726 2.544-1.806l10.396-32.049zM330.232 143.37h-3.6l10.799-33.455c.723-2.182 2.79-3.672 5.224-3.704 2.018-.011 3.114-.008 5.134 0 4.372.02 6.055 1.739 7.075 4.572.49 1.36.532 3.278.131 4.55-1.04 3.196-1.286 3.937-2.339 7.127-.689 2.053-2.549 3.426-4.802 3.609 0 0 3.026-9.152 3.969-12.141.57-1.867-.524-4.413-3.401-4.413-2.012-.024-3.269-.011-5.277 0-1.162.015-2.183.725-2.541 1.806l-10.372 32.049zM361.856 116.454h3.6l-10.797 33.455c-.723 2.182-2.789 3.672-5.224 3.704-2.018.011-3.113.009-5.134 0-4.372-.019-6.055-1.739-7.075-4.572-.489-1.36-.532-3.278-.131-4.55 1.04-3.196 1.286-3.937 2.338-7.126.69-2.054 2.55-3.427 4.802-3.61 0 0-3.024 9.152-3.967 12.142-.57 1.866.523 4.412 3.4 4.412 2.012.024 3.27.011 5.277 0 1.162-.015 2.183-.725 2.541-1.806l10.37-32.049zM376.942 144.559h-7.925l4.477-13.61 3.632.024-3.371 10.274h4.291l-1.104 3.312z"/><path d="M359.298 161.892h-3.602l10.825-33.454c.725-2.183 2.794-3.672 5.23-3.705 2.019-.01 3.115-.008 5.137 0 4.375.02 6.058 1.74 7.076 4.572.489 1.36.531 3.278.128 4.55-1.042 3.197-1.289 3.937-2.344 7.127-.691 2.053-2.553 3.426-4.807 3.609 0 0 3.033-9.152 3.978-12.141.571-1.866-.521-4.413-3.399-4.413-2.014-.023-3.272-.01-5.281 0-1.163.015-2.185.726-2.544 1.806l-10.397 32.049zM373.332 152.31h7.924l-4.476 13.609-3.632-.023 3.371-10.274h-4.291l1.104-3.312z"/><path d="M390.975 134.976h3.602l-10.824 33.455c-.725 2.183-2.793 3.672-5.229 3.704-2.019.011-3.115.009-5.137 0-4.375-.019-6.058-1.739-7.076-4.571-.49-1.361-.531-3.278-.129-4.551 1.043-3.196 1.289-3.936 2.344-7.126.691-2.054 2.553-3.427 4.807-3.61 0 0-3.032 9.152-3.977 12.142-.572 1.866.521 4.412 3.399 4.412 2.013.024 3.272.011 5.28 0 1.164-.015 2.185-.725 2.544-1.806l10.396-32.049zM405.638 166.119h-7.925l4.477-13.61 3.632.024-3.371 10.273h4.291l-1.104 3.313z"/><path d="M387.994 183.452h-3.602l10.825-33.455c.725-2.182 2.794-3.672 5.23-3.704 2.019-.011 3.115-.009 5.137 0 4.375.019 6.058 1.739 7.076 4.572.489 1.36.531 3.278.128 4.55-1.042 3.196-1.289 3.937-2.344 7.126-.691 2.054-2.553 3.427-4.807 3.61 0 0 3.032-9.152 3.978-12.142.571-1.866-.521-4.412-3.4-4.412-2.013-.024-3.271-.011-5.28 0-1.163.015-2.185.725-2.544 1.806l-10.397 32.049zM402.028 173.869h7.924l-4.476 13.61-3.632-.024 3.371-10.273h-4.291l1.104-3.313z"/><path d="M419.671 156.536h3.602l-10.824 33.455c-.725 2.182-2.793 3.672-5.229 3.704-2.019.011-3.115.008-5.137 0-4.375-.02-6.058-1.739-7.076-4.572-.49-1.36-.531-3.278-.129-4.55 1.043-3.196 1.289-3.937 2.344-7.127.691-2.053 2.553-3.426 4.807-3.609 0 0-3.032 9.152-3.977 12.142-.572 1.866.521 4.412 3.399 4.412 2.013.024 3.272.011 5.28 0 1.164-.015 2.185-.725 2.544-1.806l10.396-32.049zM434.408 186.937h-7.925l4.477-13.609 3.631.024-3.37 10.273h4.291l-1.104 3.312z"/><path d="M416.763 204.271h-3.602l10.826-33.455c.725-2.182 2.793-3.672 5.229-3.704 2.02-.011 3.116-.009 5.137 0 4.375.019 6.058 1.739 7.077 4.571.489 1.361.53 3.279.128 4.551-1.042 3.196-1.289 3.936-2.344 7.126-.691 2.054-2.553 3.427-4.807 3.61 0 0 3.032-9.152 3.978-12.142.571-1.866-.522-4.412-3.4-4.412-2.013-.024-3.272-.011-5.28 0-1.164.015-2.185.725-2.544 1.806l-10.398 32.049zM430.797 194.688h7.925l-4.476 13.61-3.632-.024 3.37-10.273h-4.29l1.103-3.313z"/><path d="M448.441 177.355h3.602l-10.824 33.454c-.725 2.183-2.794 3.672-5.23 3.705-2.019.01-3.115.008-5.137 0-4.374-.02-6.057-1.739-7.076-4.572-.489-1.36-.53-3.278-.128-4.55 1.042-3.196 1.289-3.937 2.344-7.127.69-2.053 2.553-3.426 4.807-3.609 0 0-3.033 9.152-3.978 12.141-.571 1.867.521 4.413 3.4 4.413 2.013.023 3.272.011 5.28 0 1.163-.015 2.185-.726 2.544-1.806l10.396-32.049zM395.734 129.812h-3.6l10.798-33.455c.724-2.182 2.79-3.672 5.225-3.704 2.017-.01 3.113-.009 5.133 0 4.373.02 6.056 1.74 7.075 4.572.49 1.36.532 3.278.131 4.55-1.04 3.196-1.286 3.937-2.338 7.127-.689 2.053-2.55 3.426-4.802 3.609 0 0 3.025-9.152 3.968-12.142.57-1.866-.524-4.412-3.4-4.412-2.012-.024-3.27-.01-5.278 0-1.162.015-2.182.725-2.541 1.806l-10.371 32.049zM409.75 120.229h7.925l-4.477 13.61-3.631-.024 3.37-10.273h-4.291l1.104-3.313z"/><path d="M427.393 102.896h3.602l-10.823 33.455c-.726 2.182-2.794 3.672-5.23 3.704-2.019.011-3.115.009-5.137 0-4.374-.019-6.057-1.739-7.076-4.572-.489-1.36-.531-3.278-.128-4.55 1.042-3.196 1.288-3.937 2.344-7.127.69-2.053 2.552-3.426 4.806-3.609 0 0-3.032 9.152-3.977 12.142-.571 1.866.521 4.412 3.399 4.412 2.014.024 3.272.011 5.281 0 1.163-.015 2.184-.725 2.544-1.806l10.395-32.049zM361.626 249.69h-7.924l4.477-13.609 3.631.023-3.37 10.274h4.29l-1.104 3.312z"/><path d="M343.982 267.024h-3.602l10.826-33.455c.725-2.183 2.793-3.672 5.229-3.705 2.019-.01 3.116-.008 5.137 0 4.375.02 6.058 1.74 7.077 4.572.489 1.36.53 3.278.128 4.55-1.043 3.197-1.289 3.937-2.344 7.127-.691 2.053-2.554 3.427-4.808 3.61 0 0 3.033-9.153 3.979-12.142.571-1.866-.522-4.413-3.4-4.413-2.013-.023-3.272-.01-5.28 0-1.164.015-2.185.726-2.544 1.806l-10.398 32.05zM358.016 257.441h7.925l-4.477 13.609-3.631-.023 3.37-10.274h-4.291l1.104-3.312z"/><path d="M375.659 240.107h3.603l-10.824 33.455c-.725 2.183-2.794 3.672-5.23 3.704-2.019.011-3.115.009-5.137 0-4.374-.019-6.057-1.739-7.076-4.571-.489-1.361-.531-3.278-.128-4.55 1.042-3.197 1.289-3.937 2.344-7.127.69-2.054 2.553-3.427 4.806-3.61 0 0-3.032 9.152-3.977 12.142-.571 1.866.521 4.412 3.4 4.412 2.013.024 3.271.011 5.28 0 1.163-.015 2.184-.725 2.544-1.805l10.395-32.05zM470.826 154.857h-7.925l4.477-13.609 3.632.023-3.371 10.274h4.291l-1.104 3.312z"/><path d="M453.182 172.191h-3.602l10.825-33.455c.725-2.183 2.794-3.672 5.23-3.705 2.019-.01 3.115-.008 5.137 0 4.375.02 6.058 1.74 7.076 4.572.489 1.36.531 3.278.128 4.55-1.042 3.197-1.289 3.937-2.344 7.127-.691 2.053-2.553 3.427-4.807 3.61 0 0 3.032-9.153 3.978-12.142.571-1.866-.521-4.413-3.4-4.413-2.013-.023-3.271-.01-5.28 0-1.163.015-2.185.726-2.544 1.806l-10.397 32.05zM508.475 109.979h7.924l-4.476 13.61-3.632-.024 3.371-10.273h-4.291l1.104-3.313z"/><path d="M526.118 92.646h3.602L518.896 126.1c-.725 2.183-2.793 3.672-5.229 3.705-2.019.01-3.115.008-5.137 0-4.375-.02-6.058-1.739-7.076-4.572-.49-1.36-.531-3.278-.129-4.55 1.042-3.196 1.289-3.937 2.344-7.127.691-2.053 2.553-3.426 4.807-3.609 0 0-3.032 9.152-3.978 12.141-.571 1.867.522 4.413 3.4 4.413 2.013.023 3.272.011 5.28 0 1.164-.015 2.185-.726 2.544-1.806l10.396-32.05zM354.834 166.463h3.599l-10.795 33.455c-.724 2.183-2.79 3.672-5.224 3.705-2.018.01-3.114.008-5.134 0-4.372-.02-6.055-1.74-7.075-4.572-.49-1.36-.532-3.278-.131-4.55 1.04-3.197 1.286-3.937 2.338-7.127.689-2.053 2.549-3.427 4.802-3.61 0 0-3.025 9.153-3.968 12.142-.57 1.866.524 4.413 3.4 4.413 2.013.023 3.27.01 5.278 0 1.162-.015 2.182-.726 2.541-1.806l10.369-32.05zM369.515 197.532h-7.925l4.477-13.61 3.632.024-3.371 10.273h4.291l-1.104 3.313z"/><path d="M351.87 214.865h-3.602l10.826-33.454c.725-2.183 2.793-3.672 5.23-3.705 2.019-.011 3.115-.008 5.137 0 4.374.02 6.057 1.739 7.076 4.572.489 1.36.53 3.278.128 4.55-1.042 3.196-1.289 3.937-2.344 7.127-.691 2.053-2.553 3.426-4.807 3.609 0 0 3.032-9.152 3.978-12.141.571-1.867-.521-4.413-3.4-4.413-2.013-.024-3.272-.011-5.28 0-1.164.015-2.185.726-2.544 1.806l-10.398 32.049zM365.904 205.282h7.925l-4.476 13.61-3.632-.024 3.37-10.273h-4.29l1.103-3.313z"/><path d="M383.548 187.949h3.602l-10.824 33.455c-.725 2.182-2.794 3.672-5.23 3.704-2.019.011-3.115.009-5.136 0-4.375-.019-6.058-1.739-7.077-4.572-.489-1.36-.53-3.278-.128-4.55 1.042-3.196 1.289-3.936 2.344-7.126.691-2.054 2.553-3.427 4.807-3.61 0 0-3.032 9.152-3.978 12.142-.571 1.866.522 4.412 3.4 4.412 2.013.024 3.272.011 5.28 0 1.163-.015 2.185-.725 2.544-1.806l10.396-32.049zM398.284 218.425h-7.924l4.476-13.61 3.632.024-3.371 10.273h4.291l-1.104 3.313z"/><path d="M380.64 235.758h-3.602l10.825-33.454c.726-2.183 2.794-3.672 5.23-3.705 2.019-.01 3.115-.008 5.137 0 4.375.02 6.058 1.739 7.076 4.572.49 1.36.531 3.278.129 4.55-1.043 3.197-1.289 3.937-2.345 7.127-.69 2.053-2.553 3.426-4.807 3.609 0 0 3.033-9.152 3.978-12.141.572-1.866-.521-4.413-3.399-4.413-2.014-.023-3.272-.011-5.281 0-1.163.015-2.184.726-2.544 1.806l-10.397 32.049zM394.674 226.176h7.925l-4.477 13.609-3.631-.023 3.37-10.274h-4.291l1.104-3.312z"/><path d="M412.317 208.842h3.602l-10.824 33.455c-.725 2.183-2.793 3.672-5.229 3.704-2.019.011-3.115.009-5.137 0-4.374-.019-6.057-1.739-7.076-4.571-.489-1.361-.531-3.279-.129-4.551 1.043-3.196 1.289-3.936 2.344-7.126.691-2.054 2.553-3.427 4.807-3.61 0 0-3.032 9.152-3.977 12.142-.571 1.866.521 4.412 3.399 4.412 2.014.024 3.272.011 5.281 0 1.163-.015 2.184-.725 2.543-1.806l10.396-32.049z"/></g><defs><clipPath id="cclip0"><path fill="#fff" d="M0 0h689v644H0z"/></clipPath></defs></svg><svg fill="none" viewBox="0 0 156 47" id="logo-white" xmlns="http://www.w3.org/2000/svg"><path d="M4.981 0H0v35.975h4.981V22.629c0-2.258.562-4.04 1.685-5.294 1.123-1.254 2.661-1.906 4.566-1.906 1.636 0 3.003.602 4.102 1.756 1.099 1.179 1.66 2.659 1.66 4.44V36H22V21.625c0-3.311-.903-5.92-2.71-7.877-1.807-1.957-4.176-2.935-7.057-2.935-.83 0-1.66.1-2.466.326-.83.226-1.49.476-2.027.752-.537.276-1.05.577-1.514.929-.464.35-.78.602-.927.752-.147.15-.269.251-.318.326V0z" fill="#F0145A"/><path d="M33.135 0H28v35.945h5.135V0zM63.422 25.418l.257-2.568c0-3.44-1.13-6.316-3.44-8.627-2.311-2.31-5.187-3.44-8.627-3.44-3.44 0-6.42 1.232-8.884 3.697-2.465 2.465-3.697 5.392-3.697 8.884 0 3.594 1.284 6.675 3.8 9.243 2.516 2.567 5.546 3.851 9.037 3.851 1.335 0 2.568-.205 3.8-.565 1.233-.41 2.26-.821 2.979-1.232.77-.462 1.54-.976 2.208-1.54.667-.566 1.13-.976 1.335-1.233.205-.257.36-.41.462-.565l-3.338-3.338-.77.976c-.514.616-1.386 1.232-2.619 1.9-1.284.668-2.619.976-4.057.976-2.002 0-3.697-.617-5.135-1.9-1.437-1.284-2.31-2.773-2.567-4.52h19.256zm-11.81-10.27c1.9 0 3.44.565 4.724 1.643 1.232 1.13 2.003 2.516 2.31 4.262H44.372c.462-1.746 1.284-3.132 2.568-4.262 1.232-1.078 2.824-1.643 4.673-1.643zM87.371 34.455c0 2.26-.667 4.108-2.054 5.546-1.335 1.387-3.03 2.106-5.135 2.106a9.705 9.705 0 01-2.721-.411c-.873-.257-1.54-.565-2.106-.924a11.605 11.605 0 01-1.592-1.182l-.924-.924c-.154-.154-.257-.308-.36-.41l-3.337 3.337.41.514c.257.359.72.821 1.336 1.335.616.462 1.335.975 2.157 1.489.821.462 1.848.873 3.132 1.232 1.284.36 2.619.565 4.005.565 3.492 0 6.368-1.181 8.781-3.543 2.362-2.413 3.543-5.29 3.543-8.781V11.296h-5.135v2.568l-.873-.77c-.565-.514-1.438-1.027-2.67-1.54a10.17 10.17 0 00-3.903-.771c-3.132 0-5.802 1.181-8.113 3.595-2.31 2.413-3.44 5.289-3.44 8.729 0 3.44 1.13 6.316 3.44 8.73 2.31 2.413 4.981 3.594 8.114 3.594.872 0 1.694-.103 2.567-.308.822-.257 1.49-.514 2.054-.77a7.667 7.667 0 001.54-.925c.463-.36.822-.616.925-.718l.36-.36v2.105zM73.507 23.107c0-2.157.667-3.954 2.054-5.443 1.386-1.49 3.03-2.26 4.878-2.26 1.849 0 3.492.77 4.878 2.26 1.335 1.49 2.054 3.286 2.054 5.443 0 2.157-.719 3.954-2.054 5.443-1.386 1.49-3.03 2.26-4.878 2.26-1.849 0-3.492-.77-4.878-2.26-1.387-1.489-2.054-3.286-2.054-5.443zM119.309 35.945V20.026c0-2.619-.976-4.827-2.876-6.573-1.9-1.797-4.365-2.67-7.394-2.67a13.31 13.31 0 00-3.492.462c-1.13.36-2.054.72-2.722 1.13-.667.41-1.335.873-1.951 1.438-.616.513-.975.873-1.18 1.078-.155.205-.309.36-.412.514l3.338 3.337.668-.873c.41-.564 1.129-1.078 2.208-1.643 1.078-.565 2.259-.821 3.543-.821 1.489 0 2.721.462 3.697 1.335s1.438 2.002 1.438 3.286l-8.986 1.54c-2.209.36-4.006 1.233-5.238 2.62-1.284 1.386-1.951 3.08-1.951 5.083 0 1.9.821 3.543 2.464 4.981 1.695 1.49 3.749 2.208 6.265 2.208.873 0 1.695-.103 2.516-.36a11.075 11.075 0 002.106-.718 7.671 7.671 0 001.54-.925c.462-.359.77-.616.976-.718.154-.154.256-.309.308-.36v2.568h5.135zm-11.811-4.108c-1.335 0-2.413-.308-3.183-.925-.822-.616-1.181-1.335-1.181-2.156 0-.873.256-1.644.821-2.209.565-.564 1.335-.975 2.26-1.13l7.959-1.283v.514c0 2.31-.565 4.056-1.746 5.34-1.181 1.232-2.824 1.849-4.93 1.849zM130.64 0h-5.135v35.945h5.135V0zM153.989 14.12l-.308-.359c-.206-.205-.514-.462-.976-.821-.462-.36-.976-.668-1.54-1.027-.565-.308-1.336-.565-2.26-.822a13.33 13.33 0 00-2.875-.308c-2.517 0-4.571.719-6.214 2.157-1.694 1.489-2.516 3.132-2.516 5.032 0 1.386.308 2.516.924 3.543.617.976 1.387 1.695 2.362 2.105.925.463 1.952.925 3.03 1.284 1.078.36 2.054.668 3.03.925.924.308 1.694.667 2.311 1.13.616.462.924 1.078.924 1.797 0 .924-.36 1.694-1.027 2.259-.668.514-1.695.822-3.081.822-1.13 0-2.26-.308-3.338-.822-1.078-.565-1.746-1.027-2.105-1.387-.308-.359-.565-.667-.719-.872l-3.338 3.337.36.462a7.77 7.77 0 001.129 1.079c.565.462 1.181.873 1.849 1.284.719.41 1.643.77 2.721 1.078 1.079.308 2.26.462 3.441.462 2.721 0 4.981-.77 6.675-2.26 1.695-1.489 2.568-3.337 2.568-5.442 0-1.387-.308-2.568-.924-3.492-.617-.976-1.387-1.695-2.363-2.157-.924-.514-1.951-.924-3.029-1.284-1.079-.36-2.054-.719-3.03-.924a6.948 6.948 0 01-2.311-1.13c-.616-.462-.924-1.078-.924-1.797 0-.668.308-1.284.976-1.797.616-.514 1.489-.77 2.619-.77.821 0 1.643.205 2.413.564.822.36 1.386.668 1.643.925l.565.565 3.338-3.338z" fill="#fff"/></svg><svg fill="none" viewBox="0 0 42 42" id="scroll-down" xmlns="http://www.w3.org/2000/svg"><circle opacity=".5" cx="21" cy="21" r="20.5" stroke="#fff"/><path d="M12 18l9 9 9-9" stroke="#fff" stroke-width="2"/></svg><svg fill="none" viewBox="0 0 109 174" id="symbol-long-leg" xmlns="http://www.w3.org/2000/svg"><path fill-rule="evenodd" clip-rule="evenodd" d="M11.797 173.31H0S47.356 27.55 52.374 12.113A17.53 17.53 0 0169.044 0h21.09c6.36 0 11.669 2.686 14.969 7.226 3.298 4.54 4.233 10.349 2.31 16.275l-5.409 16.645a17.463 17.463 0 01-15.678 12.077s-.038-.012 10.052-31.067c.891-2.74.566-5.423-.834-7.347-1.397-1.923-3.754-3.062-6.873-3.062H70.573a8.205 8.205 0 00-7.802 5.669L11.797 173.31z" fill="#F0145A"/><path fill-rule="evenodd" clip-rule="evenodd" d="M86.323 52.224H62.546L73.023 20.36l11.853.07-6.883 21.014 11.818.007-3.488 10.773z" fill="url(#fpaint0_linear)"/><defs><linearGradient id="fpaint0_linear" x1="62.544" y1="46.121" x2="88.994" y2="59.946" gradientUnits="userSpaceOnUse"><stop stop-color="#F0145A"/><stop offset="1" stop-color="#693264"/></linearGradient></defs></svg></svg>