<svg width="26" height="22" viewBox="0 0 26 22" fill="none" xmlns="http://www.w3.org/2000/svg">
<path d="M14.2321 13.332V12.774C14.2321 12.0935 13.6806 11.542 13.0006 11.542C12.3201 11.542 11.7686 12.0935 11.7686 12.774V13.332C11.7686 14.0125 12.3201 14.564 13.0006 14.564C13.6801 14.564 14.2321 14.0125 14.2321 13.332Z" fill="#F0145A"/>
<path d="M15.0769 14.0135C14.8039 14.907 13.9814 15.563 13.0004 15.563C12.0189 15.563 11.1964 14.907 10.9234 14.0135H2.43886C1.90336 14.0135 1.39736 13.889 0.943359 13.673V19.3065C0.943359 20.4065 1.84336 21.3065 2.94336 21.3065H23.0564C24.1564 21.3065 25.0564 20.4065 25.0564 19.3065V13.6735C24.6019 13.8895 24.0964 14.014 23.5609 14.014H15.0769V14.0135Z" fill="#F0145A"/>
<path d="M23.4775 3.89751H18.677C18.387 2.08451 16.8165 0.693512 14.923 0.693512H11.0765C9.18297 0.693512 7.61297 2.08451 7.32247 3.89751H2.52247C1.37647 3.89751 0.438965 4.79751 0.438965 5.89751V10.514C0.438965 11.6185 1.33447 12.514 2.43897 12.514H10.829C10.8575 11.9385 11.1045 11.4215 11.495 11.0475C11.507 11.036 11.521 11.027 11.5335 11.016C11.62 10.9365 11.71 10.8615 11.8085 10.7965C11.8435 10.773 11.8835 10.757 11.92 10.736C12.001 10.6895 12.081 10.641 12.1685 10.605C12.237 10.5765 12.311 10.56 12.383 10.5385C12.445 10.52 12.504 10.4955 12.5685 10.4825C12.708 10.454 12.8525 10.439 13 10.439C13.148 10.439 13.292 10.4545 13.4315 10.4825C13.4955 10.4955 13.5545 10.52 13.6165 10.5385C13.6885 10.56 13.7625 10.5765 13.831 10.6055C13.918 10.6415 13.9975 10.6895 14.0785 10.736C14.1155 10.7575 14.1555 10.7735 14.191 10.797C14.2895 10.8615 14.379 10.9365 14.4655 11.016C14.478 11.0275 14.4925 11.0365 14.5045 11.0485C14.8955 11.4225 15.142 11.9395 15.1705 12.515H23.5605C24.665 12.515 25.5605 11.6195 25.5605 10.515V5.89851C25.561 4.79751 24.6235 3.89751 23.4775 3.89751ZM9.24797 3.89751C9.50297 3.12701 10.2215 2.56551 11.0765 2.56551H14.923C15.778 2.56551 16.4965 3.12701 16.7515 3.89751H9.24797Z" fill="#F0145A"/>
</svg>
