<svg width="64" height="64" viewBox="0 0 64 64" fill="none" xmlns="http://www.w3.org/2000/svg">
<path d="M41.2317 37.6965C43.5839 37.6965 45.9096 38.2849 47.9577 39.3979C48.3296 39.5984 48.6709 39.8372 49.0194 40.0672C52.3807 33.4873 54.1545 26.5283 54.1545 19.7393C54.1545 19.3578 54.1545 18.9639 54.1423 18.5701C54.1177 18.0163 53.7238 17.5362 53.1699 17.4132C45.7361 15.7886 39.0038 11.7639 33.7115 5.78242L32.9238 4.8839C32.6899 4.61317 32.3577 4.46548 32.0007 4.46548C31.6192 4.41628 31.3238 4.60085 31.0899 4.85934L29.8838 6.18859C24.8623 11.7147 18.5361 15.5301 11.5946 17.2286L10.7946 17.4254C10.253 17.5486 9.8715 18.0286 9.85918 18.5824C9.41612 35.887 19.6315 48.3301 24.0377 52.8839C25.2306 54.1087 26.5606 55.3261 27.8253 56.3324C27.3509 54.9016 27.0779 53.3961 27.0779 51.8504C27.0779 44.0457 33.427 37.6965 41.2317 37.6965Z" fill="url(#paint0_linear)"/>
<path d="M46.7822 41.5609C45.0837 40.6379 43.1637 40.1578 41.2314 40.1578C34.7822 40.1578 29.5391 45.4009 29.5391 51.8501C29.5391 54.0286 30.1299 56.1578 31.2622 57.9794C33.416 61.4625 37.133 63.5425 41.2314 63.5425C47.6683 63.5425 52.9237 58.2994 52.9237 51.8501C52.9237 47.5425 50.5729 43.604 46.7822 41.5609ZM47.2196 50.2934L38.0747 57.4099L34.9527 52.5265C34.5862 51.9538 34.7538 51.193 35.3265 50.827C35.8999 50.4604 36.6613 50.6293 37.0261 51.2008L38.6937 53.809L45.7076 48.351C46.243 47.9334 47.0171 48.0289 47.4347 48.5662C47.8524 49.1028 47.7556 49.8763 47.2196 50.2934Z" fill="url(#paint1_linear)"/>
<defs>
<linearGradient id="paint0_linear" x1="31.9999" y1="4.45752" x2="31.9999" y2="56.3324" gradientUnits="userSpaceOnUse">
<stop stop-color="#EF8080"/>
<stop offset="1" stop-color="#F0145A"/>
</linearGradient>
<linearGradient id="paint1_linear" x1="41.2314" y1="40.1578" x2="41.2314" y2="63.5425" gradientUnits="userSpaceOnUse">
<stop stop-color="#EF8080"/>
<stop offset="1" stop-color="#F0145A"/>
</linearGradient>
</defs>
</svg>
