<svg width="64" height="64" viewBox="0 0 64 64" fill="none" xmlns="http://www.w3.org/2000/svg">
<path d="M42.0057 56H23.0057V62H42.0057V56Z" fill="black"/>
<path d="M42.0057 56H23.0057V62H42.0057V56Z" fill="url(#paint0_linear)"/>
<path d="M15.1727 2.45229L1.73761 15.8873L5.27315 19.4229L18.7082 5.98783L15.1727 2.45229Z" fill="black"/>
<path d="M15.1727 2.45229L1.73761 15.8873L5.27315 19.4229L18.7082 5.98783L15.1727 2.45229Z" fill="url(#paint1_linear)"/>
<path d="M49.1127 2.32178L45.5771 5.8573L59.0122 19.2924L62.5477 15.7568L49.1127 2.32178Z" fill="black"/>
<path d="M49.1127 2.32178L45.5771 5.8573L59.0122 19.2924L62.5477 15.7568L49.1127 2.32178Z" fill="url(#paint2_linear)"/>
<path d="M44.5563 9.7066L41.865 9.59253C41.089 9.48299 40.2981 9.55529 39.5548 9.80375C38.8115 10.0522 38.1361 10.47 37.5819 11.0242L32.0774 16.5286L26.3239 10.7751C25.8243 10.287 25.2011 9.94445 24.5213 9.78429C23.8415 9.62412 23.1309 9.65243 22.466 9.86615C21.8388 10.0569 21.1715 10.0736 20.5355 9.91457C19.8994 9.75549 19.3186 9.42658 18.855 8.963L18.0011 8.10912L7.39447 18.7157L9.12247 20.4437L9.00839 23.1349C8.89885 23.911 8.97115 24.7019 9.2196 25.4452C9.46805 26.1885 9.88584 26.8639 10.44 27.4181L20.0524 37.0305C20.1809 35.7687 20.7855 34.6033 21.7431 33.7716L18.7482 30.7767L19.4553 30.0696L22.5835 33.1978C23.0269 32.9454 23.5067 32.763 24.0059 32.6572V28.9633L22.2837 27.2411L22.9908 26.534L24.0059 27.5491V22.1992C23.9947 21.3149 24.3086 20.4573 24.8878 19.7891C25.4671 19.1209 26.2715 18.6886 27.1484 18.5742C27.4792 18.5421 27.8127 18.5572 28.1392 18.619L26.9097 17.3895L27.6169 16.6824L29.413 18.4786C29.7311 17.8622 30.2232 17.3528 30.8283 17.0136C31.4333 16.6744 32.1246 16.5202 32.8164 16.5703C33.6513 16.6678 34.4258 17.0543 35.0056 17.6629C35.5854 18.2715 35.9341 19.0637 35.9912 19.9023C36.5595 19.6322 37.1893 19.5176 37.8164 19.5703C38.7075 19.677 39.5272 20.1108 40.1165 20.7876C40.7059 21.4645 41.0228 22.3361 41.0058 23.2334V26.6572C41.9159 26.8473 42.755 27.2872 43.4291 27.9275C44.1031 28.5678 44.5855 29.3833 44.8219 30.2824L47.6105 27.4939L48.3176 28.201L45.0023 31.5163C45.0024 31.53 45.0059 31.5428 45.0059 31.5566V34.8767C45.9043 34.7827 46.7436 34.3845 47.3848 33.7482L54.2249 26.9081C54.713 26.4085 55.0556 25.7853 55.2157 25.1055C55.3759 24.4257 55.3475 23.7151 55.1338 23.0502C54.943 22.423 54.9263 21.7557 55.0854 21.1196C55.2445 20.4836 55.5734 19.9027 56.037 19.4391L56.8909 18.5853L46.2843 7.97864L44.5563 9.7066Z" fill="black"/>
<path d="M44.5563 9.7066L41.865 9.59253C41.089 9.48299 40.2981 9.55529 39.5548 9.80375C38.8115 10.0522 38.1361 10.47 37.5819 11.0242L32.0774 16.5286L26.3239 10.7751C25.8243 10.287 25.2011 9.94445 24.5213 9.78429C23.8415 9.62412 23.1309 9.65243 22.466 9.86615C21.8388 10.0569 21.1715 10.0736 20.5355 9.91457C19.8994 9.75549 19.3186 9.42658 18.855 8.963L18.0011 8.10912L7.39447 18.7157L9.12247 20.4437L9.00839 23.1349C8.89885 23.911 8.97115 24.7019 9.2196 25.4452C9.46805 26.1885 9.88584 26.8639 10.44 27.4181L20.0524 37.0305C20.1809 35.7687 20.7855 34.6033 21.7431 33.7716L18.7482 30.7767L19.4553 30.0696L22.5835 33.1978C23.0269 32.9454 23.5067 32.763 24.0059 32.6572V28.9633L22.2837 27.2411L22.9908 26.534L24.0059 27.5491V22.1992C23.9947 21.3149 24.3086 20.4573 24.8878 19.7891C25.4671 19.1209 26.2715 18.6886 27.1484 18.5742C27.4792 18.5421 27.8127 18.5572 28.1392 18.619L26.9097 17.3895L27.6169 16.6824L29.413 18.4786C29.7311 17.8622 30.2232 17.3528 30.8283 17.0136C31.4333 16.6744 32.1246 16.5202 32.8164 16.5703C33.6513 16.6678 34.4258 17.0543 35.0056 17.6629C35.5854 18.2715 35.9341 19.0637 35.9912 19.9023C36.5595 19.6322 37.1893 19.5176 37.8164 19.5703C38.7075 19.677 39.5272 20.1108 40.1165 20.7876C40.7059 21.4645 41.0228 22.3361 41.0058 23.2334V26.6572C41.9159 26.8473 42.755 27.2872 43.4291 27.9275C44.1031 28.5678 44.5855 29.3833 44.8219 30.2824L47.6105 27.4939L48.3176 28.201L45.0023 31.5163C45.0024 31.53 45.0059 31.5428 45.0059 31.5566V34.8767C45.9043 34.7827 46.7436 34.3845 47.3848 33.7482L54.2249 26.9081C54.713 26.4085 55.0556 25.7853 55.2157 25.1055C55.3759 24.4257 55.3475 23.7151 55.1338 23.0502C54.943 22.423 54.9263 21.7557 55.0854 21.1196C55.2445 20.4836 55.5734 19.9027 56.037 19.4391L56.8909 18.5853L46.2843 7.97864L44.5563 9.7066Z" fill="url(#paint3_linear)"/>
<path d="M29.8804 21.6895C29.8044 21.0399 29.476 20.4462 28.966 20.0367C28.4559 19.6272 27.8053 19.4347 27.1546 19.5009C26.5234 19.588 25.9463 19.904 25.5329 20.3888C25.1194 20.8736 24.8986 21.4935 24.9124 22.1305V33.4879C23.8515 33.4879 22.8341 33.9093 22.0839 34.6594C21.3338 35.4096 20.9124 36.427 20.9124 37.4879V47.1613C20.9205 47.8597 21.1189 48.5426 21.4864 49.1365C21.8538 49.7304 22.3763 50.2129 22.9976 50.5319C23.576 50.8406 24.0597 51.3006 24.3969 51.8628C24.7342 52.425 24.9123 53.0683 24.9124 53.7239V54.9315H39.9124V52.4879L41.896 50.6655C42.5222 50.1942 43.0303 49.5838 43.3803 48.8825C43.7302 48.1812 43.9123 47.4082 43.9124 46.6245V31.4879C43.9124 30.427 43.4909 29.4096 42.7408 28.6594C41.9906 27.9093 40.9732 27.4879 39.9124 27.4879V23.1653C39.9293 22.518 39.7062 21.8874 39.286 21.3949C38.8657 20.9024 38.2781 20.5828 37.6362 20.4977C37.0063 20.442 36.3787 20.6279 35.8807 21.0177C35.3826 21.4074 35.0513 21.9719 34.9539 22.5967H35.4124V38.0401H34.4124V22.5967H34.9124V20.1653C34.9293 19.518 34.7062 18.8874 34.286 18.3949C33.8657 17.9024 33.2781 17.5828 32.6362 17.4977C32.2904 17.4666 31.942 17.508 31.613 17.619C31.2841 17.73 30.9819 17.9084 30.7256 18.1426C30.4694 18.3769 30.2647 18.6619 30.1247 18.9796C29.9847 19.2973 29.9124 19.6407 29.9124 19.9879V21.6895H30.4124V37.1329H29.4124V21.6895H29.8804ZM25.3115 42.0401H24.3115V34.0401H25.3115V42.0401ZM39.4124 27.7983H40.4124V38.2417H39.4124V27.7983Z" fill="black"/>
<path d="M29.8804 21.6895C29.8044 21.0399 29.476 20.4462 28.966 20.0367C28.4559 19.6272 27.8053 19.4347 27.1546 19.5009C26.5234 19.588 25.9463 19.904 25.5329 20.3888C25.1194 20.8736 24.8986 21.4935 24.9124 22.1305V33.4879C23.8515 33.4879 22.8341 33.9093 22.0839 34.6594C21.3338 35.4096 20.9124 36.427 20.9124 37.4879V47.1613C20.9205 47.8597 21.1189 48.5426 21.4864 49.1365C21.8538 49.7304 22.3763 50.2129 22.9976 50.5319C23.576 50.8406 24.0597 51.3006 24.3969 51.8628C24.7342 52.425 24.9123 53.0683 24.9124 53.7239V54.9315H39.9124V52.4879L41.896 50.6655C42.5222 50.1942 43.0303 49.5838 43.3803 48.8825C43.7302 48.1812 43.9123 47.4082 43.9124 46.6245V31.4879C43.9124 30.427 43.4909 29.4096 42.7408 28.6594C41.9906 27.9093 40.9732 27.4879 39.9124 27.4879V23.1653C39.9293 22.518 39.7062 21.8874 39.286 21.3949C38.8657 20.9024 38.2781 20.5828 37.6362 20.4977C37.0063 20.442 36.3787 20.6279 35.8807 21.0177C35.3826 21.4074 35.0513 21.9719 34.9539 22.5967H35.4124V38.0401H34.4124V22.5967H34.9124V20.1653C34.9293 19.518 34.7062 18.8874 34.286 18.3949C33.8657 17.9024 33.2781 17.5828 32.6362 17.4977C32.2904 17.4666 31.942 17.508 31.613 17.619C31.2841 17.73 30.9819 17.9084 30.7256 18.1426C30.4694 18.3769 30.2647 18.6619 30.1247 18.9796C29.9847 19.2973 29.9124 19.6407 29.9124 19.9879V21.6895H30.4124V37.1329H29.4124V21.6895H29.8804ZM25.3115 42.0401H24.3115V34.0401H25.3115V42.0401ZM39.4124 27.7983H40.4124V38.2417H39.4124V27.7983Z" fill="url(#paint4_linear)"/>
<defs>
<linearGradient id="paint0_linear" x1="32.5057" y1="56" x2="32.5057" y2="62" gradientUnits="userSpaceOnUse">
<stop stop-color="#EF8080"/>
<stop offset="1" stop-color="#F0145A"/>
</linearGradient>
<linearGradient id="paint1_linear" x1="8.45513" y1="9.16981" x2="11.9907" y2="12.7053" gradientUnits="userSpaceOnUse">
<stop stop-color="#EF8080"/>
<stop offset="1" stop-color="#F0145A"/>
</linearGradient>
<linearGradient id="paint2_linear" x1="47.3449" y1="4.08954" x2="60.78" y2="17.5246" gradientUnits="userSpaceOnUse">
<stop stop-color="#EF8080"/>
<stop offset="1" stop-color="#F0145A"/>
</linearGradient>
<linearGradient id="paint3_linear" x1="32.1427" y1="7.97864" x2="32.1427" y2="37.0305" gradientUnits="userSpaceOnUse">
<stop stop-color="#EF8080"/>
<stop offset="1" stop-color="#F0145A"/>
</linearGradient>
<linearGradient id="paint4_linear" x1="32.4124" y1="17.4877" x2="32.4124" y2="54.9315" gradientUnits="userSpaceOnUse">
<stop stop-color="#EF8080"/>
<stop offset="1" stop-color="#F0145A"/>
</linearGradient>
</defs>
</svg>
