<svg width="156" height="47" viewBox="0 0 156 47" fill="none" xmlns="http://www.w3.org/2000/svg">
<path d="M38.4785 26.8896C38.4785 28.8564 37.8105 30.5264 36.5117 31.8809C35.2129 33.2354 33.6357 33.9033 31.8174 33.9033C29.999 33.9033 28.4219 33.2354 27.123 31.8623C25.8242 30.4893 25.1748 28.8379 25.1748 26.8711C25.1748 24.9043 25.8242 23.2529 27.123 21.8984C28.4219 20.5439 29.999 19.8574 31.8174 19.8574C33.6357 19.8574 35.2129 20.5439 36.5117 21.8984C37.8105 23.2529 38.4785 24.9229 38.4785 26.8896ZM22.5215 26.8896C22.5215 29.5615 23.4121 31.8066 25.2305 33.6436C27.0488 35.4619 29.2383 36.3896 31.8359 36.3896C34.415 36.3896 36.6045 35.4619 38.4043 33.6436C40.2227 31.8066 41.1133 29.5615 41.1133 26.8896C41.1133 24.2178 40.2227 21.9727 38.4043 20.1357C36.6045 18.2988 34.415 17.3711 31.8359 17.3711C29.2383 17.3711 27.0488 18.2988 25.2305 20.1357C23.4121 21.9727 22.5215 24.2178 22.5215 26.8896ZM66.2363 36H68.9082V17.7607H66.2363V25.5537H55.79V17.7607H53.1367V36H55.79V28.0215H66.2363V36ZM78.9834 25.5537C77.2578 25.8506 75.9404 26.4629 75.0312 27.3906C74.1035 28.3184 73.6582 29.543 73.6582 31.0645C73.6582 32.4561 74.2705 33.6807 75.5137 34.7568C76.7568 35.833 78.2969 36.3711 80.1152 36.3711C80.8389 36.3711 81.5439 36.2783 82.2305 36.0742C82.917 35.8887 83.4736 35.666 83.9004 35.4062C84.3086 35.1465 84.6982 34.8682 85.0693 34.5342C85.4404 34.2002 85.6631 33.9775 85.7744 33.8477C85.8857 33.7178 85.96 33.6064 86.0156 33.5322V36H88.6689V24.4033C88.6689 22.418 87.9824 20.748 86.6094 19.3936C85.2363 18.0576 83.5293 17.3711 81.4512 17.3711C80.6348 17.3711 79.8184 17.501 79.0391 17.7422C78.2598 17.9834 77.6289 18.2617 77.1465 18.5586C76.6641 18.874 76.2002 19.2266 75.7549 19.6162C75.3096 20.0059 75.0312 20.2842 74.9014 20.4326C74.7715 20.5811 74.6787 20.7109 74.6045 20.8037L76.3115 22.5107L76.8867 21.8613C77.2578 21.416 77.8701 20.9707 78.7236 20.5254C79.5771 20.0801 80.4863 19.8574 81.4512 19.8574C82.7871 19.8574 83.8818 20.2842 84.7354 21.1191C85.5889 21.9727 86.0156 23.0674 86.0156 24.4033L78.9834 25.5537ZM80.1152 33.9033C78.9277 33.9033 77.9814 33.6436 77.3135 33.1055C76.6455 32.5674 76.3115 31.8809 76.3115 31.0645C76.3115 29.3574 77.4619 28.2812 79.7441 27.8359L86.0156 26.6855V27.8359C86.0156 29.6357 85.459 31.1016 84.3457 32.2148C83.2324 33.3467 81.8223 33.9033 80.1152 33.9033ZM93.4004 26.8711C93.4004 29.5059 94.291 31.751 96.0908 33.6064C97.8721 35.4619 100.024 36.3711 102.511 36.3711C103.401 36.3711 104.273 36.2412 105.127 35.9629C105.98 35.6846 106.686 35.3877 107.224 35.0537C107.78 34.7197 108.3 34.3486 108.782 33.9219C109.283 33.4951 109.617 33.1982 109.766 33.0127C109.914 32.8271 110.025 32.6973 110.1 32.5859L108.207 30.8789L107.595 31.6211C107.168 32.1406 106.481 32.6416 105.535 33.1426C104.57 33.6621 103.568 33.9033 102.511 33.9033C100.767 33.9033 99.2451 33.2354 97.9648 31.8809C96.6846 30.5264 96.0537 28.8564 96.0537 26.8896C96.0537 24.9229 96.6846 23.2529 97.9648 21.8984C99.2451 20.5439 100.767 19.8574 102.511 19.8574C103.197 19.8574 103.865 19.9688 104.496 20.1729C105.127 20.3955 105.628 20.6367 106.036 20.8965C106.426 21.1562 106.797 21.4717 107.131 21.8242C107.465 22.1953 107.688 22.4365 107.78 22.5664C107.892 22.7148 107.966 22.8076 108.003 22.8818L109.914 20.9893L109.116 20.1172C108.597 19.5234 107.706 18.9111 106.481 18.2988C105.257 17.6865 103.921 17.3711 102.492 17.3711C100.024 17.3711 97.8906 18.2988 96.0908 20.1543C94.291 22.0098 93.4004 24.2363 93.4004 26.8711Z" fill="#323264"/>
<path fill-rule="evenodd" clip-rule="evenodd" d="M144.258 26.1452H132.329L137.585 10.1537L143.532 10.1888L140.079 20.7351L146.008 20.7386L144.258 26.1452Z" fill="url(#paint0_linear)"/>
<path fill-rule="evenodd" clip-rule="evenodd" d="M119.904 46.9044H114C114 46.9044 124.754 13.794 127.266 6.06476C128.441 2.44844 131.809 0 135.609 0H146.165C149.348 0 152.005 1.34505 153.657 3.61793C155.307 5.89094 155.776 8.79933 154.813 11.7664C153.849 14.7334 152.939 17.5342 152.105 20.1004C150.98 23.5654 147.863 25.953 144.259 26.1471C144.259 26.1471 144.24 26.1411 149.29 10.5924C149.736 9.22026 149.573 7.8772 148.873 6.91395C148.173 5.95083 146.993 5.3808 145.432 5.3808H136.374C134.596 5.3808 133.02 6.52656 132.47 8.21887L119.904 46.9044Z" fill="#F0145A"/>
<path fill-rule="evenodd" clip-rule="evenodd" d="M15.2268 0H21.0714L5.84464 46.8434H0L15.2268 0Z" fill="#F0145A"/>
<defs>
<linearGradient id="paint0_linear" x1="132.328" y1="23.0823" x2="145.6" y2="30.0167" gradientUnits="userSpaceOnUse">
<stop stop-color="#F0145A"/>
<stop offset="1" stop-color="#693264"/>
</linearGradient>
</defs>
</svg>
