<svg width="211" height="47" viewBox="0 0 211 47" fill="none" xmlns="http://www.w3.org/2000/svg">
<path d="M26.5107 30.8789L30.1289 27.0752L36.5859 36H39.6289L31.8359 25.1641L38.8682 17.7607H35.6211L26.5107 27.4463V17.7607H23.8574V36H26.5107V30.8789ZM56.8848 26.8896C56.8848 28.8564 56.2168 30.5264 54.918 31.8809C53.6191 33.2354 52.042 33.9033 50.2236 33.9033C48.4053 33.9033 46.8281 33.2354 45.5293 31.8623C44.2305 30.4893 43.5811 28.8379 43.5811 26.8711C43.5811 24.9043 44.2305 23.2529 45.5293 21.8984C46.8281 20.5439 48.4053 19.8574 50.2236 19.8574C52.042 19.8574 53.6191 20.5439 54.918 21.8984C56.2168 23.2529 56.8848 24.9229 56.8848 26.8896ZM40.9277 26.8896C40.9277 29.5615 41.8184 31.8066 43.6367 33.6436C45.4551 35.4619 47.6445 36.3896 50.2422 36.3896C52.8213 36.3896 55.0107 35.4619 56.8105 33.6436C58.6289 31.8066 59.5195 29.5615 59.5195 26.8896C59.5195 24.2178 58.6289 21.9727 56.8105 20.1357C55.0107 18.2988 52.8213 17.3711 50.2422 17.3711C47.6445 17.3711 45.4551 18.2988 43.6367 20.1357C41.8184 21.9727 40.9277 24.2178 40.9277 26.8896ZM80.2637 22.5107V36H82.917V17.7607H80.8203L73.6025 26.8711L66.3848 17.7607H64.3066V36H66.96V22.5107L73.6025 30.8789L80.2637 22.5107ZM93.0107 25.5537C91.2852 25.8506 89.9678 26.4629 89.0586 27.3906C88.1309 28.3184 87.6855 29.543 87.6855 31.0645C87.6855 32.4561 88.2979 33.6807 89.541 34.7568C90.7842 35.833 92.3242 36.3711 94.1426 36.3711C94.8662 36.3711 95.5713 36.2783 96.2578 36.0742C96.9443 35.8887 97.501 35.666 97.9277 35.4062C98.3359 35.1465 98.7256 34.8682 99.0967 34.5342C99.4678 34.2002 99.6904 33.9775 99.8018 33.8477C99.9131 33.7178 99.9873 33.6064 100.043 33.5322V36H102.696V24.4033C102.696 22.418 102.01 20.748 100.637 19.3936C99.2637 18.0576 97.5566 17.3711 95.4785 17.3711C94.6621 17.3711 93.8457 17.501 93.0664 17.7422C92.2871 17.9834 91.6562 18.2617 91.1738 18.5586C90.6914 18.874 90.2275 19.2266 89.7822 19.6162C89.3369 20.0059 89.0586 20.2842 88.9287 20.4326C88.7988 20.5811 88.7061 20.7109 88.6318 20.8037L90.3389 22.5107L90.9141 21.8613C91.2852 21.416 91.8975 20.9707 92.751 20.5254C93.6045 20.0801 94.5137 19.8574 95.4785 19.8574C96.8145 19.8574 97.9092 20.2842 98.7627 21.1191C99.6162 21.9727 100.043 23.0674 100.043 24.4033L93.0107 25.5537ZM94.1426 33.9033C92.9551 33.9033 92.0088 33.6436 91.3408 33.1055C90.6729 32.5674 90.3389 31.8809 90.3389 31.0645C90.3389 29.3574 91.4893 28.2812 93.7715 27.8359L100.043 26.6855V27.8359C100.043 29.6357 99.4863 31.1016 98.373 32.2148C97.2598 33.3467 95.8496 33.9033 94.1426 33.9033ZM121.863 36H124.535V17.7607H121.863V25.5537H111.417V17.7607H108.764V36H111.417V28.0215H121.863V36ZM147.524 33.5322H144.667V17.7607H132.143V23.0859C132.143 24.4219 132.013 25.7207 131.79 26.9453C131.567 28.1699 131.308 29.1533 131.011 29.8955C130.714 30.6377 130.398 31.3057 130.027 31.9365C129.656 32.5674 129.378 32.9756 129.229 33.1611C129.081 33.3467 128.97 33.458 128.896 33.5322H127.578V40.5645H130.231V36H144.871V40.5645H147.524V33.5322ZM134.796 20.2285H142.014V33.5322H131.753L132.514 32.4746C133.015 31.7695 133.516 30.5449 134.017 28.8008C134.536 27.0752 134.777 25.1641 134.777 23.0859L134.796 20.2285ZM155.688 25.5537C153.963 25.8506 152.646 26.4629 151.736 27.3906C150.809 28.3184 150.363 29.543 150.363 31.0645C150.363 32.4561 150.976 33.6807 152.219 34.7568C153.462 35.833 155.002 36.3711 156.82 36.3711C157.544 36.3711 158.249 36.2783 158.936 36.0742C159.622 35.8887 160.179 35.666 160.605 35.4062C161.014 35.1465 161.403 34.8682 161.774 34.5342C162.146 34.2002 162.368 33.9775 162.479 33.8477C162.591 33.7178 162.665 33.6064 162.721 33.5322V36H165.374V24.4033C165.374 22.418 164.688 20.748 163.314 19.3936C161.941 18.0576 160.234 17.3711 158.156 17.3711C157.34 17.3711 156.523 17.501 155.744 17.7422C154.965 17.9834 154.334 18.2617 153.852 18.5586C153.369 18.874 152.905 19.2266 152.46 19.6162C152.015 20.0059 151.736 20.2842 151.606 20.4326C151.477 20.5811 151.384 20.7109 151.31 20.8037L153.017 22.5107L153.592 21.8613C153.963 21.416 154.575 20.9707 155.429 20.5254C156.282 20.0801 157.191 19.8574 158.156 19.8574C159.492 19.8574 160.587 20.2842 161.44 21.1191C162.294 21.9727 162.721 23.0674 162.721 24.4033L155.688 25.5537ZM156.82 33.9033C155.633 33.9033 154.687 33.6436 154.019 33.1055C153.351 32.5674 153.017 31.8809 153.017 31.0645C153.017 29.3574 154.167 28.2812 156.449 27.8359L162.721 26.6855V27.8359C162.721 29.6357 162.164 31.1016 161.051 32.2148C159.938 33.3467 158.527 33.9033 156.82 33.9033Z" fill="#323264"/>
<path fill-rule="evenodd" clip-rule="evenodd" d="M199.258 26.1452H187.329L192.585 10.1537L198.532 10.1888L195.079 20.7351L201.008 20.7386L199.258 26.1452Z" fill="url(#paint0_linear)"/>
<path fill-rule="evenodd" clip-rule="evenodd" d="M174.904 46.9044H169C169 46.9044 179.754 13.794 182.266 6.06476C183.441 2.44844 186.809 0 190.609 0H201.165C204.348 0 207.005 1.34505 208.657 3.61793C210.307 5.89094 210.776 8.79933 209.813 11.7664C208.849 14.7334 207.939 17.5342 207.105 20.1004C205.98 23.5654 202.863 25.953 199.259 26.1471C199.259 26.1471 199.24 26.1411 204.29 10.5924C204.736 9.22026 204.573 7.8772 203.873 6.91395C203.173 5.95083 201.993 5.3808 200.432 5.3808H191.374C189.596 5.3808 188.02 6.52656 187.47 8.21887L174.904 46.9044Z" fill="#F0145A"/>
<path fill-rule="evenodd" clip-rule="evenodd" d="M15.2268 0H21.0714L5.84464 46.8434H0L15.2268 0Z" fill="#F0145A"/>
<defs>
<linearGradient id="paint0_linear" x1="187.328" y1="23.0823" x2="200.6" y2="30.0167" gradientUnits="userSpaceOnUse">
<stop stop-color="#F0145A"/>
<stop offset="1" stop-color="#693264"/>
</linearGradient>
</defs>
</svg>
