<svg width="230" height="47" viewBox="0 0 230 47" fill="none" xmlns="http://www.w3.org/2000/svg">
<path d="M36.957 36H39.6289V17.7607H23.8574V36H26.5107V20.2656H36.957V36ZM49.7041 38.6533C49.0176 40.5645 47.8672 41.5107 46.2529 41.5107C45.6221 41.5107 44.9912 41.3809 44.3604 41.1211V43.6074L44.6201 43.6816C44.8057 43.7559 45.1025 43.8301 45.4736 43.8857C45.8447 43.96 46.2344 43.9785 46.6426 43.9785C47.96 43.9785 49.0547 43.5889 49.9268 42.7725C50.7803 41.9561 51.5967 40.583 52.3574 38.6533L60.7256 17.7607H57.8682L51.9863 32.5859L46.0859 17.7607H43.2285L50.6504 36L49.7041 38.6533ZM81.6182 27.2607C81.6182 24.7373 80.7646 22.585 79.0576 20.8037C77.3506 19.0225 75.291 18.1318 72.8789 18.1318C72.0625 18.1318 71.2832 18.2803 70.541 18.54C69.7988 18.7998 69.1865 19.0967 68.7227 19.4121C68.2402 19.7461 67.8135 20.0986 67.4238 20.5068C67.0342 20.915 66.7744 21.1934 66.6631 21.3604C66.5518 21.5273 66.459 21.6572 66.4219 21.75C66.5146 19.1895 67.1826 17.167 68.4072 15.6826C69.6318 14.1982 71.2646 13.2334 73.2686 12.8252C77.0537 12.083 79.4658 11.248 80.4863 10.3574L79.1504 8.26074L78.5938 8.59473C78.2227 8.83594 77.5176 9.13281 76.4785 9.48535C75.4209 9.85645 74.2148 10.1348 72.8789 10.3574C66.6816 11.4707 63.583 16.2207 63.583 24.6074C63.583 28.3555 64.418 31.2686 66.125 33.3096C67.8135 35.3506 70.0029 36.3711 72.6934 36.3711C75.1797 36.3711 77.2764 35.499 79.0205 33.7363C80.7461 31.9922 81.6182 29.8213 81.6182 27.2607ZM66.4219 27.2607C66.4219 25.3867 67.0342 23.8096 68.2588 22.5293C69.4834 21.2676 70.9678 20.6182 72.6934 20.6182C74.4004 20.6182 75.8848 21.2676 77.1094 22.5293C78.334 23.8096 78.9648 25.3867 78.9648 27.2607C78.9648 29.1533 78.334 30.7305 77.1094 31.9922C75.8848 33.2725 74.4004 33.9033 72.6934 33.9033C70.9678 33.9033 69.4834 33.2725 68.2588 31.9922C67.0342 30.7305 66.4219 29.1533 66.4219 27.2607ZM88.4648 17.7607V23.0859C88.4648 26.0732 88.2979 28.374 88.001 29.9883C87.7041 31.584 87.333 32.623 86.8877 33.0684C86.4424 33.5137 85.8301 33.7363 85.0508 33.7363C84.5312 33.7363 84.0303 33.6064 83.5293 33.3652V36.0186L83.7891 36.0928C83.9375 36.167 84.1602 36.2227 84.4756 36.2969C84.791 36.3525 85.1064 36.3896 85.4219 36.3896C86.3311 36.3896 87.1104 36.2041 87.7598 35.833C88.3906 35.4619 88.9844 34.8125 89.5225 33.8848C90.042 32.957 90.4502 31.584 90.71 29.8027C90.9697 28.0215 91.1182 25.7764 91.1182 23.1045V20.2471H99.0967V36.0186H101.769V17.7793L88.4648 17.7607ZM107.836 36H110.489V17.7607H107.836V36ZM107.446 11.6748C107.446 12.1572 107.595 12.5654 107.929 12.8994C108.263 13.2334 108.671 13.3818 109.153 13.3818C109.636 13.3818 110.025 13.2334 110.359 12.8994C110.693 12.5654 110.86 12.1572 110.86 11.6748C110.86 11.1924 110.693 10.8027 110.359 10.4688C110.025 10.1348 109.636 9.96777 109.153 9.96777C108.671 9.96777 108.263 10.1348 107.929 10.4688C107.595 10.8027 107.446 11.1924 107.446 11.6748ZM119.247 30.8789L122.865 27.0752L129.322 36H132.365L124.572 25.1641L131.604 17.7607H128.357L119.247 27.4463V17.7607H116.594V36H119.247V30.8789ZM139.769 25.5537C138.043 25.8506 136.726 26.4629 135.816 27.3906C134.889 28.3184 134.443 29.543 134.443 31.0645C134.443 32.4561 135.056 33.6807 136.299 34.7568C137.542 35.833 139.082 36.3711 140.9 36.3711C141.624 36.3711 142.329 36.2783 143.016 36.0742C143.702 35.8887 144.259 35.666 144.686 35.4062C145.094 35.1465 145.483 34.8682 145.854 34.5342C146.226 34.2002 146.448 33.9775 146.56 33.8477C146.671 33.7178 146.745 33.6064 146.801 33.5322V36H149.454V24.4033C149.454 22.418 148.768 20.748 147.395 19.3936C146.021 18.0576 144.314 17.3711 142.236 17.3711C141.42 17.3711 140.604 17.501 139.824 17.7422C139.045 17.9834 138.414 18.2617 137.932 18.5586C137.449 18.874 136.985 19.2266 136.54 19.6162C136.095 20.0059 135.816 20.2842 135.687 20.4326C135.557 20.5811 135.464 20.7109 135.39 20.8037L137.097 22.5107L137.672 21.8613C138.043 21.416 138.655 20.9707 139.509 20.5254C140.362 20.0801 141.271 19.8574 142.236 19.8574C143.572 19.8574 144.667 20.2842 145.521 21.1191C146.374 21.9727 146.801 23.0674 146.801 24.4033L139.769 25.5537ZM140.9 33.9033C139.713 33.9033 138.767 33.6436 138.099 33.1055C137.431 32.5674 137.097 31.8809 137.097 31.0645C137.097 29.3574 138.247 28.2812 140.529 27.8359L146.801 26.6855V27.8359C146.801 29.6357 146.244 31.1016 145.131 32.2148C144.018 33.3467 142.607 33.9033 140.9 33.9033ZM155.521 36H171.089V40.5645H173.761V33.5322H170.903V17.7607H168.25V33.5322H158.175V17.7607H155.521V36ZM177.936 36H180.589V17.7607H177.936V36ZM177.546 11.6748C177.546 12.1572 177.694 12.5654 178.028 12.8994C178.362 13.2334 178.771 13.3818 179.253 13.3818C179.735 13.3818 180.125 13.2334 180.459 12.8994C180.793 12.5654 180.96 12.1572 180.96 11.6748C180.96 11.1924 180.793 10.8027 180.459 10.4688C180.125 10.1348 179.735 9.96777 179.253 9.96777C178.771 9.96777 178.362 10.1348 178.028 10.4688C177.694 10.8027 177.546 11.1924 177.546 11.6748ZM182.704 11.9902C182.704 12.4727 182.853 12.8809 183.187 13.2148C183.521 13.5488 183.929 13.6973 184.411 13.6973C184.894 13.6973 185.283 13.5488 185.617 13.2148C185.951 12.8809 186.118 12.4727 186.118 11.9902C186.118 11.5078 185.951 11.1182 185.617 10.7842C185.283 10.4502 184.894 10.2832 184.411 10.2832C183.929 10.2832 183.521 10.4502 183.187 10.7842C182.853 11.1182 182.704 11.5078 182.704 11.9902ZM189.922 11.9902C189.922 12.4727 190.07 12.8809 190.404 13.2148C190.738 13.5488 191.146 13.6973 191.629 13.6973C192.111 13.6973 192.501 13.5488 192.835 13.2148C193.169 12.8809 193.336 12.4727 193.336 11.9902C193.336 11.5078 193.169 11.1182 192.835 10.7842C192.501 10.4502 192.111 10.2832 191.629 10.2832C191.146 10.2832 190.738 10.4502 190.404 10.7842C190.07 11.1182 189.922 11.5078 189.922 11.9902ZM186.693 36H189.347V17.7607H186.693V36Z" fill="#323264"/>
<path fill-rule="evenodd" clip-rule="evenodd" d="M218.258 26.1454H206.329L211.585 10.1538L217.532 10.189L214.079 20.7352L220.008 20.7387L218.258 26.1454Z" fill="url(#paint0_linear)"/>
<path fill-rule="evenodd" clip-rule="evenodd" d="M193.904 46.9044H188C188 46.9044 198.754 13.794 201.266 6.06476C202.441 2.44844 205.809 0 209.609 0H220.165C223.348 0 226.005 1.34505 227.657 3.61793C229.307 5.89094 229.776 8.79933 228.813 11.7664C227.849 14.7334 226.939 17.5342 226.105 20.1004C224.98 23.5654 221.863 25.953 218.259 26.1471C218.259 26.1471 218.24 26.1411 223.29 10.5924C223.736 9.22026 223.573 7.8772 222.873 6.91395C222.173 5.95083 220.993 5.3808 219.432 5.3808H210.374C208.596 5.3808 207.02 6.52656 206.47 8.21887L193.904 46.9044Z" fill="#F0145A"/>
<path fill-rule="evenodd" clip-rule="evenodd" d="M15.2268 0H21.0714L5.84464 46.8434H0L15.2268 0Z" fill="#F0145A"/>
<defs>
<linearGradient id="paint0_linear" x1="206.328" y1="23.0824" x2="219.6" y2="30.0168" gradientUnits="userSpaceOnUse">
<stop stop-color="#F0145A"/>
<stop offset="1" stop-color="#693264"/>
</linearGradient>
</defs>
</svg>
