<svg width="419" height="63" viewBox="0 0 419 63" fill="none" xmlns="http://www.w3.org/2000/svg">
<g clip-path="url(#clip0)">
<path d="M10.3513 58.0912C10.3513 56.9798 9.9699 56.0428 9.21807 55.2691C8.46624 54.4955 7.55097 54.1142 6.48316 54.1142C5.51341 54.1142 4.67441 54.4192 3.96617 55.0403C3.26882 55.6505 2.83298 56.3914 2.66953 57.274H1.63441V54.2776H0V61.9048H1.63441V58.7995H2.66953C2.83298 59.7256 3.26882 60.5101 3.96617 61.1312C4.66351 61.7523 5.50251 62.0683 6.48316 62.0683C7.55097 62.0683 8.46624 61.6869 9.21807 60.9133C9.9699 60.1506 10.3513 59.2026 10.3513 58.0912ZM8.71685 58.0912C8.71685 58.8104 8.49893 59.4096 8.06309 59.8782C7.61635 60.3576 7.09334 60.5973 6.48316 60.5973C5.87298 60.5973 5.34997 60.3576 4.91412 59.8782C4.46738 59.4096 4.24946 58.8104 4.24946 58.0912C4.24946 57.3721 4.46738 56.7728 4.91412 56.2934C5.34997 55.8248 5.87298 55.5851 6.48316 55.5851C7.09334 55.5851 7.61635 55.8248 8.06309 56.2934C8.49893 56.7728 8.71685 57.3721 8.71685 58.0912Z" fill="#46466E"/>
<path d="M12.9604 54.2781V61.9054H14.5949V59.3993H16.1748C16.9593 59.3993 17.6131 59.1487 18.1252 58.6583C18.6373 58.168 18.8988 57.5578 18.8988 56.8387C18.8988 56.1087 18.6373 55.5094 18.1252 55.0082C17.6022 54.5178 16.9593 54.2781 16.1748 54.2781H12.9604ZM16.1203 55.7491C16.4472 55.7491 16.7196 55.858 16.9375 56.0651C17.1554 56.2721 17.2644 56.5336 17.2644 56.8387C17.2644 57.1438 17.1554 57.4053 16.9375 57.6123C16.7196 57.8193 16.4472 57.9283 16.1203 57.9283H14.5949V55.7491H16.1203Z" fill="#46466E"/>
<path d="M28.2617 61.9054V54.2781H26.8452L23.0861 59.1269V54.2781H21.4517V61.9054H22.8681L26.6273 57.0566V61.9054H28.2617Z" fill="#46466E"/>
<path d="M30.3247 60.4344V63.4853H31.9591V61.9054H36.5355V63.4853H38.1699V60.4344H37.2437V54.2781H31.9591V56.6208C31.9591 57.1329 31.9155 57.6123 31.8284 58.0591C31.7412 58.5167 31.6431 58.8763 31.5451 59.1487C31.4361 59.4102 31.3162 59.6499 31.1746 59.8787C31.033 60.0966 30.9458 60.2383 30.8913 60.3036C30.8259 60.3581 30.7932 60.4126 30.7605 60.4344H30.3247ZM33.5935 56.6208V55.7491H35.6093V60.4344H32.395L32.5257 60.3036C32.602 60.2165 32.7 60.0748 32.8199 59.8678C32.9398 59.6608 33.0487 59.4211 33.1686 59.1487C33.2884 58.8763 33.3865 58.5058 33.4628 58.0591C33.5499 57.6123 33.5935 57.1329 33.5935 56.6208Z" fill="#46466E"/>
<path d="M47.3115 61.9054V54.2781H45.895L42.1359 59.1269V54.2781H40.5015V61.9054H41.918L45.6771 57.0566V61.9054H47.3115Z" fill="#46466E"/>
<path d="M51.8815 54.2781H50.2471V56.6208C50.2471 57.536 50.4868 58.2443 50.9662 58.7455C51.4565 59.2576 52.1212 59.5082 52.9711 59.5082C53.7011 59.5082 54.3004 59.3666 54.7689 59.0724V61.9054H56.4033V54.2781H54.7689V57.4925L54.5837 57.6341C54.4638 57.7213 54.2786 57.8084 54.028 57.9065C53.7774 57.9937 53.5159 58.0373 53.2435 58.0373C52.8076 58.0373 52.4699 57.9174 52.2302 57.6777C52.0013 57.4271 51.8815 57.0784 51.8815 56.6208V54.2781Z" fill="#46466E"/>
<path d="M65.9859 54.2781H64.3515V57.329H61.0827V54.2781H59.4482V61.9054H61.0827V58.8H64.3515V61.9054H65.9859V54.2781Z" fill="#46466E"/>
<path d="M72.9549 58.691H71.1026L72.0288 56.1849L72.9549 58.691ZM73.4997 60.1075L74.1535 61.9054H75.8969L72.9004 54.2781H71.1571L68.1606 61.9054H69.904L70.5578 60.1075H73.4997Z" fill="#46466E"/>
<path d="M83.0221 54.2781H81.3877V61.9054H83.0221V59.7262L84.0027 58.6365L86.2364 61.9054H88.1432L85.0924 57.438L87.9253 54.2781H86.0185L83.0221 57.6014V54.2781Z" fill="#46466E"/>
<path d="M91.4614 58.0912C91.4614 57.3939 91.7011 56.7946 92.1805 56.3152C92.649 55.8248 93.2265 55.5851 93.913 55.5851C94.5994 55.5851 95.1769 55.8248 95.6454 56.3152C96.1249 56.7946 96.3646 57.3939 96.3646 58.0912C96.3646 58.7995 96.1249 59.3879 95.6454 59.8673C95.1769 60.3576 94.5994 60.5973 93.913 60.5973C93.2265 60.5973 92.649 60.3576 92.1805 59.8673C91.7011 59.3879 91.4614 58.7995 91.4614 58.0912ZM89.7725 58.0912C89.7725 59.1808 90.1756 60.1288 90.971 60.9024C91.7664 61.676 92.7471 62.0683 93.913 62.0683C95.0788 62.0683 96.0595 61.676 96.8549 60.9024C97.6503 60.1288 98.0535 59.1808 98.0535 58.0912C98.0535 56.9907 97.6503 56.0537 96.8549 55.28C96.0595 54.5064 95.0788 54.1142 93.913 54.1142C92.7471 54.1142 91.7664 54.5064 90.971 55.28C90.1756 56.0537 89.7725 56.9907 89.7725 58.0912Z" fill="#46466E"/>
<path d="M104.749 57.6014L102.134 54.2781H100.663V61.9054H102.297V56.8387L104.749 59.9441L107.2 56.8169V61.9054H108.835V54.2781H107.385L104.749 57.6014Z" fill="#46466E"/>
<path d="M118.36 54.2781H111.876V61.9054H113.511V55.7491H116.725V61.9054H118.36V54.2781Z" fill="#46466E"/>
<path d="M125.33 58.691H123.478L124.404 56.1849L125.33 58.691ZM125.875 60.1075L126.528 61.9054H128.272L125.275 54.2781H123.532L120.536 61.9054H122.279L122.933 60.1075H125.875Z" fill="#46466E"/>
<path d="M136.983 54.2781H135.349V57.329H132.08V54.2781H130.445V61.9054H132.08V58.8H135.349V61.9054H136.983V54.2781Z" fill="#46466E"/>
<path d="M141.662 54.2781H140.027V61.9054H141.662V54.2781Z" fill="#46466E"/>
<path d="M150.373 54.2781H146.995C146.232 54.2781 145.611 54.5178 145.121 54.9973C144.63 55.4767 144.38 56.076 144.38 56.7842C144.38 57.0893 144.434 57.3726 144.521 57.645C144.62 57.9174 144.728 58.1244 144.859 58.277C144.979 58.4295 145.11 58.5712 145.273 58.7019C145.426 58.8327 145.535 58.9198 145.6 58.9525C145.655 58.9743 145.709 59.007 145.742 59.0179L144.107 61.9054H145.851L147.322 59.2358H148.738V61.9054H150.373V54.2781ZM146.014 56.7842C146.014 56.4791 146.112 56.2394 146.308 56.0433C146.505 55.8472 146.755 55.7491 147.049 55.7491H148.738V57.7649H147.049C146.755 57.7649 146.505 57.6668 146.308 57.4816C146.112 57.2963 146.014 57.0566 146.014 56.7842Z" fill="#46466E"/>
<path d="M4.98113 1.00008H0V36.975H4.98113V23.6286C4.98113 21.3708 5.54273 19.5896 6.66593 18.3353C7.78912 17.0809 9.32741 16.4286 11.232 16.4286C12.8679 16.4286 14.2353 17.0307 15.3341 18.1847C16.4329 19.3638 16.9944 20.844 16.9944 22.6252V37.0001H22V22.6252C22 19.3137 21.0966 16.7046 19.2897 14.7478C17.4828 12.791 15.1143 11.8126 12.2331 11.8126C11.4029 11.8126 10.5727 11.913 9.76693 12.1388C8.93674 12.3645 8.27747 12.6154 7.74029 12.8914C7.20311 13.1673 6.69034 13.4684 6.22642 13.8196C5.76249 14.1708 5.44506 14.4217 5.29856 14.5722C5.15205 14.7227 5.02997 14.8231 4.98113 14.8983V1.00008Z" fill="#F0145A"/>
<path d="M33.135 1H28V36.945H33.135V1Z" fill="#323264"/>
<path d="M63.422 26.4178L63.6788 23.8503C63.6788 20.4098 62.5491 17.5342 60.2383 15.2235C57.9276 12.9127 55.052 11.783 51.6115 11.783C48.1711 11.783 45.1928 13.0154 42.728 15.4802C40.2632 17.945 39.0308 20.872 39.0308 24.3638C39.0308 27.9583 40.3145 31.0393 42.8307 33.6068C45.3468 36.1743 48.3765 37.4581 51.8683 37.4581C53.2034 37.4581 54.4358 37.2527 55.6682 36.8932C56.9006 36.4824 57.9276 36.0716 58.6465 35.6608C59.4167 35.1987 60.187 34.6852 60.8545 34.1203C61.5221 33.5555 61.9842 33.1447 62.1896 32.8879C62.395 32.6312 62.5491 32.4771 62.6518 32.3231L59.314 28.9853L58.5438 29.961C58.0303 30.5772 57.1573 31.1934 55.9249 31.8609C54.6412 32.5285 53.3061 32.8366 51.8683 32.8366C49.8656 32.8366 48.1711 32.2204 46.7333 30.9366C45.2955 29.6529 44.4225 28.1637 44.1658 26.4178H63.422ZM51.6115 16.1478C53.5115 16.1478 55.052 16.7126 56.3357 17.791C57.5681 18.9207 58.3384 20.3071 58.6465 22.053H44.3712C44.8333 20.3071 45.6549 18.9207 46.9387 17.791C48.1711 16.7126 49.7629 16.1478 51.6115 16.1478Z" fill="#323264"/>
<path d="M87.3711 35.4554C87.3711 37.7148 86.7035 39.5634 85.3171 41.0012C83.982 42.3877 82.2874 43.1066 80.1821 43.1066C79.2578 43.1066 78.3335 42.9525 77.4605 42.6958C76.5876 42.439 75.92 42.1309 75.3552 41.7715C74.7903 41.412 74.2768 41.0526 73.7633 40.5904C73.3012 40.1283 72.9931 39.8202 72.839 39.6661C72.685 39.5121 72.5823 39.358 72.4796 39.2553L69.1418 42.5931L69.5526 43.1066C69.8094 43.466 70.2715 43.9282 70.8877 44.4417C71.5039 44.9038 72.2228 45.4173 73.0444 45.9308C73.866 46.393 74.893 46.8038 76.1768 47.1632C77.4605 47.5227 78.7956 47.7281 80.1821 47.7281C83.6739 47.7281 86.5495 46.547 88.9629 44.1849C91.325 41.7715 92.5061 38.8959 92.5061 35.404V12.2965H87.3711V14.864L86.4981 14.0938C85.9333 13.5803 85.0603 13.0668 83.8279 12.5533C82.5955 12.0398 81.2604 11.783 79.9253 11.783C76.793 11.783 74.1228 12.9641 71.812 15.3775C69.5013 17.791 68.3716 20.6666 68.3716 24.107C68.3716 27.5475 69.5013 30.4231 71.812 32.8365C74.1228 35.25 76.793 36.431 79.9253 36.431C80.7983 36.431 81.6199 36.3284 82.4928 36.1229C83.3144 35.8662 83.982 35.6094 84.5468 35.3527C85.1117 35.0959 85.6252 34.7878 86.0873 34.4284C86.5495 34.0689 86.9089 33.8122 87.0116 33.7095L87.3711 33.35V35.4554ZM73.5066 24.107C73.5066 21.9503 74.1741 20.1531 75.5606 18.6639C76.947 17.1748 78.5902 16.4045 80.4388 16.4045C82.2874 16.4045 83.9306 17.1748 85.3171 18.6639C86.6522 20.1531 87.3711 21.9503 87.3711 24.107C87.3711 26.2637 86.6522 28.061 85.3171 29.5501C83.9306 31.0393 82.2874 31.8095 80.4388 31.8095C78.5902 31.8095 76.947 31.0393 75.5606 29.5501C74.1741 28.061 73.5066 26.2637 73.5066 24.107Z" fill="#323264"/>
<path d="M119.309 36.9446V21.026C119.309 18.4072 118.333 16.1991 116.433 14.4532C114.533 12.656 112.068 11.783 109.039 11.783C107.858 11.783 106.677 11.9371 105.547 12.2452C104.417 12.6046 103.493 12.9641 102.825 13.3749C102.158 13.7857 101.49 14.2478 100.874 14.8127C100.258 15.3262 99.8985 15.6856 99.6931 15.891C99.539 16.0964 99.385 16.2505 99.2823 16.4045L102.62 19.7423L103.288 18.8693C103.698 18.3045 104.417 17.791 105.496 17.2261C106.574 16.6613 107.755 16.4045 109.039 16.4045C110.528 16.4045 111.76 16.8667 112.736 17.7396C113.712 18.6126 114.174 19.7423 114.174 21.026L105.188 22.5665C102.979 22.926 101.182 23.7989 99.9498 25.1854C98.6661 26.5719 97.9985 28.2664 97.9985 30.2691C97.9985 32.169 98.8201 33.8122 100.463 35.25C102.158 36.7392 104.212 37.4581 106.728 37.4581C107.601 37.4581 108.423 37.3554 109.244 37.0986C110.117 36.8932 110.785 36.6365 111.35 36.3797C111.914 36.123 112.428 35.8149 112.89 35.4554C113.352 35.096 113.66 34.8392 113.866 34.7365C114.02 34.5825 114.122 34.4284 114.174 34.3771V36.9446H119.309ZM107.498 32.8366C106.163 32.8366 105.085 32.5285 104.315 31.9123C103.493 31.2961 103.134 30.5772 103.134 29.7556C103.134 28.8826 103.39 28.1124 103.955 27.5475C104.52 26.9827 105.29 26.5719 106.215 26.4178L114.174 25.134V25.6475C114.174 27.9583 113.609 29.7042 112.428 30.988C111.247 32.2204 109.604 32.8366 107.498 32.8366Z" fill="#323264"/>
<path d="M130.64 0.999996H125.505V36.945H130.64V0.999996Z" fill="#323264"/>
<path d="M153.989 15.1208L153.681 14.7613C153.475 14.5559 153.167 14.2992 152.705 13.9397C152.243 13.5803 151.729 13.2722 151.164 12.9127C150.6 12.6046 149.829 12.3479 148.905 12.0911C147.981 11.8857 147.005 11.783 146.029 11.783C143.513 11.783 141.459 12.5019 139.816 13.9397C138.122 15.4289 137.3 17.0721 137.3 18.972C137.3 20.3585 137.608 21.4882 138.224 22.5152C138.84 23.4908 139.611 24.2097 140.586 24.6205C141.511 25.0827 142.538 25.5448 143.616 25.9043C144.694 26.2638 145.67 26.5719 146.646 26.8286C147.57 27.1367 148.34 27.4962 148.956 27.9583C149.573 28.4205 149.881 29.0367 149.881 29.7556C149.881 30.6799 149.521 31.4501 148.854 32.015C148.186 32.5285 147.159 32.8366 145.773 32.8366C144.643 32.8366 143.513 32.5285 142.435 32.015C141.357 31.4501 140.689 30.988 140.33 30.6285C140.022 30.2691 139.765 29.961 139.611 29.7556L136.273 33.0933L136.632 33.5555C136.889 33.8636 137.249 34.223 137.762 34.6338C138.327 35.096 138.943 35.5068 139.611 35.9176C140.33 36.3284 141.254 36.6878 142.332 36.9959C143.411 37.304 144.592 37.4581 145.773 37.4581C148.494 37.4581 150.754 36.6878 152.448 35.1987C154.143 33.7095 155.016 31.8609 155.016 29.7556C155.016 28.3691 154.708 27.1881 154.091 26.2638C153.475 25.2881 152.705 24.5692 151.729 24.107C150.805 23.5935 149.778 23.1827 148.7 22.8233C147.621 22.4638 146.646 22.1044 145.67 21.899C144.746 21.6422 143.975 21.2314 143.359 20.7693C142.743 20.3071 142.435 19.6909 142.435 18.972C142.435 18.3045 142.743 17.6883 143.411 17.1748C144.027 16.6613 144.9 16.4045 146.029 16.4045C146.851 16.4045 147.673 16.6099 148.443 16.9694C149.265 17.3288 149.829 17.6369 150.086 17.8937C150.343 18.1504 150.548 18.3558 150.651 18.4585L153.989 15.1208Z" fill="#323264"/>
<path d="M186.511 31.8789L190.129 28.0752L196.586 37H199.629L191.836 26.1641L198.868 18.7607H195.621L186.511 28.4463V18.7607H183.857V37H186.511V31.8789ZM216.885 27.8896C216.885 29.8564 216.217 31.5264 214.918 32.8809C213.619 34.2354 212.042 34.9033 210.224 34.9033C208.405 34.9033 206.828 34.2354 205.529 32.8623C204.23 31.4893 203.581 29.8379 203.581 27.8711C203.581 25.9043 204.23 24.2529 205.529 22.8984C206.828 21.5439 208.405 20.8574 210.224 20.8574C212.042 20.8574 213.619 21.5439 214.918 22.8984C216.217 24.2529 216.885 25.9229 216.885 27.8896ZM200.928 27.8896C200.928 30.5615 201.818 32.8066 203.637 34.6436C205.455 36.4619 207.645 37.3896 210.242 37.3896C212.821 37.3896 215.011 36.4619 216.811 34.6436C218.629 32.8066 219.52 30.5615 219.52 27.8896C219.52 25.2178 218.629 22.9727 216.811 21.1357C215.011 19.2988 212.821 18.3711 210.242 18.3711C207.645 18.3711 205.455 19.2988 203.637 21.1357C201.818 22.9727 200.928 25.2178 200.928 27.8896ZM240.264 23.5107V37H242.917V18.7607H240.82L233.603 27.8711L226.385 18.7607H224.307V37H226.96V23.5107L233.603 31.8789L240.264 23.5107ZM253.011 26.5537C251.285 26.8506 249.968 27.4629 249.059 28.3906C248.131 29.3184 247.686 30.543 247.686 32.0645C247.686 33.4561 248.298 34.6807 249.541 35.7568C250.784 36.833 252.324 37.3711 254.143 37.3711C254.866 37.3711 255.571 37.2783 256.258 37.0742C256.944 36.8887 257.501 36.666 257.928 36.4062C258.336 36.1465 258.726 35.8682 259.097 35.5342C259.468 35.2002 259.69 34.9775 259.802 34.8477C259.913 34.7178 259.987 34.6064 260.043 34.5322V37H262.696V25.4033C262.696 23.418 262.01 21.748 260.637 20.3936C259.264 19.0576 257.557 18.3711 255.479 18.3711C254.662 18.3711 253.846 18.501 253.066 18.7422C252.287 18.9834 251.656 19.2617 251.174 19.5586C250.691 19.874 250.228 20.2266 249.782 20.6162C249.337 21.0059 249.059 21.2842 248.929 21.4326C248.799 21.5811 248.706 21.7109 248.632 21.8037L250.339 23.5107L250.914 22.8613C251.285 22.416 251.897 21.9707 252.751 21.5254C253.604 21.0801 254.514 20.8574 255.479 20.8574C256.814 20.8574 257.909 21.2842 258.763 22.1191C259.616 22.9727 260.043 24.0674 260.043 25.4033L253.011 26.5537ZM254.143 34.9033C252.955 34.9033 252.009 34.6436 251.341 34.1055C250.673 33.5674 250.339 32.8809 250.339 32.0645C250.339 30.3574 251.489 29.2812 253.771 28.8359L260.043 27.6855V28.8359C260.043 30.6357 259.486 32.1016 258.373 33.2148C257.26 34.3467 255.85 34.9033 254.143 34.9033ZM281.863 37H284.535V18.7607H281.863V26.5537H271.417V18.7607H268.764V37H271.417V29.0215H281.863V37ZM307.524 34.5322H304.667V18.7607H292.143V24.0859C292.143 25.4219 292.013 26.7207 291.79 27.9453C291.567 29.1699 291.308 30.1533 291.011 30.8955C290.714 31.6377 290.398 32.3057 290.027 32.9365C289.656 33.5674 289.378 33.9756 289.229 34.1611C289.081 34.3467 288.97 34.458 288.896 34.5322H287.578V41.5645H290.231V37H304.871V41.5645H307.524V34.5322ZM294.796 21.2285H302.014V34.5322H291.753L292.514 33.4746C293.015 32.7695 293.516 31.5449 294.017 29.8008C294.536 28.0752 294.777 26.1641 294.777 24.0859L294.796 21.2285ZM315.688 26.5537C313.963 26.8506 312.646 27.4629 311.736 28.3906C310.809 29.3184 310.363 30.543 310.363 32.0645C310.363 33.4561 310.976 34.6807 312.219 35.7568C313.462 36.833 315.002 37.3711 316.82 37.3711C317.544 37.3711 318.249 37.2783 318.936 37.0742C319.622 36.8887 320.179 36.666 320.605 36.4062C321.014 36.1465 321.403 35.8682 321.774 35.5342C322.146 35.2002 322.368 34.9775 322.479 34.8477C322.591 34.7178 322.665 34.6064 322.721 34.5322V37H325.374V25.4033C325.374 23.418 324.688 21.748 323.314 20.3936C321.941 19.0576 320.234 18.3711 318.156 18.3711C317.34 18.3711 316.523 18.501 315.744 18.7422C314.965 18.9834 314.334 19.2617 313.852 19.5586C313.369 19.874 312.905 20.2266 312.46 20.6162C312.015 21.0059 311.736 21.2842 311.606 21.4326C311.477 21.5811 311.384 21.7109 311.31 21.8037L313.017 23.5107L313.592 22.8613C313.963 22.416 314.575 21.9707 315.429 21.5254C316.282 21.0801 317.191 20.8574 318.156 20.8574C319.492 20.8574 320.587 21.2842 321.44 22.1191C322.294 22.9727 322.721 24.0674 322.721 25.4033L315.688 26.5537ZM316.82 34.9033C315.633 34.9033 314.687 34.6436 314.019 34.1055C313.351 33.5674 313.017 32.8809 313.017 32.0645C313.017 30.3574 314.167 29.2812 316.449 28.8359L322.721 27.6855V28.8359C322.721 30.6357 322.164 32.1016 321.051 33.2148C319.938 34.3467 318.527 34.9033 316.82 34.9033Z" fill="#323264"/>
<path fill-rule="evenodd" clip-rule="evenodd" d="M359.258 27.1452H347.329L352.585 11.1537L358.532 11.1888L355.079 21.7351L361.008 21.7386L359.258 27.1452Z" fill="url(#paint0_linear)"/>
<path fill-rule="evenodd" clip-rule="evenodd" d="M334.904 47.9044H329C329 47.9044 339.754 14.794 342.266 7.06476C343.441 3.44844 346.809 1 350.609 1H361.165C364.348 1 367.005 2.34505 368.657 4.61793C370.307 6.89094 370.776 9.79933 369.813 12.7664C368.849 15.7334 367.939 18.5342 367.105 21.1004C365.98 24.5654 362.863 26.953 359.259 27.1471C359.259 27.1471 359.24 27.1411 364.29 11.5924C364.736 10.2203 364.573 8.8772 363.873 7.91395C363.173 6.95083 361.993 6.3808 360.432 6.3808H351.374C349.596 6.3808 348.02 7.52656 347.47 9.21887L334.904 47.9044Z" fill="#F0145A"/>
<path fill-rule="evenodd" clip-rule="evenodd" d="M175.227 1H181.071L165.845 47.8434H160L175.227 1Z" fill="#F0145A"/>
</g>
<defs>
<linearGradient id="paint0_linear" x1="347.328" y1="24.0823" x2="360.6" y2="31.0167" gradientUnits="userSpaceOnUse">
<stop stop-color="#F0145A"/>
<stop offset="1" stop-color="#693264"/>
</linearGradient>
<clipPath id="clip0">
<rect width="419" height="63" fill="white"/>
</clipPath>
</defs>
</svg>
