<svg width="444" height="63" viewBox="0 0 444 63" fill="none" xmlns="http://www.w3.org/2000/svg">
<g clip-path="url(#clip0)">
<path d="M10.3513 58.0913C10.3513 56.9799 9.9699 56.0429 9.21807 55.2692C8.46624 54.4956 7.55097 54.1143 6.48316 54.1143C5.51341 54.1143 4.67441 54.4193 3.96617 55.0404C3.26882 55.6506 2.83298 56.3915 2.66953 57.2741H1.63441V54.2777H0V61.9049H1.63441V58.7996H2.66953C2.83298 59.7257 3.26882 60.5102 3.96617 61.1313C4.66351 61.7524 5.50251 62.0684 6.48316 62.0684C7.55097 62.0684 8.46624 61.687 9.21807 60.9134C9.9699 60.1507 10.3513 59.2027 10.3513 58.0913ZM8.71685 58.0913C8.71685 58.8105 8.49893 59.4097 8.06309 59.8783C7.61635 60.3577 7.09334 60.5974 6.48316 60.5974C5.87298 60.5974 5.34997 60.3577 4.91412 59.8783C4.46738 59.4097 4.24946 58.8105 4.24946 58.0913C4.24946 57.3722 4.46738 56.7729 4.91412 56.2935C5.34997 55.8249 5.87298 55.5852 6.48316 55.5852C7.09334 55.5852 7.61635 55.8249 8.06309 56.2935C8.49893 56.7729 8.71685 57.3722 8.71685 58.0913Z" fill="#46466E"/>
<path d="M12.9604 54.2783V61.9056H14.5949V59.3995H16.1748C16.9593 59.3995 17.6131 59.1489 18.1252 58.6585C18.6373 58.1682 18.8988 57.558 18.8988 56.8389C18.8988 56.1089 18.6373 55.5096 18.1252 55.0084C17.6022 54.518 16.9593 54.2783 16.1748 54.2783H12.9604ZM16.1203 55.7493C16.4472 55.7493 16.7196 55.8582 16.9375 56.0653C17.1554 56.2723 17.2644 56.5338 17.2644 56.8389C17.2644 57.144 17.1554 57.4055 16.9375 57.6125C16.7196 57.8195 16.4472 57.9285 16.1203 57.9285H14.5949V55.7493H16.1203Z" fill="#46466E"/>
<path d="M28.2617 61.9056V54.2783H26.8452L23.0861 59.1271V54.2783H21.4517V61.9056H22.8681L26.6273 57.0568V61.9056H28.2617Z" fill="#46466E"/>
<path d="M30.3247 60.4346V63.4855H31.9591V61.9056H36.5355V63.4855H38.1699V60.4346H37.2437V54.2783H31.9591V56.621C31.9591 57.1331 31.9155 57.6125 31.8284 58.0593C31.7412 58.5169 31.6431 58.8765 31.5451 59.1489C31.4361 59.4104 31.3162 59.6501 31.1746 59.8789C31.033 60.0968 30.9458 60.2385 30.8913 60.3038C30.8259 60.3583 30.7932 60.4128 30.7605 60.4346H30.3247ZM33.5935 56.621V55.7493H35.6093V60.4346H32.395L32.5257 60.3038C32.602 60.2167 32.7 60.075 32.8199 59.868C32.9398 59.661 33.0487 59.4213 33.1686 59.1489C33.2884 58.8765 33.3865 58.506 33.4628 58.0593C33.5499 57.6125 33.5935 57.1331 33.5935 56.621Z" fill="#46466E"/>
<path d="M47.3115 61.9056V54.2783H45.895L42.1359 59.1271V54.2783H40.5015V61.9056H41.918L45.6771 57.0568V61.9056H47.3115Z" fill="#46466E"/>
<path d="M51.8815 54.2783H50.2471V56.621C50.2471 57.5362 50.4868 58.2445 50.9662 58.7457C51.4565 59.2578 52.1212 59.5084 52.9711 59.5084C53.7011 59.5084 54.3004 59.3668 54.7689 59.0726V61.9056H56.4033V54.2783H54.7689V57.4927L54.5837 57.6343C54.4638 57.7215 54.2786 57.8086 54.028 57.9067C53.7774 57.9939 53.5159 58.0375 53.2435 58.0375C52.8076 58.0375 52.4699 57.9176 52.2302 57.6779C52.0013 57.4273 51.8815 57.0786 51.8815 56.621V54.2783Z" fill="#46466E"/>
<path d="M65.9859 54.2783H64.3515V57.3292H61.0827V54.2783H59.4482V61.9056H61.0827V58.8002H64.3515V61.9056H65.9859V54.2783Z" fill="#46466E"/>
<path d="M72.9549 58.6912H71.1026L72.0288 56.1851L72.9549 58.6912ZM73.4997 60.1077L74.1535 61.9056H75.8969L72.9004 54.2783H71.1571L68.1606 61.9056H69.904L70.5578 60.1077H73.4997Z" fill="#46466E"/>
<path d="M83.0221 54.2783H81.3877V61.9056H83.0221V59.7263L84.0027 58.6367L86.2364 61.9056H88.1432L85.0924 57.4382L87.9253 54.2783H86.0185L83.0221 57.6016V54.2783Z" fill="#46466E"/>
<path d="M91.4614 58.0913C91.4614 57.394 91.7011 56.7947 92.1805 56.3153C92.649 55.8249 93.2265 55.5852 93.913 55.5852C94.5994 55.5852 95.1769 55.8249 95.6454 56.3153C96.1249 56.7947 96.3646 57.394 96.3646 58.0913C96.3646 58.7996 96.1249 59.388 95.6454 59.8674C95.1769 60.3577 94.5994 60.5974 93.913 60.5974C93.2265 60.5974 92.649 60.3577 92.1805 59.8674C91.7011 59.388 91.4614 58.7996 91.4614 58.0913ZM89.7725 58.0913C89.7725 59.1809 90.1756 60.1289 90.971 60.9025C91.7664 61.6761 92.7471 62.0684 93.913 62.0684C95.0788 62.0684 96.0595 61.6761 96.8549 60.9025C97.6503 60.1289 98.0535 59.1809 98.0535 58.0913C98.0535 56.9908 97.6503 56.0538 96.8549 55.2801C96.0595 54.5065 95.0788 54.1143 93.913 54.1143C92.7471 54.1143 91.7664 54.5065 90.971 55.2801C90.1756 56.0538 89.7725 56.9908 89.7725 58.0913Z" fill="#46466E"/>
<path d="M104.749 57.6016L102.134 54.2783H100.663V61.9056H102.297V56.8389L104.749 59.9443L107.2 56.8171V61.9056H108.835V54.2783H107.385L104.749 57.6016Z" fill="#46466E"/>
<path d="M118.36 54.2783H111.876V61.9056H113.511V55.7493H116.725V61.9056H118.36V54.2783Z" fill="#46466E"/>
<path d="M125.33 58.6912H123.478L124.404 56.1851L125.33 58.6912ZM125.875 60.1077L126.528 61.9056H128.272L125.275 54.2783H123.532L120.536 61.9056H122.279L122.933 60.1077H125.875Z" fill="#46466E"/>
<path d="M136.983 54.2783H135.349V57.3292H132.08V54.2783H130.445V61.9056H132.08V58.8002H135.349V61.9056H136.983V54.2783Z" fill="#46466E"/>
<path d="M141.662 54.2783H140.027V61.9056H141.662V54.2783Z" fill="#46466E"/>
<path d="M150.373 54.2783H146.995C146.232 54.2783 145.611 54.518 145.121 54.9975C144.63 55.4769 144.38 56.0762 144.38 56.7844C144.38 57.0895 144.434 57.3728 144.521 57.6452C144.62 57.9176 144.728 58.1246 144.859 58.2772C144.979 58.4297 145.11 58.5714 145.273 58.7021C145.426 58.8329 145.535 58.92 145.6 58.9527C145.655 58.9745 145.709 59.0072 145.742 59.0181L144.107 61.9056H145.851L147.322 59.236H148.738V61.9056H150.373V54.2783ZM146.014 56.7844C146.014 56.4793 146.112 56.2396 146.308 56.0435C146.505 55.8474 146.755 55.7493 147.049 55.7493H148.738V57.7651H147.049C146.755 57.7651 146.505 57.667 146.308 57.4818C146.112 57.2965 146.014 57.0568 146.014 56.7844Z" fill="#46466E"/>
<path d="M4.98113 1H0V36.9749H4.98113V23.6286C4.98113 21.3707 5.54273 19.5895 6.66593 18.3352C7.78912 17.0808 9.32741 16.4286 11.232 16.4286C12.8679 16.4286 14.2353 17.0307 15.3341 18.1847C16.4329 19.3638 16.9944 20.8439 16.9944 22.6251V37H22V22.6251C22 19.3136 21.0966 16.7045 19.2897 14.7477C17.4828 12.7909 15.1143 11.8125 12.2331 11.8125C11.4029 11.8125 10.5727 11.9129 9.76693 12.1387C8.93674 12.3645 8.27747 12.6153 7.74029 12.8913C7.20311 13.1672 6.69034 13.4683 6.22642 13.8195C5.76249 14.1707 5.44506 14.4216 5.29856 14.5721C5.15205 14.7226 5.02997 14.823 4.98113 14.8983V1Z" fill="#F0145A"/>
<path d="M33.135 1H28V36.945H33.135V1Z" fill="#323264"/>
<path d="M63.422 26.418L63.6788 23.8505C63.6788 20.41 62.5491 17.5344 60.2383 15.2237C57.9276 12.9129 55.052 11.7832 51.6115 11.7832C48.1711 11.7832 45.1928 13.0156 42.728 15.4804C40.2632 17.9452 39.0308 20.8722 39.0308 24.364C39.0308 27.9585 40.3145 31.0395 42.8307 33.607C45.3468 36.1745 48.3765 37.4582 51.8683 37.4582C53.2034 37.4582 54.4358 37.2528 55.6682 36.8934C56.9006 36.4826 57.9276 36.0718 58.6465 35.661C59.4167 35.1988 60.187 34.6853 60.8545 34.1205C61.5221 33.5556 61.9842 33.1448 62.1896 32.8881C62.395 32.6313 62.5491 32.4773 62.6518 32.3232L59.314 28.9855L58.5438 29.9611C58.0303 30.5773 57.1573 31.1935 55.9249 31.8611C54.6412 32.5286 53.3061 32.8367 51.8683 32.8367C49.8656 32.8367 48.1711 32.2205 46.7333 30.9368C45.2955 29.653 44.4225 28.1639 44.1658 26.418H63.422ZM51.6115 16.148C53.5115 16.148 55.052 16.7128 56.3357 17.7912C57.5681 18.9209 58.3384 20.3073 58.6465 22.0532H44.3712C44.8333 20.3073 45.6549 18.9209 46.9387 17.7912C48.1711 16.7128 49.7629 16.148 51.6115 16.148Z" fill="#323264"/>
<path d="M87.3711 35.4556C87.3711 37.715 86.7035 39.5636 85.3171 41.0014C83.982 42.3878 82.2874 43.1067 80.1821 43.1067C79.2578 43.1067 78.3335 42.9527 77.4605 42.6959C76.5876 42.4392 75.92 42.1311 75.3552 41.7716C74.7903 41.4122 74.2768 41.0527 73.7633 40.5906C73.3012 40.1284 72.9931 39.8203 72.839 39.6663C72.685 39.5122 72.5823 39.3582 72.4796 39.2555L69.1418 42.5932L69.5526 43.1067C69.8094 43.4662 70.2715 43.9283 70.8877 44.4418C71.5039 44.904 72.2228 45.4175 73.0444 45.931C73.866 46.3931 74.893 46.8039 76.1768 47.1634C77.4605 47.5228 78.7956 47.7282 80.1821 47.7282C83.6739 47.7282 86.5495 46.5472 88.9629 44.1851C91.325 41.7716 92.5061 38.896 92.5061 35.4042V12.2967H87.3711V14.8642L86.4981 14.094C85.9333 13.5805 85.0603 13.067 83.8279 12.5535C82.5955 12.04 81.2604 11.7832 79.9253 11.7832C76.793 11.7832 74.1228 12.9643 71.812 15.3777C69.5013 17.7912 68.3716 20.6668 68.3716 24.1072C68.3716 27.5477 69.5013 30.4233 71.812 32.8367C74.1228 35.2502 76.793 36.4312 79.9253 36.4312C80.7983 36.4312 81.6199 36.3285 82.4928 36.1231C83.3144 35.8664 83.982 35.6096 84.5468 35.3529C85.1117 35.0961 85.6252 34.788 86.0873 34.4286C86.5495 34.0691 86.9089 33.8124 87.0116 33.7097L87.3711 33.3502V35.4556ZM73.5066 24.1072C73.5066 21.9505 74.1741 20.1533 75.5606 18.6641C76.947 17.175 78.5902 16.4047 80.4388 16.4047C82.2874 16.4047 83.9306 17.175 85.3171 18.6641C86.6522 20.1533 87.3711 21.9505 87.3711 24.1072C87.3711 26.2639 86.6522 28.0612 85.3171 29.5503C83.9306 31.0395 82.2874 31.8097 80.4388 31.8097C78.5902 31.8097 76.947 31.0395 75.5606 29.5503C74.1741 28.0612 73.5066 26.2639 73.5066 24.1072Z" fill="#323264"/>
<path d="M119.309 36.9447V21.0262C119.309 18.4074 118.333 16.1993 116.433 14.4534C114.533 12.6562 112.068 11.7832 109.039 11.7832C107.858 11.7832 106.677 11.9373 105.547 12.2454C104.417 12.6048 103.493 12.9643 102.825 13.3751C102.158 13.7859 101.49 14.248 100.874 14.8129C100.258 15.3264 99.8985 15.6858 99.6931 15.8912C99.539 16.0966 99.385 16.2507 99.2823 16.4047L102.62 19.7425L103.288 18.8695C103.698 18.3047 104.417 17.7912 105.496 17.2263C106.574 16.6615 107.755 16.4047 109.039 16.4047C110.528 16.4047 111.76 16.8669 112.736 17.7398C113.712 18.6128 114.174 19.7425 114.174 21.0262L105.188 22.5667C102.979 22.9262 101.182 23.7991 99.9498 25.1856C98.6661 26.572 97.9985 28.2666 97.9985 30.2692C97.9985 32.1692 98.8201 33.8124 100.463 35.2502C102.158 36.7393 104.212 37.4582 106.728 37.4582C107.601 37.4582 108.423 37.3555 109.244 37.0988C110.117 36.8934 110.785 36.6366 111.35 36.3799C111.914 36.1231 112.428 35.815 112.89 35.4556C113.352 35.0961 113.66 34.8394 113.866 34.7367C114.02 34.5826 114.122 34.4286 114.174 34.3772V36.9447H119.309ZM107.498 32.8367C106.163 32.8367 105.085 32.5286 104.315 31.9124C103.493 31.2962 103.134 30.5773 103.134 29.7557C103.134 28.8828 103.39 28.1125 103.955 27.5477C104.52 26.9828 105.29 26.572 106.215 26.418L114.174 25.1342V25.6477C114.174 27.9585 113.609 29.7044 112.428 30.9881C111.247 32.2205 109.604 32.8367 107.498 32.8367Z" fill="#323264"/>
<path d="M130.64 1H125.505V36.945H130.64V1Z" fill="#323264"/>
<path d="M153.989 15.121L153.681 14.7615C153.475 14.5561 153.167 14.2994 152.705 13.9399C152.243 13.5805 151.729 13.2724 151.164 12.9129C150.6 12.6048 149.829 12.3481 148.905 12.0913C147.981 11.8859 147.005 11.7832 146.029 11.7832C143.513 11.7832 141.459 12.5021 139.816 13.9399C138.122 15.4291 137.3 17.0723 137.3 18.9722C137.3 20.3587 137.608 21.4884 138.224 22.5154C138.84 23.491 139.611 24.2099 140.586 24.6207C141.511 25.0829 142.538 25.545 143.616 25.9045C144.694 26.2639 145.67 26.572 146.646 26.8288C147.57 27.1369 148.34 27.4963 148.956 27.9585C149.573 28.4206 149.881 29.0368 149.881 29.7557C149.881 30.68 149.521 31.4503 148.854 32.0151C148.186 32.5286 147.159 32.8367 145.773 32.8367C144.643 32.8367 143.513 32.5286 142.435 32.0151C141.357 31.4503 140.689 30.9881 140.33 30.6287C140.022 30.2692 139.765 29.9611 139.611 29.7557L136.273 33.0935L136.632 33.5556C136.889 33.8637 137.249 34.2232 137.762 34.634C138.327 35.0961 138.943 35.5069 139.611 35.9177C140.33 36.3285 141.254 36.688 142.332 36.9961C143.411 37.3042 144.592 37.4582 145.773 37.4582C148.494 37.4582 150.754 36.688 152.448 35.1988C154.143 33.7097 155.016 31.8611 155.016 29.7557C155.016 28.3693 154.708 27.1882 154.091 26.2639C153.475 25.2883 152.705 24.5694 151.729 24.1072C150.805 23.5937 149.778 23.1829 148.7 22.8235C147.621 22.464 146.646 22.1046 145.67 21.8992C144.746 21.6424 143.975 21.2316 143.359 20.7695C142.743 20.3073 142.435 19.6911 142.435 18.9722C142.435 18.3047 142.743 17.6885 143.411 17.175C144.027 16.6615 144.9 16.4047 146.029 16.4047C146.851 16.4047 147.673 16.6101 148.443 16.9696C149.265 17.329 149.829 17.6371 150.086 17.8939C150.343 18.1506 150.548 18.356 150.651 18.4587L153.989 15.121Z" fill="#323264"/>
<path d="M196.957 37H199.629V18.7607H183.857V37H186.511V21.2656H196.957V37ZM209.704 39.6533C209.018 41.5645 207.867 42.5107 206.253 42.5107C205.622 42.5107 204.991 42.3809 204.36 42.1211V44.6074L204.62 44.6816C204.806 44.7559 205.103 44.8301 205.474 44.8857C205.845 44.96 206.234 44.9785 206.643 44.9785C207.96 44.9785 209.055 44.5889 209.927 43.7725C210.78 42.9561 211.597 41.583 212.357 39.6533L220.726 18.7607H217.868L211.986 33.5859L206.086 18.7607H203.229L210.65 37L209.704 39.6533ZM241.618 28.2607C241.618 25.7373 240.765 23.585 239.058 21.8037C237.351 20.0225 235.291 19.1318 232.879 19.1318C232.062 19.1318 231.283 19.2803 230.541 19.54C229.799 19.7998 229.187 20.0967 228.723 20.4121C228.24 20.7461 227.813 21.0986 227.424 21.5068C227.034 21.915 226.774 22.1934 226.663 22.3604C226.552 22.5273 226.459 22.6572 226.422 22.75C226.515 20.1895 227.183 18.167 228.407 16.6826C229.632 15.1982 231.265 14.2334 233.269 13.8252C237.054 13.083 239.466 12.248 240.486 11.3574L239.15 9.26074L238.594 9.59473C238.223 9.83594 237.518 10.1328 236.479 10.4854C235.421 10.8564 234.215 11.1348 232.879 11.3574C226.682 12.4707 223.583 17.2207 223.583 25.6074C223.583 29.3555 224.418 32.2686 226.125 34.3096C227.813 36.3506 230.003 37.3711 232.693 37.3711C235.18 37.3711 237.276 36.499 239.021 34.7363C240.746 32.9922 241.618 30.8213 241.618 28.2607ZM226.422 28.2607C226.422 26.3867 227.034 24.8096 228.259 23.5293C229.483 22.2676 230.968 21.6182 232.693 21.6182C234.4 21.6182 235.885 22.2676 237.109 23.5293C238.334 24.8096 238.965 26.3867 238.965 28.2607C238.965 30.1533 238.334 31.7305 237.109 32.9922C235.885 34.2725 234.4 34.9033 232.693 34.9033C230.968 34.9033 229.483 34.2725 228.259 32.9922C227.034 31.7305 226.422 30.1533 226.422 28.2607ZM248.465 18.7607V24.0859C248.465 27.0732 248.298 29.374 248.001 30.9883C247.704 32.584 247.333 33.623 246.888 34.0684C246.442 34.5137 245.83 34.7363 245.051 34.7363C244.531 34.7363 244.03 34.6064 243.529 34.3652V37.0186L243.789 37.0928C243.938 37.167 244.16 37.2227 244.476 37.2969C244.791 37.3525 245.106 37.3896 245.422 37.3896C246.331 37.3896 247.11 37.2041 247.76 36.833C248.391 36.4619 248.984 35.8125 249.522 34.8848C250.042 33.957 250.45 32.584 250.71 30.8027C250.97 29.0215 251.118 26.7764 251.118 24.1045V21.2471H259.097V37.0186H261.769V18.7793L248.465 18.7607ZM267.836 37H270.489V18.7607H267.836V37ZM267.446 12.6748C267.446 13.1572 267.595 13.5654 267.929 13.8994C268.263 14.2334 268.671 14.3818 269.153 14.3818C269.636 14.3818 270.025 14.2334 270.359 13.8994C270.693 13.5654 270.86 13.1572 270.86 12.6748C270.86 12.1924 270.693 11.8027 270.359 11.4688C270.025 11.1348 269.636 10.9678 269.153 10.9678C268.671 10.9678 268.263 11.1348 267.929 11.4688C267.595 11.8027 267.446 12.1924 267.446 12.6748ZM279.247 31.8789L282.865 28.0752L289.322 37H292.365L284.572 26.1641L291.604 18.7607H288.357L279.247 28.4463V18.7607H276.594V37H279.247V31.8789ZM299.769 26.5537C298.043 26.8506 296.726 27.4629 295.816 28.3906C294.889 29.3184 294.443 30.543 294.443 32.0645C294.443 33.4561 295.056 34.6807 296.299 35.7568C297.542 36.833 299.082 37.3711 300.9 37.3711C301.624 37.3711 302.329 37.2783 303.016 37.0742C303.702 36.8887 304.259 36.666 304.686 36.4062C305.094 36.1465 305.483 35.8682 305.854 35.5342C306.226 35.2002 306.448 34.9775 306.56 34.8477C306.671 34.7178 306.745 34.6064 306.801 34.5322V37H309.454V25.4033C309.454 23.418 308.768 21.748 307.395 20.3936C306.021 19.0576 304.314 18.3711 302.236 18.3711C301.42 18.3711 300.604 18.501 299.824 18.7422C299.045 18.9834 298.414 19.2617 297.932 19.5586C297.449 19.874 296.985 20.2266 296.54 20.6162C296.095 21.0059 295.816 21.2842 295.687 21.4326C295.557 21.5811 295.464 21.7109 295.39 21.8037L297.097 23.5107L297.672 22.8613C298.043 22.416 298.655 21.9707 299.509 21.5254C300.362 21.0801 301.271 20.8574 302.236 20.8574C303.572 20.8574 304.667 21.2842 305.521 22.1191C306.374 22.9727 306.801 24.0674 306.801 25.4033L299.769 26.5537ZM300.9 34.9033C299.713 34.9033 298.767 34.6436 298.099 34.1055C297.431 33.5674 297.097 32.8809 297.097 32.0645C297.097 30.3574 298.247 29.2812 300.529 28.8359L306.801 27.6855V28.8359C306.801 30.6357 306.244 32.1016 305.131 33.2148C304.018 34.3467 302.607 34.9033 300.9 34.9033ZM315.521 37H331.089V41.5645H333.761V34.5322H330.903V18.7607H328.25V34.5322H318.175V18.7607H315.521V37ZM337.936 37H340.589V18.7607H337.936V37ZM337.546 12.6748C337.546 13.1572 337.694 13.5654 338.028 13.8994C338.362 14.2334 338.771 14.3818 339.253 14.3818C339.735 14.3818 340.125 14.2334 340.459 13.8994C340.793 13.5654 340.96 13.1572 340.96 12.6748C340.96 12.1924 340.793 11.8027 340.459 11.4688C340.125 11.1348 339.735 10.9678 339.253 10.9678C338.771 10.9678 338.362 11.1348 338.028 11.4688C337.694 11.8027 337.546 12.1924 337.546 12.6748ZM342.704 12.9902C342.704 13.4727 342.853 13.8809 343.187 14.2148C343.521 14.5488 343.929 14.6973 344.411 14.6973C344.894 14.6973 345.283 14.5488 345.617 14.2148C345.951 13.8809 346.118 13.4727 346.118 12.9902C346.118 12.5078 345.951 12.1182 345.617 11.7842C345.283 11.4502 344.894 11.2832 344.411 11.2832C343.929 11.2832 343.521 11.4502 343.187 11.7842C342.853 12.1182 342.704 12.5078 342.704 12.9902ZM349.922 12.9902C349.922 13.4727 350.07 13.8809 350.404 14.2148C350.738 14.5488 351.146 14.6973 351.629 14.6973C352.111 14.6973 352.501 14.5488 352.835 14.2148C353.169 13.8809 353.336 13.4727 353.336 12.9902C353.336 12.5078 353.169 12.1182 352.835 11.7842C352.501 11.4502 352.111 11.2832 351.629 11.2832C351.146 11.2832 350.738 11.4502 350.404 11.7842C350.07 12.1182 349.922 12.5078 349.922 12.9902ZM346.693 37H349.347V18.7607H346.693V37Z" fill="#323264"/>
<path fill-rule="evenodd" clip-rule="evenodd" d="M384.258 27.1454H372.329L377.585 11.1538L383.532 11.189L380.079 21.7352L386.008 21.7387L384.258 27.1454Z" fill="url(#paint0_linear)"/>
<path fill-rule="evenodd" clip-rule="evenodd" d="M359.904 47.9044H354C354 47.9044 364.754 14.794 367.266 7.06476C368.441 3.44844 371.809 1 375.609 1H386.165C389.348 1 392.005 2.34505 393.657 4.61793C395.307 6.89094 395.776 9.79933 394.813 12.7664C393.849 15.7334 392.939 18.5342 392.105 21.1004C390.98 24.5654 387.863 26.953 384.259 27.1471C384.259 27.1471 384.24 27.1411 389.29 11.5924C389.736 10.2203 389.573 8.8772 388.873 7.91395C388.173 6.95083 386.993 6.3808 385.432 6.3808H376.374C374.596 6.3808 373.02 7.52656 372.47 9.21887L359.904 47.9044Z" fill="#F0145A"/>
<path fill-rule="evenodd" clip-rule="evenodd" d="M175.227 1H181.071L165.845 47.8434H160L175.227 1Z" fill="#F0145A"/>
</g>
<defs>
<linearGradient id="paint0_linear" x1="372.328" y1="24.0824" x2="385.6" y2="31.0168" gradientUnits="userSpaceOnUse">
<stop stop-color="#F0145A"/>
<stop offset="1" stop-color="#693264"/>
</linearGradient>
<clipPath id="clip0">
<rect width="444" height="63" fill="white"/>
</clipPath>
</defs>
</svg>
