<svg width="225" height="47" viewBox="0 0 225 47" fill="none" xmlns="http://www.w3.org/2000/svg">
<path d="M26.5107 30.8789L30.1289 27.0752L36.5859 36H39.6289L31.8359 25.1641L38.8682 17.7607H35.6211L26.5107 27.4463V17.7607H23.8574V36H26.5107V30.8789ZM56.8848 26.8896C56.8848 28.8564 56.2168 30.5264 54.918 31.8809C53.6191 33.2354 52.042 33.9033 50.2236 33.9033C48.4053 33.9033 46.8281 33.2354 45.5293 31.8623C44.2305 30.4893 43.5811 28.8379 43.5811 26.8711C43.5811 24.9043 44.2305 23.2529 45.5293 21.8984C46.8281 20.5439 48.4053 19.8574 50.2236 19.8574C52.042 19.8574 53.6191 20.5439 54.918 21.8984C56.2168 23.2529 56.8848 24.9229 56.8848 26.8896ZM40.9277 26.8896C40.9277 29.5615 41.8184 31.8066 43.6367 33.6436C45.4551 35.4619 47.6445 36.3896 50.2422 36.3896C52.8213 36.3896 55.0107 35.4619 56.8105 33.6436C58.6289 31.8066 59.5195 29.5615 59.5195 26.8896C59.5195 24.2178 58.6289 21.9727 56.8105 20.1357C55.0107 18.2988 52.8213 17.3711 50.2422 17.3711C47.6445 17.3711 45.4551 18.2988 43.6367 20.1357C41.8184 21.9727 40.9277 24.2178 40.9277 26.8896ZM77.4062 36H80.0781V17.7607H77.4062V25.5537H66.96V17.7607H64.3066V36H66.96V28.0215H77.4062V36ZM83.8818 20.2285H90.3389V36H92.9922V20.2285H99.4492V17.7607H83.8818V20.2285ZM107.261 25.5537C105.535 25.8506 104.218 26.4629 103.309 27.3906C102.381 28.3184 101.936 29.543 101.936 31.0645C101.936 32.4561 102.548 33.6807 103.791 34.7568C105.034 35.833 106.574 36.3711 108.393 36.3711C109.116 36.3711 109.821 36.2783 110.508 36.0742C111.194 35.8887 111.751 35.666 112.178 35.4062C112.586 35.1465 112.976 34.8682 113.347 34.5342C113.718 34.2002 113.94 33.9775 114.052 33.8477C114.163 33.7178 114.237 33.6064 114.293 33.5322V36H116.946V24.4033C116.946 22.418 116.26 20.748 114.887 19.3936C113.514 18.0576 111.807 17.3711 109.729 17.3711C108.912 17.3711 108.096 17.501 107.316 17.7422C106.537 17.9834 105.906 18.2617 105.424 18.5586C104.941 18.874 104.478 19.2266 104.032 19.6162C103.587 20.0059 103.309 20.2842 103.179 20.4326C103.049 20.5811 102.956 20.7109 102.882 20.8037L104.589 22.5107L105.164 21.8613C105.535 21.416 106.147 20.9707 107.001 20.5254C107.854 20.0801 108.764 19.8574 109.729 19.8574C111.064 19.8574 112.159 20.2842 113.013 21.1191C113.866 21.9727 114.293 23.0674 114.293 24.4033L107.261 25.5537ZM108.393 33.9033C107.205 33.9033 106.259 33.6436 105.591 33.1055C104.923 32.5674 104.589 31.8809 104.589 31.0645C104.589 29.3574 105.739 28.2812 108.021 27.8359L114.293 26.6855V27.8359C114.293 29.6357 113.736 31.1016 112.623 32.2148C111.51 33.3467 110.1 33.9033 108.393 33.9033ZM125.667 30.8789L129.285 27.0752L135.742 36H138.785L130.992 25.1641L138.024 17.7607H134.777L125.667 27.4463V17.7607H123.014V36H125.667V30.8789ZM139.917 20.2285H146.374V36H149.027V20.2285H155.484V17.7607H139.917V20.2285ZM172.981 17.7607L161.96 31.4355V17.7607H159.307V36H161.57L172.592 22.3252V36H175.264V17.7607H172.981Z" fill="#323264"/>
<path fill-rule="evenodd" clip-rule="evenodd" d="M213.258 26.1452H201.329L206.585 10.1537L212.532 10.1888L209.079 20.7351L215.008 20.7386L213.258 26.1452Z" fill="url(#paint0_linear)"/>
<path fill-rule="evenodd" clip-rule="evenodd" d="M188.904 46.9044H183C183 46.9044 193.754 13.794 196.266 6.06476C197.441 2.44844 200.809 0 204.609 0H215.165C218.348 0 221.005 1.34505 222.657 3.61793C224.307 5.89094 224.776 8.79933 223.813 11.7664C222.849 14.7334 221.939 17.5342 221.105 20.1004C219.98 23.5654 216.863 25.953 213.259 26.1471C213.259 26.1471 213.24 26.1411 218.29 10.5924C218.736 9.22026 218.573 7.8772 217.873 6.91395C217.173 5.95083 215.993 5.3808 214.432 5.3808H205.374C203.596 5.3808 202.02 6.52656 201.47 8.21887L188.904 46.9044Z" fill="#F0145A"/>
<path fill-rule="evenodd" clip-rule="evenodd" d="M15.2268 0H21.0714L5.84464 46.8434H0L15.2268 0Z" fill="#F0145A"/>
<defs>
<linearGradient id="paint0_linear" x1="201.328" y1="23.0823" x2="214.6" y2="30.0167" gradientUnits="userSpaceOnUse">
<stop stop-color="#F0145A"/>
<stop offset="1" stop-color="#693264"/>
</linearGradient>
</defs>
</svg>
