<svg width="223" height="31" viewBox="0 0 223 31" fill="none" xmlns="http://www.w3.org/2000/svg">
<g clip-path="url(#clip0)">
<path d="M5.17563 28.5457C5.17563 27.99 4.98495 27.5214 4.60903 27.1346C4.23312 26.7478 3.77549 26.5571 3.24158 26.5571C2.7567 26.5571 2.3372 26.7097 1.98308 27.0202C1.63441 27.3253 1.41649 27.6958 1.33477 28.1371H0.817205V26.6388H0V30.4525H0.817205V28.8998H1.33477C1.41649 29.3629 1.63441 29.7551 1.98308 30.0657C2.33176 30.3762 2.75126 30.5342 3.24158 30.5342C3.77549 30.5342 4.23312 30.3435 4.60903 29.9567C4.98495 29.5753 5.17563 29.1014 5.17563 28.5457ZM4.35842 28.5457C4.35842 28.9052 4.24946 29.2049 4.03154 29.4391C3.80817 29.6788 3.54667 29.7987 3.24158 29.7987C2.93649 29.7987 2.67498 29.6788 2.45706 29.4391C2.23369 29.2049 2.12473 28.9052 2.12473 28.5457C2.12473 28.1861 2.23369 27.8864 2.45706 27.6467C2.67498 27.4125 2.93649 27.2926 3.24158 27.2926C3.54667 27.2926 3.80817 27.4125 4.03154 27.6467C4.24946 27.8864 4.35842 28.1861 4.35842 28.5457Z" fill="#46466E"/>
<path d="M6.48047 26.6392V30.4528H7.29767V29.1997H8.08764C8.4799 29.1997 8.80678 29.0744 9.06283 28.8293C9.31889 28.5841 9.44964 28.279 9.44964 27.9194C9.44964 27.5544 9.31889 27.2548 9.06283 27.0042C8.80133 26.759 8.4799 26.6392 8.08764 26.6392H6.48047ZM8.0604 27.3746C8.22384 27.3746 8.36004 27.4291 8.469 27.5326C8.57796 27.6361 8.63244 27.7669 8.63244 27.9194C8.63244 28.072 8.57796 28.2027 8.469 28.3063C8.36004 28.4098 8.22384 28.4642 8.0604 28.4642H7.29767V27.3746H8.0604Z" fill="#46466E"/>
<path d="M14.1306 30.4528V26.6392H13.4224L11.5428 29.0635V26.6392H10.7256V30.4528H11.4338L13.3134 28.0284V30.4528H14.1306Z" fill="#46466E"/>
<path d="M15.1621 29.7173V31.2427H15.9793V30.4528H18.2675V31.2427H19.0847V29.7173H18.6216V26.6392H15.9793V27.8105C15.9793 28.0665 15.9575 28.3063 15.9139 28.5296C15.8704 28.7584 15.8213 28.9382 15.7723 29.0744C15.7178 29.2052 15.6579 29.325 15.5871 29.4394C15.5162 29.5484 15.4726 29.6192 15.4454 29.6519C15.4127 29.6792 15.3964 29.7064 15.38 29.7173H15.1621ZM16.7965 27.8105V27.3746H17.8044V29.7173H16.1972L16.2626 29.6519C16.3007 29.6083 16.3498 29.5375 16.4097 29.434C16.4696 29.3305 16.5241 29.2106 16.584 29.0744C16.644 28.9382 16.693 28.753 16.7311 28.5296C16.7747 28.3063 16.7965 28.0665 16.7965 27.8105Z" fill="#46466E"/>
<path d="M23.656 30.4528V26.6392H22.9478L21.0682 29.0635V26.6392H20.251V30.4528H20.9592L22.8388 28.0284V30.4528H23.656Z" fill="#46466E"/>
<path d="M25.9412 26.6392H25.124V27.8105C25.124 28.2681 25.2439 28.6222 25.4836 28.8729C25.7288 29.1289 26.0611 29.2542 26.486 29.2542C26.851 29.2542 27.1507 29.1834 27.385 29.0363V30.4528H28.2022V26.6392H27.385V28.2463L27.2923 28.3172C27.2324 28.3607 27.1398 28.4043 27.0145 28.4534C26.8892 28.4969 26.7584 28.5187 26.6222 28.5187C26.4043 28.5187 26.2354 28.4588 26.1156 28.3389C26.0012 28.2136 25.9412 28.0393 25.9412 27.8105V26.6392Z" fill="#46466E"/>
<path d="M32.9924 26.6392H32.1752V28.1646H30.5408V26.6392H29.7236V30.4528H30.5408V28.9001H32.1752V30.4528H32.9924V26.6392Z" fill="#46466E"/>
<path d="M36.4772 28.8456H35.551L36.0141 27.5926L36.4772 28.8456ZM36.7496 29.5539L37.0765 30.4528H37.9482L36.45 26.6392H35.5783L34.0801 30.4528H34.9518L35.2786 29.5539H36.7496Z" fill="#46466E"/>
<path d="M41.5115 26.6392H40.6943V30.4528H41.5115V29.3632L42.0019 28.8184L43.1187 30.4528H44.0721L42.5467 28.2191L43.9632 26.6392H43.0097L41.5115 28.3008V26.6392Z" fill="#46466E"/>
<path d="M45.7312 28.5457C45.7312 28.197 45.851 27.8973 46.0907 27.6576C46.325 27.4125 46.6137 27.2926 46.957 27.2926C47.3002 27.2926 47.5889 27.4125 47.8232 27.6576C48.0629 27.8973 48.1828 28.197 48.1828 28.5457C48.1828 28.8998 48.0629 29.194 47.8232 29.4337C47.5889 29.6789 47.3002 29.7987 46.957 29.7987C46.6137 29.7987 46.325 29.6789 46.0907 29.4337C45.851 29.194 45.7312 28.8998 45.7312 28.5457ZM44.8867 28.5457C44.8867 29.0905 45.0883 29.5644 45.486 29.9513C45.8837 30.3381 46.374 30.5342 46.957 30.5342C47.5399 30.5342 48.0302 30.3381 48.4279 29.9513C48.8256 29.5644 49.0272 29.0905 49.0272 28.5457C49.0272 27.9954 48.8256 27.5269 48.4279 27.1401C48.0302 26.7533 47.5399 26.5571 46.957 26.5571C46.374 26.5571 45.8837 26.7533 45.486 27.1401C45.0883 27.5269 44.8867 27.9954 44.8867 28.5457Z" fill="#46466E"/>
<path d="M52.3741 28.3008L51.0665 26.6392H50.3311V30.4528H51.1483V27.9194L52.3741 29.4721L53.5999 27.9086V30.4528H54.4171V26.6392H53.6925L52.3741 28.3008Z" fill="#46466E"/>
<path d="M59.1801 26.6392H55.9385V30.4528H56.7557V27.3746H58.3629V30.4528H59.1801V26.6392Z" fill="#46466E"/>
<path d="M62.6647 28.8456H61.7385L62.2016 27.5926L62.6647 28.8456ZM62.9371 29.5539L63.264 30.4528H64.1357L62.6375 26.6392H61.7658L60.2676 30.4528H61.1393L61.4661 29.5539H62.9371Z" fill="#46466E"/>
<path d="M68.4915 26.6392H67.6743V28.1646H66.0399V26.6392H65.2227V30.4528H66.0399V28.9001H67.6743V30.4528H68.4915V26.6392Z" fill="#46466E"/>
<path d="M70.8309 26.6392H70.0137V30.4528H70.8309V26.6392Z" fill="#46466E"/>
<path d="M75.1863 26.6392H73.4974C73.1161 26.6392 72.8055 26.759 72.5604 26.9987C72.3152 27.2384 72.1899 27.5381 72.1899 27.8922C72.1899 28.0448 72.2172 28.1864 72.2607 28.3226C72.3098 28.4588 72.3642 28.5623 72.4296 28.6386C72.4896 28.7149 72.5549 28.7857 72.6367 28.8511C72.7129 28.9164 72.7674 28.96 72.8001 28.9764C72.8273 28.9873 72.8546 29.0036 72.8709 29.0091L72.0537 30.4528H72.9254L73.6609 29.118H74.3691V30.4528H75.1863V26.6392ZM73.0071 27.8922C73.0071 27.7397 73.0561 27.6198 73.1542 27.5217C73.2523 27.4237 73.3776 27.3746 73.5247 27.3746H74.3691V28.3825H73.5247C73.3776 28.3825 73.2523 28.3335 73.1542 28.2409C73.0561 28.1483 73.0071 28.0284 73.0071 27.8922Z" fill="#46466E"/>
<path d="M2.49057 0H0V17.9875H2.49057V11.3143C2.49057 10.1854 2.77137 9.29477 3.33296 8.6676C3.89456 8.04042 4.66371 7.71429 5.61598 7.71429C6.43396 7.71429 7.11765 8.01533 7.66704 8.59233C8.21643 9.18188 8.49722 9.92195 8.49722 10.8125V18H11V10.8125C11 9.15679 10.5483 7.85226 9.64484 6.87387C8.7414 5.89547 7.55716 5.40627 6.11654 5.40627C5.70144 5.40627 5.28635 5.45645 4.88346 5.56934C4.46837 5.68223 4.13873 5.80767 3.87014 5.94564C3.60155 6.08362 3.34517 6.23415 3.11321 6.40976C2.88124 6.58537 2.72253 6.7108 2.64928 6.78606C2.57603 6.86132 2.51498 6.9115 2.49057 6.94913V0Z" fill="#F0145A"/>
<path d="M16.5675 0H14V17.9725H16.5675V0Z" fill="#323264"/>
<path d="M31.7113 12.709L31.8396 11.4252C31.8396 9.70501 31.2748 8.2672 30.1194 7.11183C28.964 5.95645 27.5262 5.3916 25.806 5.3916C24.0858 5.3916 22.5966 6.0078 21.3642 7.2402C20.1318 8.4726 19.5156 9.93608 19.5156 11.682C19.5156 13.4792 20.1575 15.0197 21.4156 16.3035C22.6737 17.5872 24.1885 18.2291 25.9344 18.2291C26.6019 18.2291 27.2181 18.1264 27.8343 17.9467C28.4505 17.7413 28.964 17.5359 29.3235 17.3305C29.7086 17.0994 30.0937 16.8427 30.4275 16.5602C30.7613 16.2778 30.9924 16.0724 31.0951 15.944C31.1978 15.8157 31.2748 15.7386 31.3261 15.6616L29.6573 13.9927L29.2721 14.4806C29.0154 14.7887 28.5789 15.0968 27.9627 15.4305C27.3208 15.7643 26.6533 15.9184 25.9344 15.9184C24.9331 15.9184 24.0858 15.6103 23.3669 14.9684C22.648 14.3265 22.2115 13.5819 22.0831 12.709H31.7113ZM25.806 7.57398C26.756 7.57398 27.5262 7.8564 28.1681 8.39558C28.7843 8.96043 29.1694 9.65366 29.3235 10.5266H22.1858C22.4169 9.65366 22.8277 8.96043 23.4696 8.39558C24.0858 7.8564 24.8817 7.57398 25.806 7.57398Z" fill="#323264"/>
<path d="M43.6853 17.2278C43.6853 18.3575 43.3515 19.2818 42.6583 20.0007C41.9907 20.6939 41.1435 21.0534 40.0908 21.0534C39.6286 21.0534 39.1665 20.9763 38.73 20.848C38.2935 20.7196 37.9598 20.5655 37.6773 20.3858C37.3949 20.2061 37.1382 20.0264 36.8814 19.7953C36.6503 19.5642 36.4963 19.4102 36.4193 19.3331C36.3422 19.2561 36.2909 19.1791 36.2395 19.1277L34.5707 20.7966L34.7761 21.0534C34.9044 21.2331 35.1355 21.4642 35.4436 21.7209C35.7517 21.952 36.1112 22.2087 36.522 22.4655C36.9328 22.6966 37.4463 22.902 38.0881 23.0817C38.73 23.2614 39.3976 23.3641 40.0908 23.3641C41.8367 23.3641 43.2745 22.7736 44.4812 21.5925C45.6623 20.3858 46.2528 18.948 46.2528 17.2021V5.64835H43.6853V6.9321L43.2488 6.54698C42.9664 6.29023 42.5299 6.03348 41.9137 5.77673C41.2975 5.51998 40.63 5.3916 39.9624 5.3916C38.3962 5.3916 37.0611 5.98213 35.9058 7.18885C34.7504 8.39558 34.1855 9.83338 34.1855 11.5536C34.1855 13.2738 34.7504 14.7116 35.9058 15.9184C37.0611 17.1251 38.3962 17.7156 39.9624 17.7156C40.3989 17.7156 40.8097 17.6643 41.2462 17.5616C41.657 17.4332 41.9907 17.3048 42.2732 17.1764C42.5556 17.0481 42.8123 16.894 43.0434 16.7143C43.2745 16.5346 43.4542 16.4062 43.5056 16.3548L43.6853 16.1751V17.2278ZM36.753 11.5536C36.753 10.4753 37.0868 9.57663 37.78 8.83205C38.4733 8.08748 39.2949 7.70235 40.2192 7.70235C41.1435 7.70235 41.9651 8.08748 42.6583 8.83205C43.3258 9.57663 43.6853 10.4753 43.6853 11.5536C43.6853 12.632 43.3258 13.5306 42.6583 14.2752C41.9651 15.0197 41.1435 15.4049 40.2192 15.4049C39.2949 15.4049 38.4733 15.0197 37.78 14.2752C37.0868 13.5306 36.753 12.632 36.753 11.5536Z" fill="#323264"/>
<path d="M59.6542 17.9724V10.0131C59.6542 8.70368 59.1663 7.59965 58.2164 6.7267C57.2664 5.82808 56.034 5.3916 54.5192 5.3916C53.9286 5.3916 53.3381 5.46863 52.7733 5.62268C52.2084 5.8024 51.7463 5.98213 51.4125 6.18753C51.0787 6.39293 50.7449 6.624 50.4368 6.90643C50.1287 7.16318 49.949 7.3429 49.8463 7.4456C49.7693 7.5483 49.6922 7.62533 49.6409 7.70235L51.3098 9.37123L51.6436 8.93476C51.849 8.65233 52.2084 8.39558 52.7476 8.11315C53.2868 7.83073 53.8773 7.70235 54.5192 7.70235C55.2637 7.70235 55.8799 7.93343 56.3678 8.3699C56.8556 8.80638 57.0867 9.37123 57.0867 10.0131L52.5935 10.7834C51.4895 10.9631 50.5909 11.3996 49.9747 12.0928C49.3328 12.786 48.999 13.6333 48.999 14.6346C48.999 15.5846 49.4098 16.4062 50.2314 17.1251C51.0787 17.8697 52.1057 18.2291 53.3638 18.2291C53.8003 18.2291 54.2111 18.1778 54.6219 18.0494C55.0583 17.9467 55.3921 17.8183 55.6745 17.6899C55.957 17.5616 56.2137 17.4075 56.4448 17.2278C56.6759 17.0481 56.8299 16.9197 56.9326 16.8683C57.0096 16.7913 57.061 16.7143 57.0867 16.6886V17.9724H59.6542ZM53.7489 15.9184C53.0814 15.9184 52.5422 15.7643 52.1571 15.4562C51.7463 15.1481 51.5665 14.7887 51.5665 14.3779C51.5665 13.9414 51.6949 13.5563 51.9773 13.2738C52.2598 12.9914 52.6449 12.786 53.107 12.709L57.0867 12.0671V12.3239C57.0867 13.4792 56.8042 14.3522 56.2137 14.9941C55.6232 15.6103 54.8016 15.9184 53.7489 15.9184Z" fill="#323264"/>
<path d="M65.3204 0H62.7529V17.9725H65.3204V0Z" fill="#323264"/>
<path d="M76.9946 7.06048L76.8406 6.88075C76.7379 6.77805 76.5838 6.64968 76.3527 6.46995C76.1217 6.29023 75.8649 6.13618 75.5825 5.95645C75.3001 5.8024 74.9149 5.67403 74.4528 5.54565C73.9906 5.44295 73.5028 5.3916 73.015 5.3916C71.7569 5.3916 70.7299 5.75105 69.9083 6.46995C69.061 7.21453 68.6502 8.03613 68.6502 8.98611C68.6502 9.67933 68.8043 10.2442 69.1124 10.7577C69.4205 11.2455 69.8056 11.605 70.2934 11.8104C70.7556 12.0414 71.2691 12.2725 71.8083 12.4522C72.3474 12.632 72.8353 12.786 73.3231 12.9144C73.7852 13.0684 74.1704 13.2482 74.4785 13.4792C74.7866 13.7103 74.9406 14.0184 74.9406 14.3779C74.9406 14.84 74.7609 15.2251 74.4271 15.5076C74.0933 15.7643 73.5798 15.9184 72.8866 15.9184C72.3218 15.9184 71.7569 15.7643 71.2177 15.5076C70.6785 15.2251 70.3448 14.9941 70.165 14.8143C70.011 14.6346 69.8826 14.4806 69.8056 14.3779L68.1367 16.0467L68.3164 16.2778C68.4448 16.4319 68.6245 16.6116 68.8813 16.817C69.1637 17.0481 69.4718 17.2535 69.8056 17.4589C70.165 17.6643 70.6272 17.844 71.1664 17.998C71.7056 18.1521 72.2961 18.2291 72.8866 18.2291C74.2474 18.2291 75.3771 17.844 76.2244 17.0994C77.0716 16.3548 77.5081 15.4305 77.5081 14.3779C77.5081 13.6846 77.3541 13.0941 77.046 12.632C76.7379 12.1441 76.3527 11.7847 75.8649 11.5536C75.4028 11.2969 74.8893 11.0915 74.3501 10.9117C73.8109 10.732 73.3231 10.5523 72.8353 10.4496C72.3731 10.3212 71.988 10.1158 71.6799 9.88473C71.3718 9.65366 71.2177 9.34556 71.2177 8.98611C71.2177 8.65233 71.3718 8.34423 71.7056 8.08748C72.0137 7.83073 72.4501 7.70235 73.015 7.70235C73.4258 7.70235 73.8366 7.80505 74.2217 7.98478C74.6325 8.1645 74.9149 8.31855 75.0433 8.44693C75.1717 8.57531 75.2744 8.678 75.3257 8.72935L76.9946 7.06048Z" fill="#323264"/>
<path d="M97.9785 18H99.3145V8.88037H91.4287V18H92.7554V10.1328H97.9785V18ZM104.352 19.3267C104.009 20.2822 103.434 20.7554 102.626 20.7554C102.311 20.7554 101.996 20.6904 101.68 20.5605V21.8037L101.81 21.8408C101.903 21.8779 102.051 21.915 102.237 21.9429C102.422 21.98 102.617 21.9893 102.821 21.9893C103.48 21.9893 104.027 21.7944 104.463 21.3862C104.89 20.978 105.298 20.2915 105.679 19.3267L109.863 8.88037H108.434L105.493 16.293L102.543 8.88037H101.114L104.825 18L104.352 19.3267ZM120.309 13.6304C120.309 12.3687 119.882 11.2925 119.029 10.4019C118.175 9.51123 117.146 9.06592 115.939 9.06592C115.531 9.06592 115.142 9.14014 114.771 9.27002C114.399 9.3999 114.093 9.54834 113.861 9.70605C113.62 9.87305 113.407 10.0493 113.212 10.2534C113.017 10.4575 112.887 10.5967 112.832 10.6802C112.776 10.7637 112.729 10.8286 112.711 10.875C112.757 9.59473 113.091 8.5835 113.704 7.84131C114.316 7.09912 115.132 6.6167 116.134 6.4126C118.027 6.0415 119.233 5.62402 119.743 5.17871L119.075 4.13037L118.797 4.29736C118.611 4.41797 118.259 4.56641 117.739 4.74268C117.21 4.92822 116.607 5.06738 115.939 5.17871C112.841 5.73535 111.292 8.11035 111.292 12.3037C111.292 14.1777 111.709 15.6343 112.562 16.6548C113.407 17.6753 114.501 18.1855 115.847 18.1855C117.09 18.1855 118.138 17.7495 119.01 16.8682C119.873 15.9961 120.309 14.9106 120.309 13.6304ZM112.711 13.6304C112.711 12.6934 113.017 11.9048 113.629 11.2646C114.242 10.6338 114.984 10.3091 115.847 10.3091C116.7 10.3091 117.442 10.6338 118.055 11.2646C118.667 11.9048 118.982 12.6934 118.982 13.6304C118.982 14.5767 118.667 15.3652 118.055 15.9961C117.442 16.6362 116.7 16.9517 115.847 16.9517C114.984 16.9517 114.242 16.6362 113.629 15.9961C113.017 15.3652 112.711 14.5767 112.711 13.6304ZM123.732 8.88037V11.543C123.732 13.0366 123.649 14.187 123.5 14.9941C123.352 15.792 123.167 16.3115 122.944 16.5342C122.721 16.7568 122.415 16.8682 122.025 16.8682C121.766 16.8682 121.515 16.8032 121.265 16.6826V18.0093L121.395 18.0464C121.469 18.0835 121.58 18.1113 121.738 18.1484C121.896 18.1763 122.053 18.1948 122.211 18.1948C122.666 18.1948 123.055 18.1021 123.38 17.9165C123.695 17.731 123.992 17.4062 124.261 16.9424C124.521 16.4785 124.725 15.792 124.855 14.9014C124.985 14.0107 125.059 12.8882 125.059 11.5522V10.1235H129.048V18.0093H130.384V8.88965L123.732 8.88037ZM133.418 18H134.745V8.88037H133.418V18ZM133.223 5.8374C133.223 6.07861 133.297 6.28271 133.464 6.44971C133.631 6.6167 133.835 6.69092 134.077 6.69092C134.318 6.69092 134.513 6.6167 134.68 6.44971C134.847 6.28271 134.93 6.07861 134.93 5.8374C134.93 5.59619 134.847 5.40137 134.68 5.23438C134.513 5.06738 134.318 4.98389 134.077 4.98389C133.835 4.98389 133.631 5.06738 133.464 5.23438C133.297 5.40137 133.223 5.59619 133.223 5.8374ZM139.124 15.4395L140.933 13.5376L144.161 18H145.683L141.786 12.582L145.302 8.88037H143.679L139.124 13.7231V8.88037H137.797V18H139.124V15.4395ZM149.384 12.7769C148.521 12.9253 147.863 13.2314 147.408 13.6953C146.944 14.1592 146.722 14.7715 146.722 15.5322C146.722 16.228 147.028 16.8403 147.649 17.3784C148.271 17.9165 149.041 18.1855 149.95 18.1855C150.312 18.1855 150.665 18.1392 151.008 18.0371C151.351 17.9443 151.629 17.833 151.843 17.7031C152.047 17.5732 152.242 17.4341 152.427 17.2671C152.613 17.1001 152.724 16.9888 152.78 16.9238C152.835 16.8589 152.873 16.8032 152.9 16.7661V18H154.227V12.2017C154.227 11.209 153.884 10.374 153.197 9.69678C152.511 9.02881 151.657 8.68555 150.618 8.68555C150.21 8.68555 149.802 8.75049 149.412 8.87109C149.022 8.9917 148.707 9.13086 148.466 9.2793C148.225 9.43701 147.993 9.61328 147.77 9.80811C147.547 10.0029 147.408 10.1421 147.343 10.2163C147.278 10.2905 147.232 10.3555 147.195 10.4019L148.048 11.2554L148.336 10.9307C148.521 10.708 148.828 10.4854 149.254 10.2627C149.681 10.04 150.136 9.92871 150.618 9.92871C151.286 9.92871 151.833 10.1421 152.26 10.5596C152.687 10.9863 152.9 11.5337 152.9 12.2017L149.384 12.7769ZM149.95 16.9517C149.356 16.9517 148.883 16.8218 148.549 16.5527C148.215 16.2837 148.048 15.9404 148.048 15.5322C148.048 14.6787 148.624 14.1406 149.765 13.918L152.9 13.3428V13.918C152.9 14.8179 152.622 15.5508 152.065 16.1074C151.509 16.6733 150.804 16.9517 149.95 16.9517ZM157.261 18H165.044V20.2822H166.38V16.7661H164.952V8.88037H163.625V16.7661H158.587V8.88037H157.261V18ZM168.468 18H169.794V8.88037H168.468V18ZM168.273 5.8374C168.273 6.07861 168.347 6.28271 168.514 6.44971C168.681 6.6167 168.885 6.69092 169.126 6.69092C169.368 6.69092 169.562 6.6167 169.729 6.44971C169.896 6.28271 169.98 6.07861 169.98 5.8374C169.98 5.59619 169.896 5.40137 169.729 5.23438C169.562 5.06738 169.368 4.98389 169.126 4.98389C168.885 4.98389 168.681 5.06738 168.514 5.23438C168.347 5.40137 168.273 5.59619 168.273 5.8374ZM170.852 5.99512C170.852 6.23633 170.926 6.44043 171.093 6.60742C171.26 6.77441 171.464 6.84863 171.706 6.84863C171.947 6.84863 172.142 6.77441 172.309 6.60742C172.476 6.44043 172.559 6.23633 172.559 5.99512C172.559 5.75391 172.476 5.55908 172.309 5.39209C172.142 5.2251 171.947 5.1416 171.706 5.1416C171.464 5.1416 171.26 5.2251 171.093 5.39209C170.926 5.55908 170.852 5.75391 170.852 5.99512ZM174.461 5.99512C174.461 6.23633 174.535 6.44043 174.702 6.60742C174.869 6.77441 175.073 6.84863 175.314 6.84863C175.556 6.84863 175.75 6.77441 175.917 6.60742C176.084 6.44043 176.168 6.23633 176.168 5.99512C176.168 5.75391 176.084 5.55908 175.917 5.39209C175.75 5.2251 175.556 5.1416 175.314 5.1416C175.073 5.1416 174.869 5.2251 174.702 5.39209C174.535 5.55908 174.461 5.75391 174.461 5.99512ZM172.847 18H174.173V8.88037H172.847V18Z" fill="#323264"/>
<path fill-rule="evenodd" clip-rule="evenodd" d="M191.998 13.351H185.888L188.58 5.18506L191.626 5.20301L189.857 10.5883L192.894 10.5901L191.998 13.351Z" fill="url(#paint0_linear)"/>
<path fill-rule="evenodd" clip-rule="evenodd" d="M179.524 23.9512H176.5C176.5 23.9512 182.008 7.04374 183.295 3.0969C183.896 1.25027 185.622 0 187.568 0H192.975C194.605 0 195.966 0.686832 196.812 1.84746C197.657 3.00814 197.897 4.49328 197.404 6.00835C196.911 7.52343 196.444 8.95362 196.017 10.264C195.441 12.0334 193.844 13.2526 191.998 13.3517C191.998 13.3517 191.989 13.3486 194.575 5.40888C194.804 4.70822 194.72 4.0224 194.362 3.53053C194.003 3.03872 193.399 2.74765 192.599 2.74765H187.96C187.049 2.74765 186.242 3.33271 185.96 4.19687L179.524 23.9512Z" fill="#F0145A"/>
<path fill-rule="evenodd" clip-rule="evenodd" d="M87.4489 0H90.5L82.5511 24H79.5L87.4489 0Z" fill="#F0145A"/>
</g>
<defs>
<linearGradient id="paint0_linear" x1="185.887" y1="11.7869" x2="192.676" y2="15.3448" gradientUnits="userSpaceOnUse">
<stop stop-color="#F0145A"/>
<stop offset="1" stop-color="#693264"/>
</linearGradient>
<clipPath id="clip0">
<rect width="222.5" height="31" fill="white"/>
</clipPath>
</defs>
</svg>
