<svg width="156" height="62" viewBox="0 0 156 62" fill="none" xmlns="http://www.w3.org/2000/svg">
<path d="M10.3513 57.0913C10.3513 55.9799 9.9699 55.0429 9.21807 54.2692C8.46624 53.4956 7.55097 53.1143 6.48316 53.1143C5.51341 53.1143 4.67441 53.4193 3.96617 54.0404C3.26882 54.6506 2.83298 55.3915 2.66953 56.2741H1.63441V53.2777H0V60.9049H1.63441V57.7996H2.66953C2.83298 58.7257 3.26882 59.5102 3.96617 60.1313C4.66351 60.7524 5.50251 61.0684 6.48316 61.0684C7.55097 61.0684 8.46624 60.687 9.21807 59.9134C9.9699 59.1507 10.3513 58.2027 10.3513 57.0913ZM8.71685 57.0913C8.71685 57.8105 8.49893 58.4097 8.06309 58.8783C7.61635 59.3577 7.09334 59.5974 6.48316 59.5974C5.87298 59.5974 5.34997 59.3577 4.91412 58.8783C4.46738 58.4097 4.24946 57.8105 4.24946 57.0913C4.24946 56.3722 4.46738 55.7729 4.91412 55.2935C5.34997 54.8249 5.87298 54.5852 6.48316 54.5852C7.09334 54.5852 7.61635 54.8249 8.06309 55.2935C8.49893 55.7729 8.71685 56.3722 8.71685 57.0913Z" fill="#46466E"/>
<path d="M12.9604 53.2783V60.9056H14.5949V58.3995H16.1748C16.9593 58.3995 17.6131 58.1489 18.1252 57.6585C18.6373 57.1682 18.8988 56.558 18.8988 55.8389C18.8988 55.1089 18.6373 54.5096 18.1252 54.0084C17.6022 53.518 16.9593 53.2783 16.1748 53.2783H12.9604ZM16.1203 54.7493C16.4472 54.7493 16.7196 54.8582 16.9375 55.0653C17.1554 55.2723 17.2644 55.5338 17.2644 55.8389C17.2644 56.144 17.1554 56.4055 16.9375 56.6125C16.7196 56.8195 16.4472 56.9285 16.1203 56.9285H14.5949V54.7493H16.1203Z" fill="#46466E"/>
<path d="M28.2617 60.9056V53.2783H26.8452L23.0861 58.1271V53.2783H21.4517V60.9056H22.8681L26.6273 56.0568V60.9056H28.2617Z" fill="#46466E"/>
<path d="M30.3247 59.4346V62.4855H31.9591V60.9056H36.5355V62.4855H38.1699V59.4346H37.2437V53.2783H31.9591V55.621C31.9591 56.1331 31.9155 56.6125 31.8284 57.0593C31.7412 57.5169 31.6431 57.8765 31.5451 58.1489C31.4361 58.4104 31.3162 58.6501 31.1746 58.8789C31.033 59.0968 30.9458 59.2385 30.8913 59.3038C30.8259 59.3583 30.7932 59.4128 30.7605 59.4346H30.3247ZM33.5935 55.621V54.7493H35.6093V59.4346H32.395L32.5257 59.3038C32.602 59.2167 32.7 59.075 32.8199 58.868C32.9398 58.661 33.0487 58.4213 33.1686 58.1489C33.2884 57.8765 33.3865 57.506 33.4628 57.0593C33.5499 56.6125 33.5935 56.1331 33.5935 55.621Z" fill="#46466E"/>
<path d="M47.3115 60.9056V53.2783H45.895L42.1359 58.1271V53.2783H40.5015V60.9056H41.918L45.6771 56.0568V60.9056H47.3115Z" fill="#46466E"/>
<path d="M51.8815 53.2783H50.2471V55.621C50.2471 56.5362 50.4868 57.2445 50.9662 57.7457C51.4565 58.2578 52.1212 58.5084 52.9711 58.5084C53.7011 58.5084 54.3004 58.3668 54.7689 58.0726V60.9056H56.4033V53.2783H54.7689V56.4927L54.5837 56.6343C54.4638 56.7215 54.2786 56.8086 54.028 56.9067C53.7774 56.9939 53.5159 57.0375 53.2435 57.0375C52.8076 57.0375 52.4699 56.9176 52.2302 56.6779C52.0013 56.4273 51.8815 56.0786 51.8815 55.621V53.2783Z" fill="#46466E"/>
<path d="M65.9859 53.2783H64.3515V56.3292H61.0827V53.2783H59.4482V60.9056H61.0827V57.8002H64.3515V60.9056H65.9859V53.2783Z" fill="#46466E"/>
<path d="M72.9549 57.6912H71.1026L72.0288 55.1851L72.9549 57.6912ZM73.4997 59.1077L74.1535 60.9056H75.8969L72.9004 53.2783H71.1571L68.1606 60.9056H69.904L70.5578 59.1077H73.4997Z" fill="#46466E"/>
<path d="M83.0221 53.2783H81.3877V60.9056H83.0221V58.7263L84.0027 57.6367L86.2364 60.9056H88.1432L85.0924 56.4382L87.9253 53.2783H86.0185L83.0221 56.6016V53.2783Z" fill="#46466E"/>
<path d="M91.4614 57.0913C91.4614 56.394 91.7011 55.7947 92.1805 55.3153C92.649 54.8249 93.2265 54.5852 93.913 54.5852C94.5994 54.5852 95.1769 54.8249 95.6454 55.3153C96.1249 55.7947 96.3646 56.394 96.3646 57.0913C96.3646 57.7996 96.1249 58.388 95.6454 58.8674C95.1769 59.3577 94.5994 59.5974 93.913 59.5974C93.2265 59.5974 92.649 59.3577 92.1805 58.8674C91.7011 58.388 91.4614 57.7996 91.4614 57.0913ZM89.7725 57.0913C89.7725 58.1809 90.1756 59.1289 90.971 59.9025C91.7664 60.6761 92.7471 61.0684 93.913 61.0684C95.0788 61.0684 96.0595 60.6761 96.8549 59.9025C97.6503 59.1289 98.0535 58.1809 98.0535 57.0913C98.0535 55.9908 97.6503 55.0538 96.8549 54.2801C96.0595 53.5065 95.0788 53.1143 93.913 53.1143C92.7471 53.1143 91.7664 53.5065 90.971 54.2801C90.1756 55.0538 89.7725 55.9908 89.7725 57.0913Z" fill="#46466E"/>
<path d="M104.749 56.6016L102.134 53.2783H100.663V60.9056H102.297V55.8389L104.749 58.9443L107.2 55.8171V60.9056H108.835V53.2783H107.385L104.749 56.6016Z" fill="#46466E"/>
<path d="M118.36 53.2783H111.876V60.9056H113.511V54.7493H116.725V60.9056H118.36V53.2783Z" fill="#46466E"/>
<path d="M125.33 57.6912H123.478L124.404 55.1851L125.33 57.6912ZM125.875 59.1077L126.528 60.9056H128.272L125.275 53.2783H123.532L120.536 60.9056H122.279L122.933 59.1077H125.875Z" fill="#46466E"/>
<path d="M136.983 53.2783H135.349V56.3292H132.08V53.2783H130.445V60.9056H132.08V57.8002H135.349V60.9056H136.983V53.2783Z" fill="#46466E"/>
<path d="M141.662 53.2783H140.027V60.9056H141.662V53.2783Z" fill="#46466E"/>
<path d="M150.373 53.2783H146.995C146.232 53.2783 145.611 53.518 145.121 53.9975C144.63 54.4769 144.38 55.0762 144.38 55.7844C144.38 56.0895 144.434 56.3728 144.521 56.6452C144.62 56.9176 144.728 57.1246 144.859 57.2772C144.979 57.4297 145.11 57.5714 145.273 57.7021C145.426 57.8329 145.535 57.92 145.6 57.9527C145.655 57.9745 145.709 58.0072 145.742 58.0181L144.107 60.9056H145.851L147.322 58.236H148.738V60.9056H150.373V53.2783ZM146.014 55.7844C146.014 55.4793 146.112 55.2396 146.308 55.0435C146.505 54.8474 146.755 54.7493 147.049 54.7493H148.738V56.7651H147.049C146.755 56.7651 146.505 56.667 146.308 56.4818C146.112 56.2965 146.014 56.0568 146.014 55.7844Z" fill="#46466E"/>
<path d="M4.98113 0H0V35.9749H4.98113V22.6286C4.98113 20.3707 5.54273 18.5895 6.66593 17.3352C7.78912 16.0808 9.32741 15.4286 11.232 15.4286C12.8679 15.4286 14.2353 16.0307 15.3341 17.1847C16.4329 18.3638 16.9944 19.8439 16.9944 21.6251V36H22V21.6251C22 18.3136 21.0966 15.7045 19.2897 13.7477C17.4828 11.7909 15.1143 10.8125 12.2331 10.8125C11.4029 10.8125 10.5727 10.9129 9.76693 11.1387C8.93674 11.3645 8.27747 11.6153 7.74029 11.8913C7.20311 12.1672 6.69034 12.4683 6.22642 12.8195C5.76249 13.1707 5.44506 13.4216 5.29856 13.5721C5.15205 13.7226 5.02997 13.823 4.98113 13.8983V0Z" fill="#F0145A"/>
<path d="M33.135 0H28V35.945H33.135V0Z" fill="#323264"/>
<path d="M63.422 25.418L63.6788 22.8505C63.6788 19.41 62.5491 16.5344 60.2383 14.2237C57.9276 11.9129 55.052 10.7832 51.6115 10.7832C48.1711 10.7832 45.1928 12.0156 42.728 14.4804C40.2632 16.9452 39.0308 19.8722 39.0308 23.364C39.0308 26.9585 40.3145 30.0395 42.8307 32.607C45.3468 35.1745 48.3765 36.4582 51.8683 36.4582C53.2034 36.4582 54.4358 36.2528 55.6682 35.8934C56.9006 35.4826 57.9276 35.0718 58.6465 34.661C59.4167 34.1988 60.187 33.6853 60.8545 33.1205C61.5221 32.5556 61.9842 32.1448 62.1896 31.8881C62.395 31.6313 62.5491 31.4773 62.6518 31.3232L59.314 27.9855L58.5438 28.9611C58.0303 29.5773 57.1573 30.1935 55.9249 30.8611C54.6412 31.5286 53.3061 31.8367 51.8683 31.8367C49.8656 31.8367 48.1711 31.2205 46.7333 29.9368C45.2955 28.653 44.4225 27.1639 44.1658 25.418H63.422ZM51.6115 15.148C53.5115 15.148 55.052 15.7128 56.3357 16.7912C57.5681 17.9209 58.3384 19.3073 58.6465 21.0532H44.3712C44.8333 19.3073 45.6549 17.9209 46.9387 16.7912C48.1711 15.7128 49.7629 15.148 51.6115 15.148Z" fill="#323264"/>
<path d="M87.3711 34.4556C87.3711 36.715 86.7035 38.5636 85.3171 40.0014C83.982 41.3878 82.2874 42.1067 80.1821 42.1067C79.2578 42.1067 78.3335 41.9527 77.4605 41.6959C76.5876 41.4392 75.92 41.1311 75.3552 40.7716C74.7903 40.4122 74.2768 40.0527 73.7633 39.5906C73.3012 39.1284 72.9931 38.8203 72.839 38.6663C72.685 38.5122 72.5823 38.3582 72.4796 38.2555L69.1418 41.5932L69.5526 42.1067C69.8094 42.4662 70.2715 42.9283 70.8877 43.4418C71.5039 43.904 72.2228 44.4175 73.0444 44.931C73.866 45.3931 74.893 45.8039 76.1768 46.1634C77.4605 46.5228 78.7956 46.7282 80.1821 46.7282C83.6739 46.7282 86.5495 45.5472 88.9629 43.1851C91.325 40.7716 92.5061 37.896 92.5061 34.4042V11.2967H87.3711V13.8642L86.4981 13.094C85.9333 12.5805 85.0603 12.067 83.8279 11.5535C82.5955 11.04 81.2604 10.7832 79.9253 10.7832C76.793 10.7832 74.1228 11.9643 71.812 14.3777C69.5013 16.7912 68.3716 19.6668 68.3716 23.1072C68.3716 26.5477 69.5013 29.4233 71.812 31.8367C74.1228 34.2502 76.793 35.4312 79.9253 35.4312C80.7983 35.4312 81.6199 35.3285 82.4928 35.1231C83.3144 34.8664 83.982 34.6096 84.5468 34.3529C85.1117 34.0961 85.6252 33.788 86.0873 33.4286C86.5495 33.0691 86.9089 32.8124 87.0116 32.7097L87.3711 32.3502V34.4556ZM73.5066 23.1072C73.5066 20.9505 74.1741 19.1533 75.5606 17.6641C76.947 16.175 78.5902 15.4047 80.4388 15.4047C82.2874 15.4047 83.9306 16.175 85.3171 17.6641C86.6522 19.1533 87.3711 20.9505 87.3711 23.1072C87.3711 25.2639 86.6522 27.0612 85.3171 28.5503C83.9306 30.0395 82.2874 30.8097 80.4388 30.8097C78.5902 30.8097 76.947 30.0395 75.5606 28.5503C74.1741 27.0612 73.5066 25.2639 73.5066 23.1072Z" fill="#323264"/>
<path d="M119.309 35.9447V20.0262C119.309 17.4074 118.333 15.1993 116.433 13.4534C114.533 11.6562 112.068 10.7832 109.039 10.7832C107.858 10.7832 106.677 10.9373 105.547 11.2454C104.417 11.6048 103.493 11.9643 102.825 12.3751C102.158 12.7859 101.49 13.248 100.874 13.8129C100.258 14.3264 99.8985 14.6858 99.6931 14.8912C99.539 15.0966 99.385 15.2507 99.2823 15.4047L102.62 18.7425L103.288 17.8695C103.698 17.3047 104.417 16.7912 105.496 16.2263C106.574 15.6615 107.755 15.4047 109.039 15.4047C110.528 15.4047 111.76 15.8669 112.736 16.7398C113.712 17.6128 114.174 18.7425 114.174 20.0262L105.188 21.5667C102.979 21.9262 101.182 22.7991 99.9498 24.1856C98.6661 25.572 97.9985 27.2666 97.9985 29.2692C97.9985 31.1692 98.8201 32.8124 100.463 34.2502C102.158 35.7393 104.212 36.4582 106.728 36.4582C107.601 36.4582 108.423 36.3555 109.244 36.0988C110.117 35.8934 110.785 35.6366 111.35 35.3799C111.914 35.1231 112.428 34.815 112.89 34.4556C113.352 34.0961 113.66 33.8394 113.866 33.7367C114.02 33.5826 114.122 33.4286 114.174 33.3772V35.9447H119.309ZM107.498 31.8367C106.163 31.8367 105.085 31.5286 104.315 30.9124C103.493 30.2962 103.134 29.5773 103.134 28.7557C103.134 27.8828 103.39 27.1125 103.955 26.5477C104.52 25.9828 105.29 25.572 106.215 25.418L114.174 24.1342V24.6477C114.174 26.9585 113.609 28.7044 112.428 29.9881C111.247 31.2205 109.604 31.8367 107.498 31.8367Z" fill="#323264"/>
<path d="M130.64 0H125.505V35.945H130.64V0Z" fill="#323264"/>
<path d="M153.989 14.121L153.681 13.7615C153.475 13.5561 153.167 13.2994 152.705 12.9399C152.243 12.5805 151.729 12.2724 151.164 11.9129C150.6 11.6048 149.829 11.3481 148.905 11.0913C147.981 10.8859 147.005 10.7832 146.029 10.7832C143.513 10.7832 141.459 11.5021 139.816 12.9399C138.122 14.4291 137.3 16.0723 137.3 17.9722C137.3 19.3587 137.608 20.4884 138.224 21.5154C138.84 22.491 139.611 23.2099 140.586 23.6207C141.511 24.0829 142.538 24.545 143.616 24.9045C144.694 25.2639 145.67 25.572 146.646 25.8288C147.57 26.1369 148.34 26.4963 148.956 26.9585C149.573 27.4206 149.881 28.0368 149.881 28.7557C149.881 29.68 149.521 30.4503 148.854 31.0151C148.186 31.5286 147.159 31.8367 145.773 31.8367C144.643 31.8367 143.513 31.5286 142.435 31.0151C141.357 30.4503 140.689 29.9881 140.33 29.6287C140.022 29.2692 139.765 28.9611 139.611 28.7557L136.273 32.0935L136.632 32.5556C136.889 32.8637 137.249 33.2232 137.762 33.634C138.327 34.0961 138.943 34.5069 139.611 34.9177C140.33 35.3285 141.254 35.688 142.332 35.9961C143.411 36.3042 144.592 36.4582 145.773 36.4582C148.494 36.4582 150.754 35.688 152.448 34.1988C154.143 32.7097 155.016 30.8611 155.016 28.7557C155.016 27.3693 154.708 26.1882 154.091 25.2639C153.475 24.2883 152.705 23.5694 151.729 23.1072C150.805 22.5937 149.778 22.1829 148.7 21.8235C147.621 21.464 146.646 21.1046 145.67 20.8992C144.746 20.6424 143.975 20.2316 143.359 19.7695C142.743 19.3073 142.435 18.6911 142.435 17.9722C142.435 17.3047 142.743 16.6885 143.411 16.175C144.027 15.6615 144.9 15.4047 146.029 15.4047C146.851 15.4047 147.673 15.6101 148.443 15.9696C149.265 16.329 149.829 16.6371 150.086 16.8939C150.343 17.1506 150.548 17.356 150.651 17.4587L153.989 14.121Z" fill="#323264"/>
</svg>
