<svg width="205" height="47" viewBox="0 0 205 47" fill="none" xmlns="http://www.w3.org/2000/svg">
<path d="M36.957 36H39.6289V17.7607H23.8574V36H26.5107V20.2656H36.957V36ZM60.3359 26.8896C60.3359 28.8564 59.668 30.5264 58.3691 31.8809C57.0703 33.2354 55.4932 33.9033 53.6748 33.9033C51.8564 33.9033 50.2793 33.2354 48.9805 31.8623C47.6816 30.4893 47.0322 28.8379 47.0322 26.8711C47.0322 24.9043 47.6816 23.2529 48.9805 21.8984C50.2793 20.5439 51.8564 19.8574 53.6748 19.8574C55.4932 19.8574 57.0703 20.5439 58.3691 21.8984C59.668 23.2529 60.3359 24.9229 60.3359 26.8896ZM44.3789 26.8896C44.3789 29.5615 45.2695 31.8066 47.0879 33.6436C48.9062 35.4619 51.0957 36.3896 53.6934 36.3896C56.2725 36.3896 58.4619 35.4619 60.2617 33.6436C62.0801 31.8066 62.9707 29.5615 62.9707 26.8896C62.9707 24.2178 62.0801 21.9727 60.2617 20.1357C58.4619 18.2988 56.2725 17.3711 53.6934 17.3711C51.0957 17.3711 48.9062 18.2988 47.0879 20.1357C45.2695 21.9727 44.3789 24.2178 44.3789 26.8896ZM66.4219 26.8711C66.4219 29.5059 67.3125 31.751 69.1123 33.6064C70.8936 35.4619 73.0459 36.3711 75.5322 36.3711C76.4229 36.3711 77.2949 36.2412 78.1484 35.9629C79.002 35.6846 79.707 35.3877 80.2451 35.0537C80.8018 34.7197 81.3213 34.3486 81.8037 33.9219C82.3047 33.4951 82.6387 33.1982 82.7871 33.0127C82.9355 32.8271 83.0469 32.6973 83.1211 32.5859L81.2285 30.8789L80.6162 31.6211C80.1895 32.1406 79.5029 32.6416 78.5566 33.1426C77.5918 33.6621 76.5898 33.9033 75.5322 33.9033C73.7881 33.9033 72.2666 33.2354 70.9863 31.8809C69.7061 30.5264 69.0752 28.8564 69.0752 26.8896C69.0752 24.9229 69.7061 23.2529 70.9863 21.8984C72.2666 20.5439 73.7881 19.8574 75.5322 19.8574C76.2188 19.8574 76.8867 19.9688 77.5176 20.1729C78.1484 20.3955 78.6494 20.6367 79.0576 20.8965C79.4473 21.1562 79.8184 21.4717 80.1523 21.8242C80.4863 22.1953 80.709 22.4365 80.8018 22.5664C80.9131 22.7148 80.9873 22.8076 81.0244 22.8818L82.9355 20.9893L82.1377 20.1172C81.6182 19.5234 80.7275 18.9111 79.5029 18.2988C78.2783 17.6865 76.9424 17.3711 75.5137 17.3711C73.0459 17.3711 70.9121 18.2988 69.1123 20.1543C67.3125 22.0098 66.4219 24.2363 66.4219 26.8711ZM89.207 17.7607V23.0859C89.207 26.0732 89.04 28.374 88.7432 29.9883C88.4463 31.584 88.0752 32.623 87.6299 33.0684C87.1846 33.5137 86.5723 33.7363 85.793 33.7363C85.2734 33.7363 84.7725 33.6064 84.2715 33.3652V36.0186L84.5312 36.0928C84.6797 36.167 84.9023 36.2227 85.2178 36.2969C85.5332 36.3525 85.8486 36.3896 86.1641 36.3896C87.0732 36.3896 87.8525 36.2041 88.502 35.833C89.1328 35.4619 89.7266 34.8125 90.2646 33.8848C90.7842 32.957 91.1924 31.584 91.4521 29.8027C91.7119 28.0215 91.8604 25.7764 91.8604 23.1045V20.2471H99.8389V36.0186H102.511V17.7793L89.207 17.7607ZM112.567 38.6533C111.881 40.5645 110.73 41.5107 109.116 41.5107C108.485 41.5107 107.854 41.3809 107.224 41.1211V43.6074L107.483 43.6816C107.669 43.7559 107.966 43.8301 108.337 43.8857C108.708 43.96 109.098 43.9785 109.506 43.9785C110.823 43.9785 111.918 43.5889 112.79 42.7725C113.644 41.9561 114.46 40.583 115.221 38.6533L123.589 17.7607H120.731L114.85 32.5859L108.949 17.7607H106.092L113.514 36L112.567 38.6533ZM139.36 17.7607H127.207V36H129.86V20.2285H139.36V17.7607ZM156.468 17.7607L145.446 31.4355V17.7607H142.793V36H145.057L156.078 22.3252V36H158.75V17.7607H156.468Z" fill="white"/>
<path fill-rule="evenodd" clip-rule="evenodd" d="M193.258 26.1454H181.329L186.585 10.1538L192.532 10.189L189.079 20.7352L195.008 20.7387L193.258 26.1454Z" fill="url(#paint0_linear)"/>
<path fill-rule="evenodd" clip-rule="evenodd" d="M168.904 46.9044H163C163 46.9044 173.754 13.794 176.266 6.06476C177.441 2.44844 180.809 0 184.609 0H195.165C198.348 0 201.005 1.34505 202.657 3.61793C204.307 5.89094 204.776 8.79933 203.813 11.7664C202.849 14.7334 201.939 17.5342 201.105 20.1004C199.98 23.5654 196.863 25.953 193.259 26.1471C193.259 26.1471 193.24 26.1411 198.29 10.5924C198.736 9.22026 198.573 7.8772 197.873 6.91395C197.173 5.95083 195.993 5.3808 194.432 5.3808H185.374C183.596 5.3808 182.02 6.52656 181.47 8.21887L168.904 46.9044Z" fill="#F0145A"/>
<path fill-rule="evenodd" clip-rule="evenodd" d="M15.2268 0H21.0714L5.84464 46.8434H0L15.2268 0Z" fill="#F0145A"/>
<defs>
<linearGradient id="paint0_linear" x1="181.328" y1="23.0824" x2="194.6" y2="30.0168" gradientUnits="userSpaceOnUse">
<stop stop-color="#F0145A"/>
<stop offset="1" stop-color="#693264"/>
</linearGradient>
</defs>
</svg>
