<svg width="109" height="174" viewBox="0 0 109 174" fill="none" xmlns="http://www.w3.org/2000/svg">
<path fill-rule="evenodd" clip-rule="evenodd" d="M11.797 173.31H0C0 173.31 47.3565 27.5506 52.3741 12.1131C54.7216 4.89025 61.4513 0 69.0446 0H90.1347C96.4947 0 101.803 2.68645 105.103 7.22606C108.401 11.7659 109.336 17.5748 107.413 23.5008C105.488 29.4268 103.669 35.0208 102.004 40.1463C99.7554 47.0669 93.5269 51.8356 86.3257 52.2234C86.3257 52.2234 86.2884 52.2113 96.3781 21.1561C97.269 18.4155 96.9439 15.7331 95.5443 13.8092C94.1473 11.8855 91.7899 10.747 88.6706 10.747H70.5732C67.0198 10.747 63.8707 13.0354 62.7714 16.4155L11.797 173.31Z" fill="#F0145A"/>
<path fill-rule="evenodd" clip-rule="evenodd" d="M86.3233 52.224H62.5457L73.0226 20.3601L84.8755 20.4302L77.993 41.444L89.8106 41.451L86.3233 52.224Z" fill="url(#paint0_linear)"/>
<defs>
<linearGradient id="paint0_linear" x1="62.544" y1="46.1209" x2="88.9942" y2="59.9456" gradientUnits="userSpaceOnUse">
<stop stop-color="#F0145A"/>
<stop offset="1" stop-color="#693264"/>
</linearGradient>
</defs>
</svg>
